%TF.GenerationSoftware,KiCad,Pcbnew,7.0.7*%
%TF.CreationDate,2023-11-30T16:21:38-08:00*%
%TF.ProjectId,TemperatureHumidityEPD,54656d70-6572-4617-9475-726548756d69,rev?*%
%TF.SameCoordinates,PX75040e0PY7b67cc0*%
%TF.FileFunction,Drillmap*%
%TF.FilePolarity,Positive*%
%FSLAX45Y45*%
G04 Gerber Fmt 4.5, Leading zero omitted, Abs format (unit mm)*
G04 Created by KiCad (PCBNEW 7.0.7) date 2023-11-30 16:21:38*
%MOMM*%
%LPD*%
G01*
G04 APERTURE LIST*
%ADD10C,0.127000*%
%ADD11C,0.200000*%
%ADD12C,0.040000*%
%ADD13C,0.100000*%
G04 APERTURE END LIST*
D10*
X0Y4150000D02*
X0Y150000D01*
X150000Y0D02*
X4650000Y0D01*
X4650000Y0D02*
G75*
G03*
X4800000Y150000I0J150000D01*
G01*
X4800000Y1175000D02*
X4800000Y150000D01*
X4650000Y1325000D02*
X4650000Y2975000D01*
X150000Y4300000D02*
G75*
G03*
X0Y4150000I0J-150000D01*
G01*
X0Y150000D02*
G75*
G03*
X150000Y0I150000J0D01*
G01*
X4650000Y2975000D02*
G75*
G03*
X4800000Y3125000I0J150000D01*
G01*
X4800000Y4150000D02*
G75*
G03*
X4650000Y4300000I-141010J8990D01*
G01*
X4800000Y1175000D02*
G75*
G03*
X4650000Y1325000I-150000J0D01*
G01*
X150000Y4300000D02*
X4650000Y4300000D01*
X4800000Y4150000D02*
X4800000Y3125000D01*
D11*
D12*
X200000Y4100000D02*
X240000Y4060000D01*
X240000Y4100000D02*
X200000Y4060000D01*
X200000Y2830000D02*
X240000Y2790000D01*
X240000Y2830000D02*
X200000Y2790000D01*
X200000Y1560000D02*
X240000Y1520000D01*
X240000Y1560000D02*
X200000Y1520000D01*
X220000Y220000D02*
X260000Y180000D01*
X260000Y220000D02*
X220000Y180000D01*
X280000Y2270000D02*
X320000Y2230000D01*
X320000Y2270000D02*
X280000Y2230000D01*
X340000Y2470000D02*
X380000Y2430000D01*
X380000Y2470000D02*
X340000Y2430000D01*
X342810Y2070000D02*
X382810Y2030000D01*
X382810Y2070000D02*
X342810Y2030000D01*
X450000Y1670000D02*
X490000Y1630000D01*
X490000Y1670000D02*
X450000Y1630000D01*
X490000Y1920000D02*
X530000Y1880000D01*
X530000Y1920000D02*
X490000Y1880000D01*
X520000Y4040000D02*
X560000Y4000000D01*
X560000Y4040000D02*
X520000Y4000000D01*
X520000Y570000D02*
X560000Y530000D01*
X560000Y570000D02*
X520000Y530000D01*
X520000Y420000D02*
X560000Y380000D01*
X560000Y420000D02*
X520000Y380000D01*
X550000Y3710000D02*
X590000Y3670000D01*
X590000Y3710000D02*
X550000Y3670000D01*
X580000Y1050000D02*
X620000Y1010000D01*
X620000Y1050000D02*
X580000Y1010000D01*
X630000Y4020000D02*
X670000Y3980000D01*
X670000Y4020000D02*
X630000Y3980000D01*
X670000Y3780000D02*
X710000Y3740000D01*
X710000Y3780000D02*
X670000Y3740000D01*
X790000Y1340000D02*
X830000Y1300000D01*
X830000Y1340000D02*
X790000Y1300000D01*
X800000Y4020000D02*
X840000Y3980000D01*
X840000Y4020000D02*
X800000Y3980000D01*
X880000Y4220000D02*
X920000Y4180000D01*
X920000Y4220000D02*
X880000Y4180000D01*
X980000Y870000D02*
X1020000Y830000D01*
X1020000Y870000D02*
X980000Y830000D01*
X1070000Y990000D02*
X1110000Y950000D01*
X1110000Y990000D02*
X1070000Y950000D01*
X1070000Y320000D02*
X1110000Y280000D01*
X1110000Y320000D02*
X1070000Y280000D01*
X1116913Y2067652D02*
X1156913Y2027652D01*
X1156913Y2067652D02*
X1116913Y2027652D01*
X1120000Y1890000D02*
X1160000Y1850000D01*
X1160000Y1890000D02*
X1120000Y1850000D01*
X1130000Y1280000D02*
X1170000Y1240000D01*
X1170000Y1280000D02*
X1130000Y1240000D01*
X1140000Y2520000D02*
X1180000Y2480000D01*
X1180000Y2520000D02*
X1140000Y2480000D01*
X1140000Y2400000D02*
X1180000Y2360000D01*
X1180000Y2400000D02*
X1140000Y2360000D01*
X1140000Y2280000D02*
X1180000Y2240000D01*
X1180000Y2280000D02*
X1140000Y2240000D01*
X1140000Y2160000D02*
X1180000Y2120000D01*
X1180000Y2160000D02*
X1140000Y2120000D01*
X1150000Y3790000D02*
X1190000Y3750000D01*
X1190000Y3790000D02*
X1150000Y3750000D01*
X1190000Y3470000D02*
X1230000Y3430000D01*
X1230000Y3470000D02*
X1190000Y3430000D01*
X1235000Y2650000D02*
X1275000Y2610000D01*
X1275000Y2650000D02*
X1235000Y2610000D01*
X1360000Y3750000D02*
X1400000Y3710000D01*
X1400000Y3750000D02*
X1360000Y3710000D01*
X1360000Y390000D02*
X1400000Y350000D01*
X1400000Y390000D02*
X1360000Y350000D01*
X1370000Y910000D02*
X1410000Y870000D01*
X1410000Y910000D02*
X1370000Y870000D01*
X1430000Y2780000D02*
X1470000Y2740000D01*
X1470000Y2780000D02*
X1430000Y2740000D01*
X1430000Y1480000D02*
X1470000Y1440000D01*
X1470000Y1480000D02*
X1430000Y1440000D01*
X1430000Y1300000D02*
X1470000Y1260000D01*
X1470000Y1300000D02*
X1430000Y1260000D01*
X1430000Y1170000D02*
X1470000Y1130000D01*
X1470000Y1170000D02*
X1430000Y1130000D01*
X1440000Y1880000D02*
X1480000Y1840000D01*
X1480000Y1880000D02*
X1440000Y1840000D01*
X1460000Y480000D02*
X1500000Y440000D01*
X1500000Y480000D02*
X1460000Y440000D01*
X1480000Y4150000D02*
X1520000Y4110000D01*
X1520000Y4150000D02*
X1480000Y4110000D01*
X1480000Y2300000D02*
X1520000Y2260000D01*
X1520000Y2300000D02*
X1480000Y2260000D01*
X1510000Y680000D02*
X1550000Y640000D01*
X1550000Y680000D02*
X1510000Y640000D01*
X1540000Y1030000D02*
X1580000Y990000D01*
X1580000Y1030000D02*
X1540000Y990000D01*
X1590000Y580000D02*
X1630000Y540000D01*
X1630000Y580000D02*
X1590000Y540000D01*
X1620000Y460000D02*
X1660000Y420000D01*
X1660000Y460000D02*
X1620000Y420000D01*
X1640000Y2200000D02*
X1680000Y2160000D01*
X1680000Y2200000D02*
X1640000Y2160000D01*
X1660000Y4160000D02*
X1700000Y4120000D01*
X1700000Y4160000D02*
X1660000Y4120000D01*
X1700000Y1000000D02*
X1740000Y960000D01*
X1740000Y1000000D02*
X1700000Y960000D01*
X1740000Y2470000D02*
X1780000Y2430000D01*
X1780000Y2470000D02*
X1740000Y2430000D01*
X1740000Y770000D02*
X1780000Y730000D01*
X1780000Y770000D02*
X1740000Y730000D01*
X1780000Y310000D02*
X1820000Y270000D01*
X1820000Y310000D02*
X1780000Y270000D01*
X1830000Y2020000D02*
X1870000Y1980000D01*
X1870000Y2020000D02*
X1830000Y1980000D01*
X1880000Y4150000D02*
X1920000Y4110000D01*
X1920000Y4150000D02*
X1880000Y4110000D01*
X1930000Y1080000D02*
X1970000Y1040000D01*
X1970000Y1080000D02*
X1930000Y1040000D01*
X1949760Y1300000D02*
X1989760Y1260000D01*
X1989760Y1300000D02*
X1949760Y1260000D01*
X1980000Y3120000D02*
X2020000Y3080000D01*
X2020000Y3120000D02*
X1980000Y3080000D01*
X1980000Y300000D02*
X2020000Y260000D01*
X2020000Y300000D02*
X1980000Y260000D01*
X2010000Y4150000D02*
X2050000Y4110000D01*
X2050000Y4150000D02*
X2010000Y4110000D01*
X2010000Y1180000D02*
X2050000Y1140000D01*
X2050000Y1180000D02*
X2010000Y1140000D01*
X2070000Y980000D02*
X2110000Y940000D01*
X2110000Y980000D02*
X2070000Y940000D01*
X2150000Y2010000D02*
X2190000Y1970000D01*
X2190000Y2010000D02*
X2150000Y1970000D01*
X2177439Y877439D02*
X2217439Y837439D01*
X2217439Y877439D02*
X2177439Y837439D01*
X2279810Y940000D02*
X2319810Y900000D01*
X2319810Y940000D02*
X2279810Y900000D01*
X2280000Y1720000D02*
X2320000Y1680000D01*
X2320000Y1720000D02*
X2280000Y1680000D01*
X2340000Y1040000D02*
X2380000Y1000000D01*
X2380000Y1040000D02*
X2340000Y1000000D01*
X2380000Y3520000D02*
X2420000Y3480000D01*
X2420000Y3520000D02*
X2380000Y3480000D01*
X2380000Y2720000D02*
X2420000Y2680000D01*
X2420000Y2720000D02*
X2380000Y2680000D01*
X2560000Y1910000D02*
X2600000Y1870000D01*
X2600000Y1910000D02*
X2560000Y1870000D01*
X2780000Y3120000D02*
X2820000Y3080000D01*
X2820000Y3120000D02*
X2780000Y3080000D01*
X2780000Y320000D02*
X2820000Y280000D01*
X2820000Y320000D02*
X2780000Y280000D01*
X2790000Y510000D02*
X2830000Y470000D01*
X2830000Y510000D02*
X2790000Y470000D01*
X2860000Y980000D02*
X2900000Y940000D01*
X2900000Y980000D02*
X2860000Y940000D01*
X2870000Y639810D02*
X2910000Y599810D01*
X2910000Y639810D02*
X2870000Y599810D01*
X2910000Y2010000D02*
X2950000Y1970000D01*
X2950000Y2010000D02*
X2910000Y1970000D01*
X3010000Y2470000D02*
X3050000Y2430000D01*
X3050000Y2470000D02*
X3010000Y2430000D01*
X3030000Y1920000D02*
X3070000Y1880000D01*
X3070000Y1920000D02*
X3030000Y1880000D01*
X3050000Y270000D02*
X3090000Y230000D01*
X3090000Y270000D02*
X3050000Y230000D01*
X3110000Y1640000D02*
X3150000Y1600000D01*
X3150000Y1640000D02*
X3110000Y1600000D01*
X3190000Y3760000D02*
X3230000Y3720000D01*
X3230000Y3760000D02*
X3190000Y3720000D01*
X3210000Y2690000D02*
X3250000Y2650000D01*
X3250000Y2690000D02*
X3210000Y2650000D01*
X3230000Y1350000D02*
X3270000Y1310000D01*
X3270000Y1350000D02*
X3230000Y1310000D01*
X3282500Y4147500D02*
X3322500Y4107500D01*
X3322500Y4147500D02*
X3282500Y4107500D01*
X3410000Y1860000D02*
X3450000Y1820000D01*
X3450000Y1860000D02*
X3410000Y1820000D01*
X3460000Y820000D02*
X3500000Y780000D01*
X3500000Y820000D02*
X3460000Y780000D01*
X3480000Y1060000D02*
X3520000Y1020000D01*
X3520000Y1060000D02*
X3480000Y1020000D01*
X3496644Y2070019D02*
X3536644Y2030019D01*
X3536644Y2070019D02*
X3496644Y2030019D01*
X3500000Y2500000D02*
X3540000Y2460000D01*
X3540000Y2500000D02*
X3500000Y2460000D01*
X3500000Y1800000D02*
X3540000Y1760000D01*
X3540000Y1800000D02*
X3500000Y1760000D01*
X3500000Y1650000D02*
X3540000Y1610000D01*
X3540000Y1650000D02*
X3500000Y1610000D01*
X3500000Y1350000D02*
X3540000Y1310000D01*
X3540000Y1350000D02*
X3500000Y1310000D01*
X3653750Y4106250D02*
X3693750Y4066250D01*
X3693750Y4106250D02*
X3653750Y4066250D01*
X3840000Y3150000D02*
X3880000Y3110000D01*
X3880000Y3150000D02*
X3840000Y3110000D01*
X3900000Y620000D02*
X3940000Y580000D01*
X3940000Y620000D02*
X3900000Y580000D01*
X4120000Y2390000D02*
X4160000Y2350000D01*
X4160000Y2390000D02*
X4120000Y2350000D01*
X4120000Y2230000D02*
X4160000Y2190000D01*
X4160000Y2230000D02*
X4120000Y2190000D01*
X4130000Y2090000D02*
X4170000Y2050000D01*
X4170000Y2090000D02*
X4130000Y2050000D01*
X4160000Y1740000D02*
X4200000Y1700000D01*
X4200000Y1740000D02*
X4160000Y1700000D01*
X4180000Y3640000D02*
X4220000Y3600000D01*
X4220000Y3640000D02*
X4180000Y3600000D01*
X4190000Y2310000D02*
X4230000Y2270000D01*
X4230000Y2310000D02*
X4190000Y2270000D01*
X4190000Y2010190D02*
X4230000Y1970190D01*
X4230000Y2010190D02*
X4190000Y1970190D01*
X4200000Y2690000D02*
X4240000Y2650000D01*
X4240000Y2690000D02*
X4200000Y2650000D01*
X4200000Y2170000D02*
X4240000Y2130000D01*
X4240000Y2170000D02*
X4200000Y2130000D01*
X4430000Y2240000D02*
X4470000Y2200000D01*
X4470000Y2240000D02*
X4430000Y2200000D01*
X4430000Y2100000D02*
X4470000Y2060000D01*
X4470000Y2100000D02*
X4430000Y2060000D01*
X4580000Y220000D02*
X4620000Y180000D01*
X4620000Y220000D02*
X4580000Y180000D01*
X4610000Y4130000D02*
X4650000Y4090000D01*
X4650000Y4130000D02*
X4610000Y4090000D01*
D13*
X4146000Y4000000D02*
G75*
G03*
X4146000Y4000000I-50000J0D01*
G01*
X4400000Y4000000D02*
G75*
G03*
X4400000Y4000000I-50000J0D01*
G01*
D11*
X254427Y-317834D02*
X254427Y-117834D01*
X254427Y-117834D02*
X302046Y-117834D01*
X302046Y-117834D02*
X330617Y-127358D01*
X330617Y-127358D02*
X349665Y-146405D01*
X349665Y-146405D02*
X359189Y-165453D01*
X359189Y-165453D02*
X368712Y-203548D01*
X368712Y-203548D02*
X368712Y-232119D01*
X368712Y-232119D02*
X359189Y-270215D01*
X359189Y-270215D02*
X349665Y-289262D01*
X349665Y-289262D02*
X330617Y-308310D01*
X330617Y-308310D02*
X302046Y-317834D01*
X302046Y-317834D02*
X254427Y-317834D01*
X454427Y-317834D02*
X454427Y-184500D01*
X454427Y-222596D02*
X463951Y-203548D01*
X463951Y-203548D02*
X473474Y-194024D01*
X473474Y-194024D02*
X492522Y-184500D01*
X492522Y-184500D02*
X511570Y-184500D01*
X578236Y-317834D02*
X578236Y-184500D01*
X578236Y-117834D02*
X568713Y-127358D01*
X568713Y-127358D02*
X578236Y-136881D01*
X578236Y-136881D02*
X587760Y-127358D01*
X587760Y-127358D02*
X578236Y-117834D01*
X578236Y-117834D02*
X578236Y-136881D01*
X702046Y-317834D02*
X682998Y-308310D01*
X682998Y-308310D02*
X673474Y-289262D01*
X673474Y-289262D02*
X673474Y-117834D01*
X806808Y-317834D02*
X787760Y-308310D01*
X787760Y-308310D02*
X778236Y-289262D01*
X778236Y-289262D02*
X778236Y-117834D01*
X1035379Y-317834D02*
X1035379Y-117834D01*
X1035379Y-117834D02*
X1102046Y-260691D01*
X1102046Y-260691D02*
X1168713Y-117834D01*
X1168713Y-117834D02*
X1168713Y-317834D01*
X1349665Y-317834D02*
X1349665Y-213072D01*
X1349665Y-213072D02*
X1340141Y-194024D01*
X1340141Y-194024D02*
X1321094Y-184500D01*
X1321094Y-184500D02*
X1282998Y-184500D01*
X1282998Y-184500D02*
X1263951Y-194024D01*
X1349665Y-308310D02*
X1330617Y-317834D01*
X1330617Y-317834D02*
X1282998Y-317834D01*
X1282998Y-317834D02*
X1263951Y-308310D01*
X1263951Y-308310D02*
X1254427Y-289262D01*
X1254427Y-289262D02*
X1254427Y-270215D01*
X1254427Y-270215D02*
X1263951Y-251167D01*
X1263951Y-251167D02*
X1282998Y-241643D01*
X1282998Y-241643D02*
X1330617Y-241643D01*
X1330617Y-241643D02*
X1349665Y-232119D01*
X1444903Y-184500D02*
X1444903Y-384500D01*
X1444903Y-194024D02*
X1463951Y-184500D01*
X1463951Y-184500D02*
X1502046Y-184500D01*
X1502046Y-184500D02*
X1521093Y-194024D01*
X1521093Y-194024D02*
X1530617Y-203548D01*
X1530617Y-203548D02*
X1540141Y-222596D01*
X1540141Y-222596D02*
X1540141Y-279739D01*
X1540141Y-279739D02*
X1530617Y-298786D01*
X1530617Y-298786D02*
X1521093Y-308310D01*
X1521093Y-308310D02*
X1502046Y-317834D01*
X1502046Y-317834D02*
X1463951Y-317834D01*
X1463951Y-317834D02*
X1444903Y-308310D01*
X1625855Y-298786D02*
X1635379Y-308310D01*
X1635379Y-308310D02*
X1625855Y-317834D01*
X1625855Y-317834D02*
X1616332Y-308310D01*
X1616332Y-308310D02*
X1625855Y-298786D01*
X1625855Y-298786D02*
X1625855Y-317834D01*
X1625855Y-194024D02*
X1635379Y-203548D01*
X1635379Y-203548D02*
X1625855Y-213072D01*
X1625855Y-213072D02*
X1616332Y-203548D01*
X1616332Y-203548D02*
X1625855Y-194024D01*
X1625855Y-194024D02*
X1625855Y-213072D01*
D12*
X-46350Y-626350D02*
X-6350Y-666350D01*
X-6350Y-626350D02*
X-46350Y-666350D01*
D11*
X292522Y-537834D02*
X311570Y-537834D01*
X311570Y-537834D02*
X330617Y-547358D01*
X330617Y-547358D02*
X340141Y-556881D01*
X340141Y-556881D02*
X349665Y-575929D01*
X349665Y-575929D02*
X359189Y-614024D01*
X359189Y-614024D02*
X359189Y-661643D01*
X359189Y-661643D02*
X349665Y-699738D01*
X349665Y-699738D02*
X340141Y-718786D01*
X340141Y-718786D02*
X330617Y-728310D01*
X330617Y-728310D02*
X311570Y-737834D01*
X311570Y-737834D02*
X292522Y-737834D01*
X292522Y-737834D02*
X273474Y-728310D01*
X273474Y-728310D02*
X263951Y-718786D01*
X263951Y-718786D02*
X254427Y-699738D01*
X254427Y-699738D02*
X244903Y-661643D01*
X244903Y-661643D02*
X244903Y-614024D01*
X244903Y-614024D02*
X254427Y-575929D01*
X254427Y-575929D02*
X263951Y-556881D01*
X263951Y-556881D02*
X273474Y-547358D01*
X273474Y-547358D02*
X292522Y-537834D01*
X444903Y-718786D02*
X454427Y-728310D01*
X454427Y-728310D02*
X444903Y-737834D01*
X444903Y-737834D02*
X435379Y-728310D01*
X435379Y-728310D02*
X444903Y-718786D01*
X444903Y-718786D02*
X444903Y-737834D01*
X625855Y-604500D02*
X625855Y-737834D01*
X578236Y-528310D02*
X530617Y-671167D01*
X530617Y-671167D02*
X654427Y-671167D01*
X768712Y-537834D02*
X787760Y-537834D01*
X787760Y-537834D02*
X806808Y-547358D01*
X806808Y-547358D02*
X816332Y-556881D01*
X816332Y-556881D02*
X825855Y-575929D01*
X825855Y-575929D02*
X835379Y-614024D01*
X835379Y-614024D02*
X835379Y-661643D01*
X835379Y-661643D02*
X825855Y-699738D01*
X825855Y-699738D02*
X816332Y-718786D01*
X816332Y-718786D02*
X806808Y-728310D01*
X806808Y-728310D02*
X787760Y-737834D01*
X787760Y-737834D02*
X768712Y-737834D01*
X768712Y-737834D02*
X749665Y-728310D01*
X749665Y-728310D02*
X740141Y-718786D01*
X740141Y-718786D02*
X730617Y-699738D01*
X730617Y-699738D02*
X721093Y-661643D01*
X721093Y-661643D02*
X721093Y-614024D01*
X721093Y-614024D02*
X730617Y-575929D01*
X730617Y-575929D02*
X740141Y-556881D01*
X740141Y-556881D02*
X749665Y-547358D01*
X749665Y-547358D02*
X768712Y-537834D01*
X959189Y-537834D02*
X978236Y-537834D01*
X978236Y-537834D02*
X997284Y-547358D01*
X997284Y-547358D02*
X1006808Y-556881D01*
X1006808Y-556881D02*
X1016332Y-575929D01*
X1016332Y-575929D02*
X1025855Y-614024D01*
X1025855Y-614024D02*
X1025855Y-661643D01*
X1025855Y-661643D02*
X1016332Y-699738D01*
X1016332Y-699738D02*
X1006808Y-718786D01*
X1006808Y-718786D02*
X997284Y-728310D01*
X997284Y-728310D02*
X978236Y-737834D01*
X978236Y-737834D02*
X959189Y-737834D01*
X959189Y-737834D02*
X940141Y-728310D01*
X940141Y-728310D02*
X930617Y-718786D01*
X930617Y-718786D02*
X921093Y-699738D01*
X921093Y-699738D02*
X911570Y-661643D01*
X911570Y-661643D02*
X911570Y-614024D01*
X911570Y-614024D02*
X921093Y-575929D01*
X921093Y-575929D02*
X930617Y-556881D01*
X930617Y-556881D02*
X940141Y-547358D01*
X940141Y-547358D02*
X959189Y-537834D01*
X1111570Y-737834D02*
X1111570Y-604500D01*
X1111570Y-623548D02*
X1121094Y-614024D01*
X1121094Y-614024D02*
X1140141Y-604500D01*
X1140141Y-604500D02*
X1168713Y-604500D01*
X1168713Y-604500D02*
X1187760Y-614024D01*
X1187760Y-614024D02*
X1197284Y-633072D01*
X1197284Y-633072D02*
X1197284Y-737834D01*
X1197284Y-633072D02*
X1206808Y-614024D01*
X1206808Y-614024D02*
X1225855Y-604500D01*
X1225855Y-604500D02*
X1254427Y-604500D01*
X1254427Y-604500D02*
X1273475Y-614024D01*
X1273475Y-614024D02*
X1282998Y-633072D01*
X1282998Y-633072D02*
X1282998Y-737834D01*
X1378236Y-737834D02*
X1378236Y-604500D01*
X1378236Y-623548D02*
X1387760Y-614024D01*
X1387760Y-614024D02*
X1406808Y-604500D01*
X1406808Y-604500D02*
X1435379Y-604500D01*
X1435379Y-604500D02*
X1454427Y-614024D01*
X1454427Y-614024D02*
X1463951Y-633072D01*
X1463951Y-633072D02*
X1463951Y-737834D01*
X1463951Y-633072D02*
X1473474Y-614024D01*
X1473474Y-614024D02*
X1492522Y-604500D01*
X1492522Y-604500D02*
X1521093Y-604500D01*
X1521093Y-604500D02*
X1540141Y-614024D01*
X1540141Y-614024D02*
X1549665Y-633072D01*
X1549665Y-633072D02*
X1549665Y-737834D01*
X1940141Y-528310D02*
X1768713Y-785453D01*
X2197284Y-537834D02*
X2216332Y-537834D01*
X2216332Y-537834D02*
X2235379Y-547358D01*
X2235379Y-547358D02*
X2244903Y-556881D01*
X2244903Y-556881D02*
X2254427Y-575929D01*
X2254427Y-575929D02*
X2263951Y-614024D01*
X2263951Y-614024D02*
X2263951Y-661643D01*
X2263951Y-661643D02*
X2254427Y-699738D01*
X2254427Y-699738D02*
X2244903Y-718786D01*
X2244903Y-718786D02*
X2235379Y-728310D01*
X2235379Y-728310D02*
X2216332Y-737834D01*
X2216332Y-737834D02*
X2197284Y-737834D01*
X2197284Y-737834D02*
X2178237Y-728310D01*
X2178237Y-728310D02*
X2168713Y-718786D01*
X2168713Y-718786D02*
X2159189Y-699738D01*
X2159189Y-699738D02*
X2149665Y-661643D01*
X2149665Y-661643D02*
X2149665Y-614024D01*
X2149665Y-614024D02*
X2159189Y-575929D01*
X2159189Y-575929D02*
X2168713Y-556881D01*
X2168713Y-556881D02*
X2178237Y-547358D01*
X2178237Y-547358D02*
X2197284Y-537834D01*
X2349665Y-718786D02*
X2359189Y-728310D01*
X2359189Y-728310D02*
X2349665Y-737834D01*
X2349665Y-737834D02*
X2340141Y-728310D01*
X2340141Y-728310D02*
X2349665Y-718786D01*
X2349665Y-718786D02*
X2349665Y-737834D01*
X2482998Y-537834D02*
X2502046Y-537834D01*
X2502046Y-537834D02*
X2521094Y-547358D01*
X2521094Y-547358D02*
X2530618Y-556881D01*
X2530618Y-556881D02*
X2540141Y-575929D01*
X2540141Y-575929D02*
X2549665Y-614024D01*
X2549665Y-614024D02*
X2549665Y-661643D01*
X2549665Y-661643D02*
X2540141Y-699738D01*
X2540141Y-699738D02*
X2530618Y-718786D01*
X2530618Y-718786D02*
X2521094Y-728310D01*
X2521094Y-728310D02*
X2502046Y-737834D01*
X2502046Y-737834D02*
X2482998Y-737834D01*
X2482998Y-737834D02*
X2463951Y-728310D01*
X2463951Y-728310D02*
X2454427Y-718786D01*
X2454427Y-718786D02*
X2444903Y-699738D01*
X2444903Y-699738D02*
X2435379Y-661643D01*
X2435379Y-661643D02*
X2435379Y-614024D01*
X2435379Y-614024D02*
X2444903Y-575929D01*
X2444903Y-575929D02*
X2454427Y-556881D01*
X2454427Y-556881D02*
X2463951Y-547358D01*
X2463951Y-547358D02*
X2482998Y-537834D01*
X2740141Y-737834D02*
X2625856Y-737834D01*
X2682998Y-737834D02*
X2682998Y-537834D01*
X2682998Y-537834D02*
X2663951Y-566405D01*
X2663951Y-566405D02*
X2644903Y-585453D01*
X2644903Y-585453D02*
X2625856Y-594977D01*
X2921094Y-537834D02*
X2825856Y-537834D01*
X2825856Y-537834D02*
X2816332Y-633072D01*
X2816332Y-633072D02*
X2825856Y-623548D01*
X2825856Y-623548D02*
X2844903Y-614024D01*
X2844903Y-614024D02*
X2892522Y-614024D01*
X2892522Y-614024D02*
X2911570Y-623548D01*
X2911570Y-623548D02*
X2921094Y-633072D01*
X2921094Y-633072D02*
X2930617Y-652120D01*
X2930617Y-652120D02*
X2930617Y-699738D01*
X2930617Y-699738D02*
X2921094Y-718786D01*
X2921094Y-718786D02*
X2911570Y-728310D01*
X2911570Y-728310D02*
X2892522Y-737834D01*
X2892522Y-737834D02*
X2844903Y-737834D01*
X2844903Y-737834D02*
X2825856Y-728310D01*
X2825856Y-728310D02*
X2816332Y-718786D01*
X2997284Y-537834D02*
X3130617Y-537834D01*
X3130617Y-537834D02*
X3044903Y-737834D01*
X3197284Y-537834D02*
X3197284Y-575929D01*
X3273475Y-537834D02*
X3273475Y-575929D01*
X3568713Y-814024D02*
X3559189Y-804500D01*
X3559189Y-804500D02*
X3540141Y-775929D01*
X3540141Y-775929D02*
X3530618Y-756881D01*
X3530618Y-756881D02*
X3521094Y-728310D01*
X3521094Y-728310D02*
X3511570Y-680691D01*
X3511570Y-680691D02*
X3511570Y-642596D01*
X3511570Y-642596D02*
X3521094Y-594977D01*
X3521094Y-594977D02*
X3530618Y-566405D01*
X3530618Y-566405D02*
X3540141Y-547358D01*
X3540141Y-547358D02*
X3559189Y-518786D01*
X3559189Y-518786D02*
X3568713Y-509262D01*
X3749665Y-737834D02*
X3635379Y-737834D01*
X3692522Y-737834D02*
X3692522Y-537834D01*
X3692522Y-537834D02*
X3673475Y-566405D01*
X3673475Y-566405D02*
X3654427Y-585453D01*
X3654427Y-585453D02*
X3635379Y-594977D01*
X3873475Y-537834D02*
X3892522Y-537834D01*
X3892522Y-537834D02*
X3911570Y-547358D01*
X3911570Y-547358D02*
X3921094Y-556881D01*
X3921094Y-556881D02*
X3930618Y-575929D01*
X3930618Y-575929D02*
X3940141Y-614024D01*
X3940141Y-614024D02*
X3940141Y-661643D01*
X3940141Y-661643D02*
X3930618Y-699738D01*
X3930618Y-699738D02*
X3921094Y-718786D01*
X3921094Y-718786D02*
X3911570Y-728310D01*
X3911570Y-728310D02*
X3892522Y-737834D01*
X3892522Y-737834D02*
X3873475Y-737834D01*
X3873475Y-737834D02*
X3854427Y-728310D01*
X3854427Y-728310D02*
X3844903Y-718786D01*
X3844903Y-718786D02*
X3835379Y-699738D01*
X3835379Y-699738D02*
X3825856Y-661643D01*
X3825856Y-661643D02*
X3825856Y-614024D01*
X3825856Y-614024D02*
X3835379Y-575929D01*
X3835379Y-575929D02*
X3844903Y-556881D01*
X3844903Y-556881D02*
X3854427Y-547358D01*
X3854427Y-547358D02*
X3873475Y-537834D01*
X4054427Y-623548D02*
X4035379Y-614024D01*
X4035379Y-614024D02*
X4025856Y-604500D01*
X4025856Y-604500D02*
X4016332Y-585453D01*
X4016332Y-585453D02*
X4016332Y-575929D01*
X4016332Y-575929D02*
X4025856Y-556881D01*
X4025856Y-556881D02*
X4035379Y-547358D01*
X4035379Y-547358D02*
X4054427Y-537834D01*
X4054427Y-537834D02*
X4092522Y-537834D01*
X4092522Y-537834D02*
X4111570Y-547358D01*
X4111570Y-547358D02*
X4121094Y-556881D01*
X4121094Y-556881D02*
X4130618Y-575929D01*
X4130618Y-575929D02*
X4130618Y-585453D01*
X4130618Y-585453D02*
X4121094Y-604500D01*
X4121094Y-604500D02*
X4111570Y-614024D01*
X4111570Y-614024D02*
X4092522Y-623548D01*
X4092522Y-623548D02*
X4054427Y-623548D01*
X4054427Y-623548D02*
X4035379Y-633072D01*
X4035379Y-633072D02*
X4025856Y-642596D01*
X4025856Y-642596D02*
X4016332Y-661643D01*
X4016332Y-661643D02*
X4016332Y-699738D01*
X4016332Y-699738D02*
X4025856Y-718786D01*
X4025856Y-718786D02*
X4035379Y-728310D01*
X4035379Y-728310D02*
X4054427Y-737834D01*
X4054427Y-737834D02*
X4092522Y-737834D01*
X4092522Y-737834D02*
X4111570Y-728310D01*
X4111570Y-728310D02*
X4121094Y-718786D01*
X4121094Y-718786D02*
X4130618Y-699738D01*
X4130618Y-699738D02*
X4130618Y-661643D01*
X4130618Y-661643D02*
X4121094Y-642596D01*
X4121094Y-642596D02*
X4111570Y-633072D01*
X4111570Y-633072D02*
X4092522Y-623548D01*
X4368713Y-737834D02*
X4368713Y-537834D01*
X4454427Y-737834D02*
X4454427Y-633072D01*
X4454427Y-633072D02*
X4444903Y-614024D01*
X4444903Y-614024D02*
X4425856Y-604500D01*
X4425856Y-604500D02*
X4397284Y-604500D01*
X4397284Y-604500D02*
X4378237Y-614024D01*
X4378237Y-614024D02*
X4368713Y-623548D01*
X4578237Y-737834D02*
X4559189Y-728310D01*
X4559189Y-728310D02*
X4549665Y-718786D01*
X4549665Y-718786D02*
X4540142Y-699738D01*
X4540142Y-699738D02*
X4540142Y-642596D01*
X4540142Y-642596D02*
X4549665Y-623548D01*
X4549665Y-623548D02*
X4559189Y-614024D01*
X4559189Y-614024D02*
X4578237Y-604500D01*
X4578237Y-604500D02*
X4606808Y-604500D01*
X4606808Y-604500D02*
X4625856Y-614024D01*
X4625856Y-614024D02*
X4635380Y-623548D01*
X4635380Y-623548D02*
X4644903Y-642596D01*
X4644903Y-642596D02*
X4644903Y-699738D01*
X4644903Y-699738D02*
X4635380Y-718786D01*
X4635380Y-718786D02*
X4625856Y-728310D01*
X4625856Y-728310D02*
X4606808Y-737834D01*
X4606808Y-737834D02*
X4578237Y-737834D01*
X4759189Y-737834D02*
X4740142Y-728310D01*
X4740142Y-728310D02*
X4730618Y-709262D01*
X4730618Y-709262D02*
X4730618Y-537834D01*
X4911570Y-728310D02*
X4892523Y-737834D01*
X4892523Y-737834D02*
X4854427Y-737834D01*
X4854427Y-737834D02*
X4835380Y-728310D01*
X4835380Y-728310D02*
X4825856Y-709262D01*
X4825856Y-709262D02*
X4825856Y-633072D01*
X4825856Y-633072D02*
X4835380Y-614024D01*
X4835380Y-614024D02*
X4854427Y-604500D01*
X4854427Y-604500D02*
X4892523Y-604500D01*
X4892523Y-604500D02*
X4911570Y-614024D01*
X4911570Y-614024D02*
X4921094Y-633072D01*
X4921094Y-633072D02*
X4921094Y-652120D01*
X4921094Y-652120D02*
X4825856Y-671167D01*
X4997284Y-728310D02*
X5016332Y-737834D01*
X5016332Y-737834D02*
X5054427Y-737834D01*
X5054427Y-737834D02*
X5073475Y-728310D01*
X5073475Y-728310D02*
X5082999Y-709262D01*
X5082999Y-709262D02*
X5082999Y-699738D01*
X5082999Y-699738D02*
X5073475Y-680691D01*
X5073475Y-680691D02*
X5054427Y-671167D01*
X5054427Y-671167D02*
X5025856Y-671167D01*
X5025856Y-671167D02*
X5006808Y-661643D01*
X5006808Y-661643D02*
X4997284Y-642596D01*
X4997284Y-642596D02*
X4997284Y-633072D01*
X4997284Y-633072D02*
X5006808Y-614024D01*
X5006808Y-614024D02*
X5025856Y-604500D01*
X5025856Y-604500D02*
X5054427Y-604500D01*
X5054427Y-604500D02*
X5073475Y-614024D01*
X5149665Y-814024D02*
X5159189Y-804500D01*
X5159189Y-804500D02*
X5178237Y-775929D01*
X5178237Y-775929D02*
X5187761Y-756881D01*
X5187761Y-756881D02*
X5197284Y-728310D01*
X5197284Y-728310D02*
X5206808Y-680691D01*
X5206808Y-680691D02*
X5206808Y-642596D01*
X5206808Y-642596D02*
X5197284Y-594977D01*
X5197284Y-594977D02*
X5187761Y-566405D01*
X5187761Y-566405D02*
X5178237Y-547358D01*
X5178237Y-547358D02*
X5159189Y-518786D01*
X5159189Y-518786D02*
X5149665Y-509262D01*
D13*
X-6350Y-910350D02*
G75*
G03*
X-6350Y-910350I-50000J0D01*
G01*
D11*
X359189Y-1001834D02*
X244903Y-1001834D01*
X302046Y-1001834D02*
X302046Y-801834D01*
X302046Y-801834D02*
X282998Y-830405D01*
X282998Y-830405D02*
X263951Y-849453D01*
X263951Y-849453D02*
X244903Y-858977D01*
X444903Y-982786D02*
X454427Y-992310D01*
X454427Y-992310D02*
X444903Y-1001834D01*
X444903Y-1001834D02*
X435379Y-992310D01*
X435379Y-992310D02*
X444903Y-982786D01*
X444903Y-982786D02*
X444903Y-1001834D01*
X578236Y-801834D02*
X597284Y-801834D01*
X597284Y-801834D02*
X616332Y-811358D01*
X616332Y-811358D02*
X625855Y-820881D01*
X625855Y-820881D02*
X635379Y-839929D01*
X635379Y-839929D02*
X644903Y-878024D01*
X644903Y-878024D02*
X644903Y-925643D01*
X644903Y-925643D02*
X635379Y-963738D01*
X635379Y-963738D02*
X625855Y-982786D01*
X625855Y-982786D02*
X616332Y-992310D01*
X616332Y-992310D02*
X597284Y-1001834D01*
X597284Y-1001834D02*
X578236Y-1001834D01*
X578236Y-1001834D02*
X559189Y-992310D01*
X559189Y-992310D02*
X549665Y-982786D01*
X549665Y-982786D02*
X540141Y-963738D01*
X540141Y-963738D02*
X530617Y-925643D01*
X530617Y-925643D02*
X530617Y-878024D01*
X530617Y-878024D02*
X540141Y-839929D01*
X540141Y-839929D02*
X549665Y-820881D01*
X549665Y-820881D02*
X559189Y-811358D01*
X559189Y-811358D02*
X578236Y-801834D01*
X768712Y-801834D02*
X787760Y-801834D01*
X787760Y-801834D02*
X806808Y-811358D01*
X806808Y-811358D02*
X816332Y-820881D01*
X816332Y-820881D02*
X825855Y-839929D01*
X825855Y-839929D02*
X835379Y-878024D01*
X835379Y-878024D02*
X835379Y-925643D01*
X835379Y-925643D02*
X825855Y-963738D01*
X825855Y-963738D02*
X816332Y-982786D01*
X816332Y-982786D02*
X806808Y-992310D01*
X806808Y-992310D02*
X787760Y-1001834D01*
X787760Y-1001834D02*
X768712Y-1001834D01*
X768712Y-1001834D02*
X749665Y-992310D01*
X749665Y-992310D02*
X740141Y-982786D01*
X740141Y-982786D02*
X730617Y-963738D01*
X730617Y-963738D02*
X721093Y-925643D01*
X721093Y-925643D02*
X721093Y-878024D01*
X721093Y-878024D02*
X730617Y-839929D01*
X730617Y-839929D02*
X740141Y-820881D01*
X740141Y-820881D02*
X749665Y-811358D01*
X749665Y-811358D02*
X768712Y-801834D01*
X959189Y-801834D02*
X978236Y-801834D01*
X978236Y-801834D02*
X997284Y-811358D01*
X997284Y-811358D02*
X1006808Y-820881D01*
X1006808Y-820881D02*
X1016332Y-839929D01*
X1016332Y-839929D02*
X1025855Y-878024D01*
X1025855Y-878024D02*
X1025855Y-925643D01*
X1025855Y-925643D02*
X1016332Y-963738D01*
X1016332Y-963738D02*
X1006808Y-982786D01*
X1006808Y-982786D02*
X997284Y-992310D01*
X997284Y-992310D02*
X978236Y-1001834D01*
X978236Y-1001834D02*
X959189Y-1001834D01*
X959189Y-1001834D02*
X940141Y-992310D01*
X940141Y-992310D02*
X930617Y-982786D01*
X930617Y-982786D02*
X921093Y-963738D01*
X921093Y-963738D02*
X911570Y-925643D01*
X911570Y-925643D02*
X911570Y-878024D01*
X911570Y-878024D02*
X921093Y-839929D01*
X921093Y-839929D02*
X930617Y-820881D01*
X930617Y-820881D02*
X940141Y-811358D01*
X940141Y-811358D02*
X959189Y-801834D01*
X1111570Y-1001834D02*
X1111570Y-868500D01*
X1111570Y-887548D02*
X1121094Y-878024D01*
X1121094Y-878024D02*
X1140141Y-868500D01*
X1140141Y-868500D02*
X1168713Y-868500D01*
X1168713Y-868500D02*
X1187760Y-878024D01*
X1187760Y-878024D02*
X1197284Y-897072D01*
X1197284Y-897072D02*
X1197284Y-1001834D01*
X1197284Y-897072D02*
X1206808Y-878024D01*
X1206808Y-878024D02*
X1225855Y-868500D01*
X1225855Y-868500D02*
X1254427Y-868500D01*
X1254427Y-868500D02*
X1273475Y-878024D01*
X1273475Y-878024D02*
X1282998Y-897072D01*
X1282998Y-897072D02*
X1282998Y-1001834D01*
X1378236Y-1001834D02*
X1378236Y-868500D01*
X1378236Y-887548D02*
X1387760Y-878024D01*
X1387760Y-878024D02*
X1406808Y-868500D01*
X1406808Y-868500D02*
X1435379Y-868500D01*
X1435379Y-868500D02*
X1454427Y-878024D01*
X1454427Y-878024D02*
X1463951Y-897072D01*
X1463951Y-897072D02*
X1463951Y-1001834D01*
X1463951Y-897072D02*
X1473474Y-878024D01*
X1473474Y-878024D02*
X1492522Y-868500D01*
X1492522Y-868500D02*
X1521093Y-868500D01*
X1521093Y-868500D02*
X1540141Y-878024D01*
X1540141Y-878024D02*
X1549665Y-897072D01*
X1549665Y-897072D02*
X1549665Y-1001834D01*
X1940141Y-792310D02*
X1768713Y-1049453D01*
X2197284Y-801834D02*
X2216332Y-801834D01*
X2216332Y-801834D02*
X2235379Y-811358D01*
X2235379Y-811358D02*
X2244903Y-820881D01*
X2244903Y-820881D02*
X2254427Y-839929D01*
X2254427Y-839929D02*
X2263951Y-878024D01*
X2263951Y-878024D02*
X2263951Y-925643D01*
X2263951Y-925643D02*
X2254427Y-963738D01*
X2254427Y-963738D02*
X2244903Y-982786D01*
X2244903Y-982786D02*
X2235379Y-992310D01*
X2235379Y-992310D02*
X2216332Y-1001834D01*
X2216332Y-1001834D02*
X2197284Y-1001834D01*
X2197284Y-1001834D02*
X2178237Y-992310D01*
X2178237Y-992310D02*
X2168713Y-982786D01*
X2168713Y-982786D02*
X2159189Y-963738D01*
X2159189Y-963738D02*
X2149665Y-925643D01*
X2149665Y-925643D02*
X2149665Y-878024D01*
X2149665Y-878024D02*
X2159189Y-839929D01*
X2159189Y-839929D02*
X2168713Y-820881D01*
X2168713Y-820881D02*
X2178237Y-811358D01*
X2178237Y-811358D02*
X2197284Y-801834D01*
X2349665Y-982786D02*
X2359189Y-992310D01*
X2359189Y-992310D02*
X2349665Y-1001834D01*
X2349665Y-1001834D02*
X2340141Y-992310D01*
X2340141Y-992310D02*
X2349665Y-982786D01*
X2349665Y-982786D02*
X2349665Y-1001834D01*
X2482998Y-801834D02*
X2502046Y-801834D01*
X2502046Y-801834D02*
X2521094Y-811358D01*
X2521094Y-811358D02*
X2530618Y-820881D01*
X2530618Y-820881D02*
X2540141Y-839929D01*
X2540141Y-839929D02*
X2549665Y-878024D01*
X2549665Y-878024D02*
X2549665Y-925643D01*
X2549665Y-925643D02*
X2540141Y-963738D01*
X2540141Y-963738D02*
X2530618Y-982786D01*
X2530618Y-982786D02*
X2521094Y-992310D01*
X2521094Y-992310D02*
X2502046Y-1001834D01*
X2502046Y-1001834D02*
X2482998Y-1001834D01*
X2482998Y-1001834D02*
X2463951Y-992310D01*
X2463951Y-992310D02*
X2454427Y-982786D01*
X2454427Y-982786D02*
X2444903Y-963738D01*
X2444903Y-963738D02*
X2435379Y-925643D01*
X2435379Y-925643D02*
X2435379Y-878024D01*
X2435379Y-878024D02*
X2444903Y-839929D01*
X2444903Y-839929D02*
X2454427Y-820881D01*
X2454427Y-820881D02*
X2463951Y-811358D01*
X2463951Y-811358D02*
X2482998Y-801834D01*
X2616332Y-801834D02*
X2740141Y-801834D01*
X2740141Y-801834D02*
X2673475Y-878024D01*
X2673475Y-878024D02*
X2702046Y-878024D01*
X2702046Y-878024D02*
X2721094Y-887548D01*
X2721094Y-887548D02*
X2730618Y-897072D01*
X2730618Y-897072D02*
X2740141Y-916119D01*
X2740141Y-916119D02*
X2740141Y-963738D01*
X2740141Y-963738D02*
X2730618Y-982786D01*
X2730618Y-982786D02*
X2721094Y-992310D01*
X2721094Y-992310D02*
X2702046Y-1001834D01*
X2702046Y-1001834D02*
X2644903Y-1001834D01*
X2644903Y-1001834D02*
X2625856Y-992310D01*
X2625856Y-992310D02*
X2616332Y-982786D01*
X2835379Y-1001834D02*
X2873475Y-1001834D01*
X2873475Y-1001834D02*
X2892522Y-992310D01*
X2892522Y-992310D02*
X2902046Y-982786D01*
X2902046Y-982786D02*
X2921094Y-954215D01*
X2921094Y-954215D02*
X2930617Y-916119D01*
X2930617Y-916119D02*
X2930617Y-839929D01*
X2930617Y-839929D02*
X2921094Y-820881D01*
X2921094Y-820881D02*
X2911570Y-811358D01*
X2911570Y-811358D02*
X2892522Y-801834D01*
X2892522Y-801834D02*
X2854427Y-801834D01*
X2854427Y-801834D02*
X2835379Y-811358D01*
X2835379Y-811358D02*
X2825856Y-820881D01*
X2825856Y-820881D02*
X2816332Y-839929D01*
X2816332Y-839929D02*
X2816332Y-887548D01*
X2816332Y-887548D02*
X2825856Y-906596D01*
X2825856Y-906596D02*
X2835379Y-916119D01*
X2835379Y-916119D02*
X2854427Y-925643D01*
X2854427Y-925643D02*
X2892522Y-925643D01*
X2892522Y-925643D02*
X2911570Y-916119D01*
X2911570Y-916119D02*
X2921094Y-906596D01*
X2921094Y-906596D02*
X2930617Y-887548D01*
X3102046Y-868500D02*
X3102046Y-1001834D01*
X3054427Y-792310D02*
X3006808Y-935167D01*
X3006808Y-935167D02*
X3130617Y-935167D01*
X3197284Y-801834D02*
X3197284Y-839929D01*
X3273475Y-801834D02*
X3273475Y-839929D01*
X3568713Y-1078024D02*
X3559189Y-1068500D01*
X3559189Y-1068500D02*
X3540141Y-1039929D01*
X3540141Y-1039929D02*
X3530618Y-1020881D01*
X3530618Y-1020881D02*
X3521094Y-992310D01*
X3521094Y-992310D02*
X3511570Y-944691D01*
X3511570Y-944691D02*
X3511570Y-906596D01*
X3511570Y-906596D02*
X3521094Y-858977D01*
X3521094Y-858977D02*
X3530618Y-830405D01*
X3530618Y-830405D02*
X3540141Y-811358D01*
X3540141Y-811358D02*
X3559189Y-782786D01*
X3559189Y-782786D02*
X3568713Y-773262D01*
X3635379Y-820881D02*
X3644903Y-811358D01*
X3644903Y-811358D02*
X3663951Y-801834D01*
X3663951Y-801834D02*
X3711570Y-801834D01*
X3711570Y-801834D02*
X3730618Y-811358D01*
X3730618Y-811358D02*
X3740141Y-820881D01*
X3740141Y-820881D02*
X3749665Y-839929D01*
X3749665Y-839929D02*
X3749665Y-858977D01*
X3749665Y-858977D02*
X3740141Y-887548D01*
X3740141Y-887548D02*
X3625856Y-1001834D01*
X3625856Y-1001834D02*
X3749665Y-1001834D01*
X3987760Y-1001834D02*
X3987760Y-801834D01*
X4073475Y-1001834D02*
X4073475Y-897072D01*
X4073475Y-897072D02*
X4063951Y-878024D01*
X4063951Y-878024D02*
X4044903Y-868500D01*
X4044903Y-868500D02*
X4016332Y-868500D01*
X4016332Y-868500D02*
X3997284Y-878024D01*
X3997284Y-878024D02*
X3987760Y-887548D01*
X4197284Y-1001834D02*
X4178237Y-992310D01*
X4178237Y-992310D02*
X4168713Y-982786D01*
X4168713Y-982786D02*
X4159189Y-963738D01*
X4159189Y-963738D02*
X4159189Y-906596D01*
X4159189Y-906596D02*
X4168713Y-887548D01*
X4168713Y-887548D02*
X4178237Y-878024D01*
X4178237Y-878024D02*
X4197284Y-868500D01*
X4197284Y-868500D02*
X4225856Y-868500D01*
X4225856Y-868500D02*
X4244903Y-878024D01*
X4244903Y-878024D02*
X4254427Y-887548D01*
X4254427Y-887548D02*
X4263951Y-906596D01*
X4263951Y-906596D02*
X4263951Y-963738D01*
X4263951Y-963738D02*
X4254427Y-982786D01*
X4254427Y-982786D02*
X4244903Y-992310D01*
X4244903Y-992310D02*
X4225856Y-1001834D01*
X4225856Y-1001834D02*
X4197284Y-1001834D01*
X4378237Y-1001834D02*
X4359189Y-992310D01*
X4359189Y-992310D02*
X4349665Y-973262D01*
X4349665Y-973262D02*
X4349665Y-801834D01*
X4530618Y-992310D02*
X4511570Y-1001834D01*
X4511570Y-1001834D02*
X4473475Y-1001834D01*
X4473475Y-1001834D02*
X4454427Y-992310D01*
X4454427Y-992310D02*
X4444903Y-973262D01*
X4444903Y-973262D02*
X4444903Y-897072D01*
X4444903Y-897072D02*
X4454427Y-878024D01*
X4454427Y-878024D02*
X4473475Y-868500D01*
X4473475Y-868500D02*
X4511570Y-868500D01*
X4511570Y-868500D02*
X4530618Y-878024D01*
X4530618Y-878024D02*
X4540142Y-897072D01*
X4540142Y-897072D02*
X4540142Y-916119D01*
X4540142Y-916119D02*
X4444903Y-935167D01*
X4616332Y-992310D02*
X4635380Y-1001834D01*
X4635380Y-1001834D02*
X4673475Y-1001834D01*
X4673475Y-1001834D02*
X4692523Y-992310D01*
X4692523Y-992310D02*
X4702046Y-973262D01*
X4702046Y-973262D02*
X4702046Y-963738D01*
X4702046Y-963738D02*
X4692523Y-944691D01*
X4692523Y-944691D02*
X4673475Y-935167D01*
X4673475Y-935167D02*
X4644903Y-935167D01*
X4644903Y-935167D02*
X4625856Y-925643D01*
X4625856Y-925643D02*
X4616332Y-906596D01*
X4616332Y-906596D02*
X4616332Y-897072D01*
X4616332Y-897072D02*
X4625856Y-878024D01*
X4625856Y-878024D02*
X4644903Y-868500D01*
X4644903Y-868500D02*
X4673475Y-868500D01*
X4673475Y-868500D02*
X4692523Y-878024D01*
X4768713Y-1078024D02*
X4778237Y-1068500D01*
X4778237Y-1068500D02*
X4797284Y-1039929D01*
X4797284Y-1039929D02*
X4806808Y-1020881D01*
X4806808Y-1020881D02*
X4816332Y-992310D01*
X4816332Y-992310D02*
X4825856Y-944691D01*
X4825856Y-944691D02*
X4825856Y-906596D01*
X4825856Y-906596D02*
X4816332Y-858977D01*
X4816332Y-858977D02*
X4806808Y-830405D01*
X4806808Y-830405D02*
X4797284Y-811358D01*
X4797284Y-811358D02*
X4778237Y-782786D01*
X4778237Y-782786D02*
X4768713Y-773262D01*
M02*
