%TF.GenerationSoftware,KiCad,Pcbnew,7.0.7*%
%TF.CreationDate,2023-11-30T16:21:26-08:00*%
%TF.ProjectId,TemperatureHumidityEPD,54656d70-6572-4617-9475-726548756d69,rev?*%
%TF.SameCoordinates,PX75040e0PY7b67cc0*%
%TF.FileFunction,Legend,Bot*%
%TF.FilePolarity,Positive*%
%FSLAX46Y46*%
G04 Gerber Fmt 4.6, Leading zero omitted, Abs format (unit mm)*
G04 Created by KiCad (PCBNEW 7.0.7) date 2023-11-30 16:21:26*
%MOMM*%
%LPD*%
G01*
G04 APERTURE LIST*
%ADD10C,0.127000*%
%ADD11C,0.150000*%
%ADD12C,0.120000*%
G04 APERTURE END LIST*
D10*
X45400000Y3924509D02*
X45400000Y4724509D01*
X45400000Y4724509D02*
X45133334Y4153081D01*
X45133334Y4153081D02*
X44866667Y4724509D01*
X44866667Y4724509D02*
X44866667Y3924509D01*
X44523810Y4153081D02*
X44142857Y4153081D01*
X44600000Y3924509D02*
X44333333Y4724509D01*
X44333333Y4724509D02*
X44066667Y3924509D01*
X43876191Y4724509D02*
X43342857Y3924509D01*
X43342857Y4724509D02*
X43876191Y3924509D01*
X43114286Y4724509D02*
X42619048Y4724509D01*
X42619048Y4724509D02*
X42885714Y4419747D01*
X42885714Y4419747D02*
X42771429Y4419747D01*
X42771429Y4419747D02*
X42695238Y4381652D01*
X42695238Y4381652D02*
X42657143Y4343557D01*
X42657143Y4343557D02*
X42619048Y4267366D01*
X42619048Y4267366D02*
X42619048Y4076890D01*
X42619048Y4076890D02*
X42657143Y4000700D01*
X42657143Y4000700D02*
X42695238Y3962604D01*
X42695238Y3962604D02*
X42771429Y3924509D01*
X42771429Y3924509D02*
X43000000Y3924509D01*
X43000000Y3924509D02*
X43076191Y3962604D01*
X43076191Y3962604D02*
X43114286Y4000700D01*
X42314286Y4648319D02*
X42276190Y4686414D01*
X42276190Y4686414D02*
X42200000Y4724509D01*
X42200000Y4724509D02*
X42009524Y4724509D01*
X42009524Y4724509D02*
X41933333Y4686414D01*
X41933333Y4686414D02*
X41895238Y4648319D01*
X41895238Y4648319D02*
X41857143Y4572128D01*
X41857143Y4572128D02*
X41857143Y4495938D01*
X41857143Y4495938D02*
X41895238Y4381652D01*
X41895238Y4381652D02*
X42352381Y3924509D01*
X42352381Y3924509D02*
X41857143Y3924509D01*
X41171428Y4724509D02*
X41323809Y4724509D01*
X41323809Y4724509D02*
X41400000Y4686414D01*
X41400000Y4686414D02*
X41438095Y4648319D01*
X41438095Y4648319D02*
X41514285Y4534033D01*
X41514285Y4534033D02*
X41552381Y4381652D01*
X41552381Y4381652D02*
X41552381Y4076890D01*
X41552381Y4076890D02*
X41514285Y4000700D01*
X41514285Y4000700D02*
X41476190Y3962604D01*
X41476190Y3962604D02*
X41400000Y3924509D01*
X41400000Y3924509D02*
X41247619Y3924509D01*
X41247619Y3924509D02*
X41171428Y3962604D01*
X41171428Y3962604D02*
X41133333Y4000700D01*
X41133333Y4000700D02*
X41095238Y4076890D01*
X41095238Y4076890D02*
X41095238Y4267366D01*
X41095238Y4267366D02*
X41133333Y4343557D01*
X41133333Y4343557D02*
X41171428Y4381652D01*
X41171428Y4381652D02*
X41247619Y4419747D01*
X41247619Y4419747D02*
X41400000Y4419747D01*
X41400000Y4419747D02*
X41476190Y4381652D01*
X41476190Y4381652D02*
X41514285Y4343557D01*
X41514285Y4343557D02*
X41552381Y4267366D01*
X40409523Y4724509D02*
X40561904Y4724509D01*
X40561904Y4724509D02*
X40638095Y4686414D01*
X40638095Y4686414D02*
X40676190Y4648319D01*
X40676190Y4648319D02*
X40752380Y4534033D01*
X40752380Y4534033D02*
X40790476Y4381652D01*
X40790476Y4381652D02*
X40790476Y4076890D01*
X40790476Y4076890D02*
X40752380Y4000700D01*
X40752380Y4000700D02*
X40714285Y3962604D01*
X40714285Y3962604D02*
X40638095Y3924509D01*
X40638095Y3924509D02*
X40485714Y3924509D01*
X40485714Y3924509D02*
X40409523Y3962604D01*
X40409523Y3962604D02*
X40371428Y4000700D01*
X40371428Y4000700D02*
X40333333Y4076890D01*
X40333333Y4076890D02*
X40333333Y4267366D01*
X40333333Y4267366D02*
X40371428Y4343557D01*
X40371428Y4343557D02*
X40409523Y4381652D01*
X40409523Y4381652D02*
X40485714Y4419747D01*
X40485714Y4419747D02*
X40638095Y4419747D01*
X40638095Y4419747D02*
X40714285Y4381652D01*
X40714285Y4381652D02*
X40752380Y4343557D01*
X40752380Y4343557D02*
X40790476Y4267366D01*
X39838094Y4724509D02*
X39761904Y4724509D01*
X39761904Y4724509D02*
X39685713Y4686414D01*
X39685713Y4686414D02*
X39647618Y4648319D01*
X39647618Y4648319D02*
X39609523Y4572128D01*
X39609523Y4572128D02*
X39571428Y4419747D01*
X39571428Y4419747D02*
X39571428Y4229271D01*
X39571428Y4229271D02*
X39609523Y4076890D01*
X39609523Y4076890D02*
X39647618Y4000700D01*
X39647618Y4000700D02*
X39685713Y3962604D01*
X39685713Y3962604D02*
X39761904Y3924509D01*
X39761904Y3924509D02*
X39838094Y3924509D01*
X39838094Y3924509D02*
X39914285Y3962604D01*
X39914285Y3962604D02*
X39952380Y4000700D01*
X39952380Y4000700D02*
X39990475Y4076890D01*
X39990475Y4076890D02*
X40028571Y4229271D01*
X40028571Y4229271D02*
X40028571Y4419747D01*
X40028571Y4419747D02*
X39990475Y4572128D01*
X39990475Y4572128D02*
X39952380Y4648319D01*
X39952380Y4648319D02*
X39914285Y4686414D01*
X39914285Y4686414D02*
X39838094Y4724509D01*
X37971427Y3924509D02*
X38009523Y3924509D01*
X38009523Y3924509D02*
X38085713Y3962604D01*
X38085713Y3962604D02*
X38199999Y4076890D01*
X38199999Y4076890D02*
X38390475Y4305462D01*
X38390475Y4305462D02*
X38466665Y4419747D01*
X38466665Y4419747D02*
X38504761Y4534033D01*
X38504761Y4534033D02*
X38504761Y4610224D01*
X38504761Y4610224D02*
X38466665Y4686414D01*
X38466665Y4686414D02*
X38390475Y4724509D01*
X38390475Y4724509D02*
X38352380Y4724509D01*
X38352380Y4724509D02*
X38276189Y4686414D01*
X38276189Y4686414D02*
X38238094Y4610224D01*
X38238094Y4610224D02*
X38238094Y4572128D01*
X38238094Y4572128D02*
X38276189Y4495938D01*
X38276189Y4495938D02*
X38314284Y4457843D01*
X38314284Y4457843D02*
X38542856Y4305462D01*
X38542856Y4305462D02*
X38580951Y4267366D01*
X38580951Y4267366D02*
X38619046Y4191176D01*
X38619046Y4191176D02*
X38619046Y4076890D01*
X38619046Y4076890D02*
X38580951Y4000700D01*
X38580951Y4000700D02*
X38542856Y3962604D01*
X38542856Y3962604D02*
X38466665Y3924509D01*
X38466665Y3924509D02*
X38352380Y3924509D01*
X38352380Y3924509D02*
X38276189Y3962604D01*
X38276189Y3962604D02*
X38238094Y4000700D01*
X38238094Y4000700D02*
X38123808Y4153081D01*
X38123808Y4153081D02*
X38085713Y4267366D01*
X38085713Y4267366D02*
X38085713Y4343557D01*
X37057142Y3962604D02*
X36942856Y3924509D01*
X36942856Y3924509D02*
X36752380Y3924509D01*
X36752380Y3924509D02*
X36676189Y3962604D01*
X36676189Y3962604D02*
X36638094Y4000700D01*
X36638094Y4000700D02*
X36599999Y4076890D01*
X36599999Y4076890D02*
X36599999Y4153081D01*
X36599999Y4153081D02*
X36638094Y4229271D01*
X36638094Y4229271D02*
X36676189Y4267366D01*
X36676189Y4267366D02*
X36752380Y4305462D01*
X36752380Y4305462D02*
X36904761Y4343557D01*
X36904761Y4343557D02*
X36980951Y4381652D01*
X36980951Y4381652D02*
X37019046Y4419747D01*
X37019046Y4419747D02*
X37057142Y4495938D01*
X37057142Y4495938D02*
X37057142Y4572128D01*
X37057142Y4572128D02*
X37019046Y4648319D01*
X37019046Y4648319D02*
X36980951Y4686414D01*
X36980951Y4686414D02*
X36904761Y4724509D01*
X36904761Y4724509D02*
X36714284Y4724509D01*
X36714284Y4724509D02*
X36599999Y4686414D01*
X36257141Y3924509D02*
X36257141Y4724509D01*
X35952380Y4724509D02*
X35419046Y4724509D01*
X35419046Y4724509D02*
X35761904Y3924509D01*
X34961903Y4724509D02*
X34885713Y4724509D01*
X34885713Y4724509D02*
X34809522Y4686414D01*
X34809522Y4686414D02*
X34771427Y4648319D01*
X34771427Y4648319D02*
X34733332Y4572128D01*
X34733332Y4572128D02*
X34695237Y4419747D01*
X34695237Y4419747D02*
X34695237Y4229271D01*
X34695237Y4229271D02*
X34733332Y4076890D01*
X34733332Y4076890D02*
X34771427Y4000700D01*
X34771427Y4000700D02*
X34809522Y3962604D01*
X34809522Y3962604D02*
X34885713Y3924509D01*
X34885713Y3924509D02*
X34961903Y3924509D01*
X34961903Y3924509D02*
X35038094Y3962604D01*
X35038094Y3962604D02*
X35076189Y4000700D01*
X35076189Y4000700D02*
X35114284Y4076890D01*
X35114284Y4076890D02*
X35152380Y4229271D01*
X35152380Y4229271D02*
X35152380Y4419747D01*
X35152380Y4419747D02*
X35114284Y4572128D01*
X35114284Y4572128D02*
X35076189Y4648319D01*
X35076189Y4648319D02*
X35038094Y4686414D01*
X35038094Y4686414D02*
X34961903Y4724509D01*
X34390475Y4648319D02*
X34352379Y4686414D01*
X34352379Y4686414D02*
X34276189Y4724509D01*
X34276189Y4724509D02*
X34085713Y4724509D01*
X34085713Y4724509D02*
X34009522Y4686414D01*
X34009522Y4686414D02*
X33971427Y4648319D01*
X33971427Y4648319D02*
X33933332Y4572128D01*
X33933332Y4572128D02*
X33933332Y4495938D01*
X33933332Y4495938D02*
X33971427Y4381652D01*
X33971427Y4381652D02*
X34428570Y3924509D01*
X34428570Y3924509D02*
X33933332Y3924509D01*
X33171427Y3924509D02*
X33628570Y3924509D01*
X33399998Y3924509D02*
X33399998Y4724509D01*
X33399998Y4724509D02*
X33476189Y4610224D01*
X33476189Y4610224D02*
X33552379Y4534033D01*
X33552379Y4534033D02*
X33628570Y4495938D01*
X45838095Y3436509D02*
X45380952Y3436509D01*
X45609524Y2636509D02*
X45609524Y3436509D01*
X44809523Y2674604D02*
X44885714Y2636509D01*
X44885714Y2636509D02*
X45038095Y2636509D01*
X45038095Y2636509D02*
X45114285Y2674604D01*
X45114285Y2674604D02*
X45152381Y2750795D01*
X45152381Y2750795D02*
X45152381Y3055557D01*
X45152381Y3055557D02*
X45114285Y3131747D01*
X45114285Y3131747D02*
X45038095Y3169843D01*
X45038095Y3169843D02*
X44885714Y3169843D01*
X44885714Y3169843D02*
X44809523Y3131747D01*
X44809523Y3131747D02*
X44771428Y3055557D01*
X44771428Y3055557D02*
X44771428Y2979366D01*
X44771428Y2979366D02*
X45152381Y2903176D01*
X44428571Y2636509D02*
X44428571Y3169843D01*
X44428571Y3093652D02*
X44390476Y3131747D01*
X44390476Y3131747D02*
X44314286Y3169843D01*
X44314286Y3169843D02*
X44200000Y3169843D01*
X44200000Y3169843D02*
X44123809Y3131747D01*
X44123809Y3131747D02*
X44085714Y3055557D01*
X44085714Y3055557D02*
X44085714Y2636509D01*
X44085714Y3055557D02*
X44047619Y3131747D01*
X44047619Y3131747D02*
X43971428Y3169843D01*
X43971428Y3169843D02*
X43857143Y3169843D01*
X43857143Y3169843D02*
X43780952Y3131747D01*
X43780952Y3131747D02*
X43742857Y3055557D01*
X43742857Y3055557D02*
X43742857Y2636509D01*
X43361904Y3169843D02*
X43361904Y2369843D01*
X43361904Y3131747D02*
X43285714Y3169843D01*
X43285714Y3169843D02*
X43133333Y3169843D01*
X43133333Y3169843D02*
X43057142Y3131747D01*
X43057142Y3131747D02*
X43019047Y3093652D01*
X43019047Y3093652D02*
X42980952Y3017462D01*
X42980952Y3017462D02*
X42980952Y2788890D01*
X42980952Y2788890D02*
X43019047Y2712700D01*
X43019047Y2712700D02*
X43057142Y2674604D01*
X43057142Y2674604D02*
X43133333Y2636509D01*
X43133333Y2636509D02*
X43285714Y2636509D01*
X43285714Y2636509D02*
X43361904Y2674604D01*
X42066666Y3474604D02*
X42752380Y2446033D01*
X41799999Y2636509D02*
X41799999Y3436509D01*
X41799999Y3055557D02*
X41342856Y3055557D01*
X41342856Y2636509D02*
X41342856Y3436509D01*
X40619047Y3169843D02*
X40619047Y2636509D01*
X40961904Y3169843D02*
X40961904Y2750795D01*
X40961904Y2750795D02*
X40923809Y2674604D01*
X40923809Y2674604D02*
X40847619Y2636509D01*
X40847619Y2636509D02*
X40733333Y2636509D01*
X40733333Y2636509D02*
X40657142Y2674604D01*
X40657142Y2674604D02*
X40619047Y2712700D01*
X40238094Y2636509D02*
X40238094Y3169843D01*
X40238094Y3093652D02*
X40199999Y3131747D01*
X40199999Y3131747D02*
X40123809Y3169843D01*
X40123809Y3169843D02*
X40009523Y3169843D01*
X40009523Y3169843D02*
X39933332Y3131747D01*
X39933332Y3131747D02*
X39895237Y3055557D01*
X39895237Y3055557D02*
X39895237Y2636509D01*
X39895237Y3055557D02*
X39857142Y3131747D01*
X39857142Y3131747D02*
X39780951Y3169843D01*
X39780951Y3169843D02*
X39666666Y3169843D01*
X39666666Y3169843D02*
X39590475Y3131747D01*
X39590475Y3131747D02*
X39552380Y3055557D01*
X39552380Y3055557D02*
X39552380Y2636509D01*
X39171427Y2636509D02*
X39171427Y3169843D01*
X39171427Y3436509D02*
X39209523Y3398414D01*
X39209523Y3398414D02*
X39171427Y3360319D01*
X39171427Y3360319D02*
X39133332Y3398414D01*
X39133332Y3398414D02*
X39171427Y3436509D01*
X39171427Y3436509D02*
X39171427Y3360319D01*
X38447618Y2636509D02*
X38447618Y3436509D01*
X38447618Y2674604D02*
X38523809Y2636509D01*
X38523809Y2636509D02*
X38676190Y2636509D01*
X38676190Y2636509D02*
X38752380Y2674604D01*
X38752380Y2674604D02*
X38790475Y2712700D01*
X38790475Y2712700D02*
X38828571Y2788890D01*
X38828571Y2788890D02*
X38828571Y3017462D01*
X38828571Y3017462D02*
X38790475Y3093652D01*
X38790475Y3093652D02*
X38752380Y3131747D01*
X38752380Y3131747D02*
X38676190Y3169843D01*
X38676190Y3169843D02*
X38523809Y3169843D01*
X38523809Y3169843D02*
X38447618Y3131747D01*
X38066665Y2636509D02*
X38066665Y3169843D01*
X38066665Y3436509D02*
X38104761Y3398414D01*
X38104761Y3398414D02*
X38066665Y3360319D01*
X38066665Y3360319D02*
X38028570Y3398414D01*
X38028570Y3398414D02*
X38066665Y3436509D01*
X38066665Y3436509D02*
X38066665Y3360319D01*
X37799999Y3169843D02*
X37495237Y3169843D01*
X37685713Y3436509D02*
X37685713Y2750795D01*
X37685713Y2750795D02*
X37647618Y2674604D01*
X37647618Y2674604D02*
X37571428Y2636509D01*
X37571428Y2636509D02*
X37495237Y2636509D01*
X37304761Y3169843D02*
X37114285Y2636509D01*
X36923808Y3169843D02*
X37114285Y2636509D01*
X37114285Y2636509D02*
X37190475Y2446033D01*
X37190475Y2446033D02*
X37228570Y2407938D01*
X37228570Y2407938D02*
X37304761Y2369843D01*
X35704760Y2674604D02*
X35780951Y2636509D01*
X35780951Y2636509D02*
X35933332Y2636509D01*
X35933332Y2636509D02*
X36009522Y2674604D01*
X36009522Y2674604D02*
X36047618Y2750795D01*
X36047618Y2750795D02*
X36047618Y3055557D01*
X36047618Y3055557D02*
X36009522Y3131747D01*
X36009522Y3131747D02*
X35933332Y3169843D01*
X35933332Y3169843D02*
X35780951Y3169843D01*
X35780951Y3169843D02*
X35704760Y3131747D01*
X35704760Y3131747D02*
X35666665Y3055557D01*
X35666665Y3055557D02*
X35666665Y2979366D01*
X35666665Y2979366D02*
X36047618Y2903176D01*
X35323808Y2636509D02*
X35323808Y3436509D01*
X35323808Y3436509D02*
X35019046Y3436509D01*
X35019046Y3436509D02*
X34942856Y3398414D01*
X34942856Y3398414D02*
X34904761Y3360319D01*
X34904761Y3360319D02*
X34866665Y3284128D01*
X34866665Y3284128D02*
X34866665Y3169843D01*
X34866665Y3169843D02*
X34904761Y3093652D01*
X34904761Y3093652D02*
X34942856Y3055557D01*
X34942856Y3055557D02*
X35019046Y3017462D01*
X35019046Y3017462D02*
X35323808Y3017462D01*
X34180951Y2636509D02*
X34180951Y3055557D01*
X34180951Y3055557D02*
X34219046Y3131747D01*
X34219046Y3131747D02*
X34295237Y3169843D01*
X34295237Y3169843D02*
X34447618Y3169843D01*
X34447618Y3169843D02*
X34523808Y3131747D01*
X34180951Y2674604D02*
X34257142Y2636509D01*
X34257142Y2636509D02*
X34447618Y2636509D01*
X34447618Y2636509D02*
X34523808Y2674604D01*
X34523808Y2674604D02*
X34561904Y2750795D01*
X34561904Y2750795D02*
X34561904Y2826985D01*
X34561904Y2826985D02*
X34523808Y2903176D01*
X34523808Y2903176D02*
X34447618Y2941271D01*
X34447618Y2941271D02*
X34257142Y2941271D01*
X34257142Y2941271D02*
X34180951Y2979366D01*
X33799998Y3169843D02*
X33799998Y2369843D01*
X33799998Y3131747D02*
X33723808Y3169843D01*
X33723808Y3169843D02*
X33571427Y3169843D01*
X33571427Y3169843D02*
X33495236Y3131747D01*
X33495236Y3131747D02*
X33457141Y3093652D01*
X33457141Y3093652D02*
X33419046Y3017462D01*
X33419046Y3017462D02*
X33419046Y2788890D01*
X33419046Y2788890D02*
X33457141Y2712700D01*
X33457141Y2712700D02*
X33495236Y2674604D01*
X33495236Y2674604D02*
X33571427Y2636509D01*
X33571427Y2636509D02*
X33723808Y2636509D01*
X33723808Y2636509D02*
X33799998Y2674604D01*
X32771426Y2674604D02*
X32847617Y2636509D01*
X32847617Y2636509D02*
X32999998Y2636509D01*
X32999998Y2636509D02*
X33076188Y2674604D01*
X33076188Y2674604D02*
X33114284Y2750795D01*
X33114284Y2750795D02*
X33114284Y3055557D01*
X33114284Y3055557D02*
X33076188Y3131747D01*
X33076188Y3131747D02*
X32999998Y3169843D01*
X32999998Y3169843D02*
X32847617Y3169843D01*
X32847617Y3169843D02*
X32771426Y3131747D01*
X32771426Y3131747D02*
X32733331Y3055557D01*
X32733331Y3055557D02*
X32733331Y2979366D01*
X32733331Y2979366D02*
X33114284Y2903176D01*
X32390474Y2636509D02*
X32390474Y3169843D01*
X32390474Y3017462D02*
X32352379Y3093652D01*
X32352379Y3093652D02*
X32314284Y3131747D01*
X32314284Y3131747D02*
X32238093Y3169843D01*
X32238093Y3169843D02*
X32161903Y3169843D01*
X45228572Y1577081D02*
X44847619Y1577081D01*
X45304762Y1348509D02*
X45038095Y2148509D01*
X45038095Y2148509D02*
X44771429Y1348509D01*
X44504762Y1881843D02*
X44504762Y1348509D01*
X44504762Y1805652D02*
X44466667Y1843747D01*
X44466667Y1843747D02*
X44390477Y1881843D01*
X44390477Y1881843D02*
X44276191Y1881843D01*
X44276191Y1881843D02*
X44200000Y1843747D01*
X44200000Y1843747D02*
X44161905Y1767557D01*
X44161905Y1767557D02*
X44161905Y1348509D01*
X43438095Y1348509D02*
X43438095Y1767557D01*
X43438095Y1767557D02*
X43476190Y1843747D01*
X43476190Y1843747D02*
X43552381Y1881843D01*
X43552381Y1881843D02*
X43704762Y1881843D01*
X43704762Y1881843D02*
X43780952Y1843747D01*
X43438095Y1386604D02*
X43514286Y1348509D01*
X43514286Y1348509D02*
X43704762Y1348509D01*
X43704762Y1348509D02*
X43780952Y1386604D01*
X43780952Y1386604D02*
X43819048Y1462795D01*
X43819048Y1462795D02*
X43819048Y1538985D01*
X43819048Y1538985D02*
X43780952Y1615176D01*
X43780952Y1615176D02*
X43704762Y1653271D01*
X43704762Y1653271D02*
X43514286Y1653271D01*
X43514286Y1653271D02*
X43438095Y1691366D01*
X42942857Y1348509D02*
X43019047Y1386604D01*
X43019047Y1386604D02*
X43057142Y1462795D01*
X43057142Y1462795D02*
X43057142Y2148509D01*
X42523809Y1348509D02*
X42599999Y1386604D01*
X42599999Y1386604D02*
X42638094Y1424700D01*
X42638094Y1424700D02*
X42676190Y1500890D01*
X42676190Y1500890D02*
X42676190Y1729462D01*
X42676190Y1729462D02*
X42638094Y1805652D01*
X42638094Y1805652D02*
X42599999Y1843747D01*
X42599999Y1843747D02*
X42523809Y1881843D01*
X42523809Y1881843D02*
X42409523Y1881843D01*
X42409523Y1881843D02*
X42333332Y1843747D01*
X42333332Y1843747D02*
X42295237Y1805652D01*
X42295237Y1805652D02*
X42257142Y1729462D01*
X42257142Y1729462D02*
X42257142Y1500890D01*
X42257142Y1500890D02*
X42295237Y1424700D01*
X42295237Y1424700D02*
X42333332Y1386604D01*
X42333332Y1386604D02*
X42409523Y1348509D01*
X42409523Y1348509D02*
X42523809Y1348509D01*
X41571427Y1881843D02*
X41571427Y1234224D01*
X41571427Y1234224D02*
X41609522Y1158033D01*
X41609522Y1158033D02*
X41647618Y1119938D01*
X41647618Y1119938D02*
X41723808Y1081843D01*
X41723808Y1081843D02*
X41838094Y1081843D01*
X41838094Y1081843D02*
X41914284Y1119938D01*
X41571427Y1386604D02*
X41647618Y1348509D01*
X41647618Y1348509D02*
X41799999Y1348509D01*
X41799999Y1348509D02*
X41876189Y1386604D01*
X41876189Y1386604D02*
X41914284Y1424700D01*
X41914284Y1424700D02*
X41952380Y1500890D01*
X41952380Y1500890D02*
X41952380Y1729462D01*
X41952380Y1729462D02*
X41914284Y1805652D01*
X41914284Y1805652D02*
X41876189Y1843747D01*
X41876189Y1843747D02*
X41799999Y1881843D01*
X41799999Y1881843D02*
X41647618Y1881843D01*
X41647618Y1881843D02*
X41571427Y1843747D01*
X40580950Y1348509D02*
X40580950Y2148509D01*
X40580950Y2148509D02*
X40390474Y2148509D01*
X40390474Y2148509D02*
X40276188Y2110414D01*
X40276188Y2110414D02*
X40199998Y2034224D01*
X40199998Y2034224D02*
X40161903Y1958033D01*
X40161903Y1958033D02*
X40123807Y1805652D01*
X40123807Y1805652D02*
X40123807Y1691366D01*
X40123807Y1691366D02*
X40161903Y1538985D01*
X40161903Y1538985D02*
X40199998Y1462795D01*
X40199998Y1462795D02*
X40276188Y1386604D01*
X40276188Y1386604D02*
X40390474Y1348509D01*
X40390474Y1348509D02*
X40580950Y1348509D01*
X39476188Y1386604D02*
X39552379Y1348509D01*
X39552379Y1348509D02*
X39704760Y1348509D01*
X39704760Y1348509D02*
X39780950Y1386604D01*
X39780950Y1386604D02*
X39819046Y1462795D01*
X39819046Y1462795D02*
X39819046Y1767557D01*
X39819046Y1767557D02*
X39780950Y1843747D01*
X39780950Y1843747D02*
X39704760Y1881843D01*
X39704760Y1881843D02*
X39552379Y1881843D01*
X39552379Y1881843D02*
X39476188Y1843747D01*
X39476188Y1843747D02*
X39438093Y1767557D01*
X39438093Y1767557D02*
X39438093Y1691366D01*
X39438093Y1691366D02*
X39819046Y1615176D01*
X39171427Y1881843D02*
X38980951Y1348509D01*
X38980951Y1348509D02*
X38790474Y1881843D01*
X38485712Y1348509D02*
X38485712Y1881843D01*
X38485712Y2148509D02*
X38523808Y2110414D01*
X38523808Y2110414D02*
X38485712Y2072319D01*
X38485712Y2072319D02*
X38447617Y2110414D01*
X38447617Y2110414D02*
X38485712Y2148509D01*
X38485712Y2148509D02*
X38485712Y2072319D01*
X37761903Y1386604D02*
X37838094Y1348509D01*
X37838094Y1348509D02*
X37990475Y1348509D01*
X37990475Y1348509D02*
X38066665Y1386604D01*
X38066665Y1386604D02*
X38104760Y1424700D01*
X38104760Y1424700D02*
X38142856Y1500890D01*
X38142856Y1500890D02*
X38142856Y1729462D01*
X38142856Y1729462D02*
X38104760Y1805652D01*
X38104760Y1805652D02*
X38066665Y1843747D01*
X38066665Y1843747D02*
X37990475Y1881843D01*
X37990475Y1881843D02*
X37838094Y1881843D01*
X37838094Y1881843D02*
X37761903Y1843747D01*
X37114284Y1386604D02*
X37190475Y1348509D01*
X37190475Y1348509D02*
X37342856Y1348509D01*
X37342856Y1348509D02*
X37419046Y1386604D01*
X37419046Y1386604D02*
X37457142Y1462795D01*
X37457142Y1462795D02*
X37457142Y1767557D01*
X37457142Y1767557D02*
X37419046Y1843747D01*
X37419046Y1843747D02*
X37342856Y1881843D01*
X37342856Y1881843D02*
X37190475Y1881843D01*
X37190475Y1881843D02*
X37114284Y1843747D01*
X37114284Y1843747D02*
X37076189Y1767557D01*
X37076189Y1767557D02*
X37076189Y1691366D01*
X37076189Y1691366D02*
X37457142Y1615176D01*
X36771428Y1386604D02*
X36695237Y1348509D01*
X36695237Y1348509D02*
X36542856Y1348509D01*
X36542856Y1348509D02*
X36466666Y1386604D01*
X36466666Y1386604D02*
X36428570Y1462795D01*
X36428570Y1462795D02*
X36428570Y1500890D01*
X36428570Y1500890D02*
X36466666Y1577081D01*
X36466666Y1577081D02*
X36542856Y1615176D01*
X36542856Y1615176D02*
X36657142Y1615176D01*
X36657142Y1615176D02*
X36733332Y1653271D01*
X36733332Y1653271D02*
X36771428Y1729462D01*
X36771428Y1729462D02*
X36771428Y1767557D01*
X36771428Y1767557D02*
X36733332Y1843747D01*
X36733332Y1843747D02*
X36657142Y1881843D01*
X36657142Y1881843D02*
X36542856Y1881843D01*
X36542856Y1881843D02*
X36466666Y1843747D01*
X35514285Y2072319D02*
X35476189Y2110414D01*
X35476189Y2110414D02*
X35399999Y2148509D01*
X35399999Y2148509D02*
X35209523Y2148509D01*
X35209523Y2148509D02*
X35133332Y2110414D01*
X35133332Y2110414D02*
X35095237Y2072319D01*
X35095237Y2072319D02*
X35057142Y1996128D01*
X35057142Y1996128D02*
X35057142Y1919938D01*
X35057142Y1919938D02*
X35095237Y1805652D01*
X35095237Y1805652D02*
X35552380Y1348509D01*
X35552380Y1348509D02*
X35057142Y1348509D01*
X34561903Y2148509D02*
X34485713Y2148509D01*
X34485713Y2148509D02*
X34409522Y2110414D01*
X34409522Y2110414D02*
X34371427Y2072319D01*
X34371427Y2072319D02*
X34333332Y1996128D01*
X34333332Y1996128D02*
X34295237Y1843747D01*
X34295237Y1843747D02*
X34295237Y1653271D01*
X34295237Y1653271D02*
X34333332Y1500890D01*
X34333332Y1500890D02*
X34371427Y1424700D01*
X34371427Y1424700D02*
X34409522Y1386604D01*
X34409522Y1386604D02*
X34485713Y1348509D01*
X34485713Y1348509D02*
X34561903Y1348509D01*
X34561903Y1348509D02*
X34638094Y1386604D01*
X34638094Y1386604D02*
X34676189Y1424700D01*
X34676189Y1424700D02*
X34714284Y1500890D01*
X34714284Y1500890D02*
X34752380Y1653271D01*
X34752380Y1653271D02*
X34752380Y1843747D01*
X34752380Y1843747D02*
X34714284Y1996128D01*
X34714284Y1996128D02*
X34676189Y2072319D01*
X34676189Y2072319D02*
X34638094Y2110414D01*
X34638094Y2110414D02*
X34561903Y2148509D01*
X33990475Y2072319D02*
X33952379Y2110414D01*
X33952379Y2110414D02*
X33876189Y2148509D01*
X33876189Y2148509D02*
X33685713Y2148509D01*
X33685713Y2148509D02*
X33609522Y2110414D01*
X33609522Y2110414D02*
X33571427Y2072319D01*
X33571427Y2072319D02*
X33533332Y1996128D01*
X33533332Y1996128D02*
X33533332Y1919938D01*
X33533332Y1919938D02*
X33571427Y1805652D01*
X33571427Y1805652D02*
X34028570Y1348509D01*
X34028570Y1348509D02*
X33533332Y1348509D01*
X33266665Y2148509D02*
X32771427Y2148509D01*
X32771427Y2148509D02*
X33038093Y1843747D01*
X33038093Y1843747D02*
X32923808Y1843747D01*
X32923808Y1843747D02*
X32847617Y1805652D01*
X32847617Y1805652D02*
X32809522Y1767557D01*
X32809522Y1767557D02*
X32771427Y1691366D01*
X32771427Y1691366D02*
X32771427Y1500890D01*
X32771427Y1500890D02*
X32809522Y1424700D01*
X32809522Y1424700D02*
X32847617Y1386604D01*
X32847617Y1386604D02*
X32923808Y1348509D01*
X32923808Y1348509D02*
X33152379Y1348509D01*
X33152379Y1348509D02*
X33228570Y1386604D01*
X33228570Y1386604D02*
X33266665Y1424700D01*
D11*
X27166666Y6140420D02*
X27214285Y6092800D01*
X27214285Y6092800D02*
X27357142Y6045181D01*
X27357142Y6045181D02*
X27452380Y6045181D01*
X27452380Y6045181D02*
X27595237Y6092800D01*
X27595237Y6092800D02*
X27690475Y6188039D01*
X27690475Y6188039D02*
X27738094Y6283277D01*
X27738094Y6283277D02*
X27785713Y6473753D01*
X27785713Y6473753D02*
X27785713Y6616610D01*
X27785713Y6616610D02*
X27738094Y6807086D01*
X27738094Y6807086D02*
X27690475Y6902324D01*
X27690475Y6902324D02*
X27595237Y6997562D01*
X27595237Y6997562D02*
X27452380Y7045181D01*
X27452380Y7045181D02*
X27357142Y7045181D01*
X27357142Y7045181D02*
X27214285Y6997562D01*
X27214285Y6997562D02*
X27166666Y6949943D01*
X26833332Y7045181D02*
X26214285Y7045181D01*
X26214285Y7045181D02*
X26547618Y6664229D01*
X26547618Y6664229D02*
X26404761Y6664229D01*
X26404761Y6664229D02*
X26309523Y6616610D01*
X26309523Y6616610D02*
X26261904Y6568991D01*
X26261904Y6568991D02*
X26214285Y6473753D01*
X26214285Y6473753D02*
X26214285Y6235658D01*
X26214285Y6235658D02*
X26261904Y6140420D01*
X26261904Y6140420D02*
X26309523Y6092800D01*
X26309523Y6092800D02*
X26404761Y6045181D01*
X26404761Y6045181D02*
X26690475Y6045181D01*
X26690475Y6045181D02*
X26785713Y6092800D01*
X26785713Y6092800D02*
X26833332Y6140420D01*
X18024819Y3079167D02*
X17548628Y3412500D01*
X18024819Y3650595D02*
X17024819Y3650595D01*
X17024819Y3650595D02*
X17024819Y3269643D01*
X17024819Y3269643D02*
X17072438Y3174405D01*
X17072438Y3174405D02*
X17120057Y3126786D01*
X17120057Y3126786D02*
X17215295Y3079167D01*
X17215295Y3079167D02*
X17358152Y3079167D01*
X17358152Y3079167D02*
X17453390Y3126786D01*
X17453390Y3126786D02*
X17501009Y3174405D01*
X17501009Y3174405D02*
X17548628Y3269643D01*
X17548628Y3269643D02*
X17548628Y3650595D01*
X18024819Y2126786D02*
X18024819Y2698214D01*
X18024819Y2412500D02*
X17024819Y2412500D01*
X17024819Y2412500D02*
X17167676Y2507738D01*
X17167676Y2507738D02*
X17262914Y2602976D01*
X17262914Y2602976D02*
X17310533Y2698214D01*
X28866666Y2745181D02*
X29199999Y3221372D01*
X29438094Y2745181D02*
X29438094Y3745181D01*
X29438094Y3745181D02*
X29057142Y3745181D01*
X29057142Y3745181D02*
X28961904Y3697562D01*
X28961904Y3697562D02*
X28914285Y3649943D01*
X28914285Y3649943D02*
X28866666Y3554705D01*
X28866666Y3554705D02*
X28866666Y3411848D01*
X28866666Y3411848D02*
X28914285Y3316610D01*
X28914285Y3316610D02*
X28961904Y3268991D01*
X28961904Y3268991D02*
X29057142Y3221372D01*
X29057142Y3221372D02*
X29438094Y3221372D01*
X28533332Y3745181D02*
X27914285Y3745181D01*
X27914285Y3745181D02*
X28247618Y3364229D01*
X28247618Y3364229D02*
X28104761Y3364229D01*
X28104761Y3364229D02*
X28009523Y3316610D01*
X28009523Y3316610D02*
X27961904Y3268991D01*
X27961904Y3268991D02*
X27914285Y3173753D01*
X27914285Y3173753D02*
X27914285Y2935658D01*
X27914285Y2935658D02*
X27961904Y2840420D01*
X27961904Y2840420D02*
X28009523Y2792800D01*
X28009523Y2792800D02*
X28104761Y2745181D01*
X28104761Y2745181D02*
X28390475Y2745181D01*
X28390475Y2745181D02*
X28485713Y2792800D01*
X28485713Y2792800D02*
X28533332Y2840420D01*
X24861904Y5845181D02*
X24861904Y5035658D01*
X24861904Y5035658D02*
X24814285Y4940420D01*
X24814285Y4940420D02*
X24766666Y4892800D01*
X24766666Y4892800D02*
X24671428Y4845181D01*
X24671428Y4845181D02*
X24480952Y4845181D01*
X24480952Y4845181D02*
X24385714Y4892800D01*
X24385714Y4892800D02*
X24338095Y4940420D01*
X24338095Y4940420D02*
X24290476Y5035658D01*
X24290476Y5035658D02*
X24290476Y5845181D01*
X23290476Y4845181D02*
X23861904Y4845181D01*
X23576190Y4845181D02*
X23576190Y5845181D01*
X23576190Y5845181D02*
X23671428Y5702324D01*
X23671428Y5702324D02*
X23766666Y5607086D01*
X23766666Y5607086D02*
X23861904Y5559467D01*
X16738094Y40695181D02*
X16738094Y41695181D01*
X16738094Y41695181D02*
X16499999Y41695181D01*
X16499999Y41695181D02*
X16357142Y41647562D01*
X16357142Y41647562D02*
X16261904Y41552324D01*
X16261904Y41552324D02*
X16214285Y41457086D01*
X16214285Y41457086D02*
X16166666Y41266610D01*
X16166666Y41266610D02*
X16166666Y41123753D01*
X16166666Y41123753D02*
X16214285Y40933277D01*
X16214285Y40933277D02*
X16261904Y40838039D01*
X16261904Y40838039D02*
X16357142Y40742800D01*
X16357142Y40742800D02*
X16499999Y40695181D01*
X16499999Y40695181D02*
X16738094Y40695181D01*
X15785713Y41599943D02*
X15738094Y41647562D01*
X15738094Y41647562D02*
X15642856Y41695181D01*
X15642856Y41695181D02*
X15404761Y41695181D01*
X15404761Y41695181D02*
X15309523Y41647562D01*
X15309523Y41647562D02*
X15261904Y41599943D01*
X15261904Y41599943D02*
X15214285Y41504705D01*
X15214285Y41504705D02*
X15214285Y41409467D01*
X15214285Y41409467D02*
X15261904Y41266610D01*
X15261904Y41266610D02*
X15833332Y40695181D01*
X15833332Y40695181D02*
X15214285Y40695181D01*
X20142857Y40475181D02*
X20476190Y40951372D01*
X20714285Y40475181D02*
X20714285Y41475181D01*
X20714285Y41475181D02*
X20333333Y41475181D01*
X20333333Y41475181D02*
X20238095Y41427562D01*
X20238095Y41427562D02*
X20190476Y41379943D01*
X20190476Y41379943D02*
X20142857Y41284705D01*
X20142857Y41284705D02*
X20142857Y41141848D01*
X20142857Y41141848D02*
X20190476Y41046610D01*
X20190476Y41046610D02*
X20238095Y40998991D01*
X20238095Y40998991D02*
X20333333Y40951372D01*
X20333333Y40951372D02*
X20714285Y40951372D01*
X19190476Y40475181D02*
X19761904Y40475181D01*
X19476190Y40475181D02*
X19476190Y41475181D01*
X19476190Y41475181D02*
X19571428Y41332324D01*
X19571428Y41332324D02*
X19666666Y41237086D01*
X19666666Y41237086D02*
X19761904Y41189467D01*
X18809523Y41379943D02*
X18761904Y41427562D01*
X18761904Y41427562D02*
X18666666Y41475181D01*
X18666666Y41475181D02*
X18428571Y41475181D01*
X18428571Y41475181D02*
X18333333Y41427562D01*
X18333333Y41427562D02*
X18285714Y41379943D01*
X18285714Y41379943D02*
X18238095Y41284705D01*
X18238095Y41284705D02*
X18238095Y41189467D01*
X18238095Y41189467D02*
X18285714Y41046610D01*
X18285714Y41046610D02*
X18857142Y40475181D01*
X18857142Y40475181D02*
X18238095Y40475181D01*
X29142857Y37615181D02*
X29476190Y38091372D01*
X29714285Y37615181D02*
X29714285Y38615181D01*
X29714285Y38615181D02*
X29333333Y38615181D01*
X29333333Y38615181D02*
X29238095Y38567562D01*
X29238095Y38567562D02*
X29190476Y38519943D01*
X29190476Y38519943D02*
X29142857Y38424705D01*
X29142857Y38424705D02*
X29142857Y38281848D01*
X29142857Y38281848D02*
X29190476Y38186610D01*
X29190476Y38186610D02*
X29238095Y38138991D01*
X29238095Y38138991D02*
X29333333Y38091372D01*
X29333333Y38091372D02*
X29714285Y38091372D01*
X28190476Y37615181D02*
X28761904Y37615181D01*
X28476190Y37615181D02*
X28476190Y38615181D01*
X28476190Y38615181D02*
X28571428Y38472324D01*
X28571428Y38472324D02*
X28666666Y38377086D01*
X28666666Y38377086D02*
X28761904Y38329467D01*
X27238095Y37615181D02*
X27809523Y37615181D01*
X27523809Y37615181D02*
X27523809Y38615181D01*
X27523809Y38615181D02*
X27619047Y38472324D01*
X27619047Y38472324D02*
X27714285Y38377086D01*
X27714285Y38377086D02*
X27809523Y38329467D01*
X25333332Y38092800D02*
X25190475Y38045181D01*
X25190475Y38045181D02*
X24952380Y38045181D01*
X24952380Y38045181D02*
X24857142Y38092800D01*
X24857142Y38092800D02*
X24809523Y38140420D01*
X24809523Y38140420D02*
X24761904Y38235658D01*
X24761904Y38235658D02*
X24761904Y38330896D01*
X24761904Y38330896D02*
X24809523Y38426134D01*
X24809523Y38426134D02*
X24857142Y38473753D01*
X24857142Y38473753D02*
X24952380Y38521372D01*
X24952380Y38521372D02*
X25142856Y38568991D01*
X25142856Y38568991D02*
X25238094Y38616610D01*
X25238094Y38616610D02*
X25285713Y38664229D01*
X25285713Y38664229D02*
X25333332Y38759467D01*
X25333332Y38759467D02*
X25333332Y38854705D01*
X25333332Y38854705D02*
X25285713Y38949943D01*
X25285713Y38949943D02*
X25238094Y38997562D01*
X25238094Y38997562D02*
X25142856Y39045181D01*
X25142856Y39045181D02*
X24904761Y39045181D01*
X24904761Y39045181D02*
X24761904Y38997562D01*
X24428570Y39045181D02*
X24190475Y38045181D01*
X24190475Y38045181D02*
X23999999Y38759467D01*
X23999999Y38759467D02*
X23809523Y38045181D01*
X23809523Y38045181D02*
X23571428Y39045181D01*
X22666666Y38045181D02*
X23238094Y38045181D01*
X22952380Y38045181D02*
X22952380Y39045181D01*
X22952380Y39045181D02*
X23047618Y38902324D01*
X23047618Y38902324D02*
X23142856Y38807086D01*
X23142856Y38807086D02*
X23238094Y38759467D01*
X32738094Y40695181D02*
X32738094Y41695181D01*
X32738094Y41695181D02*
X32499999Y41695181D01*
X32499999Y41695181D02*
X32357142Y41647562D01*
X32357142Y41647562D02*
X32261904Y41552324D01*
X32261904Y41552324D02*
X32214285Y41457086D01*
X32214285Y41457086D02*
X32166666Y41266610D01*
X32166666Y41266610D02*
X32166666Y41123753D01*
X32166666Y41123753D02*
X32214285Y40933277D01*
X32214285Y40933277D02*
X32261904Y40838039D01*
X32261904Y40838039D02*
X32357142Y40742800D01*
X32357142Y40742800D02*
X32499999Y40695181D01*
X32499999Y40695181D02*
X32738094Y40695181D01*
X31214285Y40695181D02*
X31785713Y40695181D01*
X31499999Y40695181D02*
X31499999Y41695181D01*
X31499999Y41695181D02*
X31595237Y41552324D01*
X31595237Y41552324D02*
X31690475Y41457086D01*
X31690475Y41457086D02*
X31785713Y41409467D01*
X29042857Y41745181D02*
X29376190Y42221372D01*
X29614285Y41745181D02*
X29614285Y42745181D01*
X29614285Y42745181D02*
X29233333Y42745181D01*
X29233333Y42745181D02*
X29138095Y42697562D01*
X29138095Y42697562D02*
X29090476Y42649943D01*
X29090476Y42649943D02*
X29042857Y42554705D01*
X29042857Y42554705D02*
X29042857Y42411848D01*
X29042857Y42411848D02*
X29090476Y42316610D01*
X29090476Y42316610D02*
X29138095Y42268991D01*
X29138095Y42268991D02*
X29233333Y42221372D01*
X29233333Y42221372D02*
X29614285Y42221372D01*
X28090476Y41745181D02*
X28661904Y41745181D01*
X28376190Y41745181D02*
X28376190Y42745181D01*
X28376190Y42745181D02*
X28471428Y42602324D01*
X28471428Y42602324D02*
X28566666Y42507086D01*
X28566666Y42507086D02*
X28661904Y42459467D01*
X27614285Y41745181D02*
X27423809Y41745181D01*
X27423809Y41745181D02*
X27328571Y41792800D01*
X27328571Y41792800D02*
X27280952Y41840420D01*
X27280952Y41840420D02*
X27185714Y41983277D01*
X27185714Y41983277D02*
X27138095Y42173753D01*
X27138095Y42173753D02*
X27138095Y42554705D01*
X27138095Y42554705D02*
X27185714Y42649943D01*
X27185714Y42649943D02*
X27233333Y42697562D01*
X27233333Y42697562D02*
X27328571Y42745181D01*
X27328571Y42745181D02*
X27519047Y42745181D01*
X27519047Y42745181D02*
X27614285Y42697562D01*
X27614285Y42697562D02*
X27661904Y42649943D01*
X27661904Y42649943D02*
X27709523Y42554705D01*
X27709523Y42554705D02*
X27709523Y42316610D01*
X27709523Y42316610D02*
X27661904Y42221372D01*
X27661904Y42221372D02*
X27614285Y42173753D01*
X27614285Y42173753D02*
X27519047Y42126134D01*
X27519047Y42126134D02*
X27328571Y42126134D01*
X27328571Y42126134D02*
X27233333Y42173753D01*
X27233333Y42173753D02*
X27185714Y42221372D01*
X27185714Y42221372D02*
X27138095Y42316610D01*
D12*
%TO.C,C3*%
X26390000Y4053733D02*
X26390000Y4346267D01*
X27410000Y4053733D02*
X27410000Y4346267D01*
%TO.C,R1*%
X19522500Y3167224D02*
X19522500Y2657776D01*
X18477500Y3167224D02*
X18477500Y2657776D01*
%TO.C,R3*%
X28054724Y1277500D02*
X27545276Y1277500D01*
X28054724Y2322500D02*
X27545276Y2322500D01*
D11*
%TO.C,U1*%
X22500000Y4600000D02*
X22500000Y1500000D01*
X22500000Y1500000D02*
X25500000Y1500000D01*
X25500000Y4600000D02*
X22500000Y4600000D01*
X25500000Y1500000D02*
X25500000Y4600000D01*
D12*
%TO.C,D2*%
X17860000Y38540000D02*
X15000000Y38540000D01*
X17860000Y40460000D02*
X17860000Y38540000D01*
X15000000Y40460000D02*
X17860000Y40460000D01*
%TO.C,R12*%
X19754724Y38977500D02*
X19245276Y38977500D01*
X19754724Y40022500D02*
X19245276Y40022500D01*
%TO.C,R11*%
X28245276Y40022500D02*
X28754724Y40022500D01*
X28245276Y38977500D02*
X28754724Y38977500D01*
%TO.C,SW1*%
X25750000Y39700000D02*
X25750000Y39840000D01*
X25750000Y42560000D02*
X25750000Y42700000D01*
X24950000Y42700000D02*
X25750000Y42700000D01*
X24950000Y42700000D02*
X24950000Y42850000D01*
X23050000Y42700000D02*
X23050000Y42850000D01*
X22250000Y39700000D02*
X25750000Y39700000D01*
X22250000Y39700000D02*
X22250000Y39840000D01*
X22250000Y42560000D02*
X22250000Y42700000D01*
X22250000Y42700000D02*
X23050000Y42700000D01*
%TO.C,D1*%
X33860000Y38540000D02*
X31000000Y38540000D01*
X33860000Y40460000D02*
X33860000Y38540000D01*
X31000000Y40460000D02*
X33860000Y40460000D01*
%TO.C,R19*%
X28754724Y40477500D02*
X28245276Y40477500D01*
X28754724Y41522500D02*
X28245276Y41522500D01*
%TD*%
M02*
