M48
; DRILL file {KiCad 7.0.7} date Thu Nov 30 16:21:31 2023
; FORMAT={-:-/ absolute / inch / decimal}
; #@! TF.CreationDate,2023-11-30T16:21:31-08:00
; #@! TF.GenerationSoftware,Kicad,Pcbnew,7.0.7
; #@! TF.FileFunction,Plated,1,4,PTH
FMAT,2
INCH
; #@! TA.AperFunction,Plated,PTH,ViaDrill
T1C0.0157
; #@! TA.AperFunction,Plated,PTH,ComponentDrill
T2C0.0394
%
G90
G05
T1
X0.0866Y1.6063
X0.0866Y1.1063
X0.0866Y0.6063
X0.0945Y0.0787
X0.1181Y0.8858
X0.1417Y0.9646
X0.1428Y0.8071
X0.185Y0.6496
X0.2008Y0.748
X0.2126Y1.5827
X0.2126Y0.2165
X0.2126Y0.1575
X0.2244Y1.4528
X0.2362Y0.4055
X0.2559Y1.5748
X0.2717Y1.4803
X0.3189Y0.5197
X0.3228Y1.5748
X0.3543Y1.6535
X0.3937Y0.3346
X0.4291Y0.3819
X0.4291Y0.1181
X0.4476Y0.8062
X0.4488Y0.7362
X0.4528Y0.4961
X0.4567Y0.9843
X0.4567Y0.937
X0.4567Y0.8898
X0.4567Y0.8425
X0.4606Y1.4843
X0.4764Y1.3583
X0.4941Y1.0354
X0.5433Y1.4685
X0.5433Y0.1457
X0.5472Y0.3504
X0.5709Y1.0866
X0.5709Y0.5748
X0.5709Y0.5039
X0.5709Y0.4528
X0.5748Y0.7323
X0.5827Y0.1811
X0.5906Y1.626
X0.5906Y0.8976
X0.6024Y0.2598
X0.6142Y0.3976
X0.6339Y0.2205
X0.6457Y0.1732
X0.6535Y0.8583
X0.6614Y1.6299
X0.6772Y0.3858
X0.6929Y0.9646
X0.6929Y0.2953
X0.7087Y0.1142
X0.7283Y0.7874
X0.748Y1.626
X0.7677Y0.4173
X0.7755Y0.5039
X0.7874Y1.2205
X0.7874Y0.1102
X0.7992Y1.626
X0.7992Y0.4567
X0.8228Y0.378
X0.8543Y0.7835
X0.8651Y0.3376
X0.9054Y0.3622
X0.9055Y0.6693
X0.9291Y0.4016
X0.9449Y1.378
X0.9449Y1.063
X1.0157Y0.7441
X1.1024Y1.2205
X1.1024Y0.1181
X1.1063Y0.1929
X1.1339Y0.378
X1.1378Y0.244
X1.1535Y0.7835
X1.1929Y0.9646
X1.2008Y0.748
X1.2087Y0.0984
X1.2323Y0.6378
X1.2638Y1.4724
X1.2717Y1.0512
X1.2795Y0.5236
X1.3002Y1.625
X1.3504Y0.7244
X1.3701Y0.315
X1.378Y0.4094
X1.3845Y0.8071
X1.3858Y0.9764
X1.3858Y0.7008
X1.3858Y0.6417
X1.3858Y0.5236
X1.4464Y1.6088
X1.5197Y1.2323
X1.5433Y0.2362
X1.6299Y0.9331
X1.6299Y0.8701
X1.6339Y0.815
X1.6457Y0.6772
X1.6535Y1.4252
X1.6575Y0.9016
X1.6575Y0.7835
X1.6614Y1.0512
X1.6614Y0.8465
X1.752Y0.874
X1.752Y0.8189
X1.811Y0.0787
X1.8228Y1.6181
T2
X1.6126Y1.5748
X1.7126Y1.5748
T0
M30
