%TF.GenerationSoftware,KiCad,Pcbnew,7.0.7*%
%TF.CreationDate,2023-11-30T17:57:34-08:00*%
%TF.ProjectId,TemperatureHumidityEPD,54656d70-6572-4617-9475-726548756d69,rev?*%
%TF.SameCoordinates,PX75040e0PY7b67cc0*%
%TF.FileFunction,Legend,Top*%
%TF.FilePolarity,Positive*%
%FSLAX46Y46*%
G04 Gerber Fmt 4.6, Leading zero omitted, Abs format (unit mm)*
G04 Created by KiCad (PCBNEW 7.0.7) date 2023-11-30 17:57:34*
%MOMM*%
%LPD*%
G01*
G04 APERTURE LIST*
%ADD10C,0.127000*%
%ADD11C,0.150000*%
%ADD12C,0.120000*%
%ADD13C,0.200000*%
%ADD14C,0.100000*%
%ADD15C,0.152400*%
G04 APERTURE END LIST*
D10*
X32599999Y3924509D02*
X32599999Y4724509D01*
X32599999Y4724509D02*
X32866665Y4153081D01*
X32866665Y4153081D02*
X33133332Y4724509D01*
X33133332Y4724509D02*
X33133332Y3924509D01*
X33476189Y4153081D02*
X33857142Y4153081D01*
X33399999Y3924509D02*
X33666666Y4724509D01*
X33666666Y4724509D02*
X33933332Y3924509D01*
X34123808Y4724509D02*
X34657142Y3924509D01*
X34657142Y4724509D02*
X34123808Y3924509D01*
X34885713Y4724509D02*
X35380951Y4724509D01*
X35380951Y4724509D02*
X35114285Y4419747D01*
X35114285Y4419747D02*
X35228570Y4419747D01*
X35228570Y4419747D02*
X35304761Y4381652D01*
X35304761Y4381652D02*
X35342856Y4343557D01*
X35342856Y4343557D02*
X35380951Y4267366D01*
X35380951Y4267366D02*
X35380951Y4076890D01*
X35380951Y4076890D02*
X35342856Y4000700D01*
X35342856Y4000700D02*
X35304761Y3962604D01*
X35304761Y3962604D02*
X35228570Y3924509D01*
X35228570Y3924509D02*
X34999999Y3924509D01*
X34999999Y3924509D02*
X34923808Y3962604D01*
X34923808Y3962604D02*
X34885713Y4000700D01*
X35685713Y4648319D02*
X35723809Y4686414D01*
X35723809Y4686414D02*
X35799999Y4724509D01*
X35799999Y4724509D02*
X35990475Y4724509D01*
X35990475Y4724509D02*
X36066666Y4686414D01*
X36066666Y4686414D02*
X36104761Y4648319D01*
X36104761Y4648319D02*
X36142856Y4572128D01*
X36142856Y4572128D02*
X36142856Y4495938D01*
X36142856Y4495938D02*
X36104761Y4381652D01*
X36104761Y4381652D02*
X35647618Y3924509D01*
X35647618Y3924509D02*
X36142856Y3924509D01*
X36828571Y4724509D02*
X36676190Y4724509D01*
X36676190Y4724509D02*
X36599999Y4686414D01*
X36599999Y4686414D02*
X36561904Y4648319D01*
X36561904Y4648319D02*
X36485714Y4534033D01*
X36485714Y4534033D02*
X36447618Y4381652D01*
X36447618Y4381652D02*
X36447618Y4076890D01*
X36447618Y4076890D02*
X36485714Y4000700D01*
X36485714Y4000700D02*
X36523809Y3962604D01*
X36523809Y3962604D02*
X36599999Y3924509D01*
X36599999Y3924509D02*
X36752380Y3924509D01*
X36752380Y3924509D02*
X36828571Y3962604D01*
X36828571Y3962604D02*
X36866666Y4000700D01*
X36866666Y4000700D02*
X36904761Y4076890D01*
X36904761Y4076890D02*
X36904761Y4267366D01*
X36904761Y4267366D02*
X36866666Y4343557D01*
X36866666Y4343557D02*
X36828571Y4381652D01*
X36828571Y4381652D02*
X36752380Y4419747D01*
X36752380Y4419747D02*
X36599999Y4419747D01*
X36599999Y4419747D02*
X36523809Y4381652D01*
X36523809Y4381652D02*
X36485714Y4343557D01*
X36485714Y4343557D02*
X36447618Y4267366D01*
X37590476Y4724509D02*
X37438095Y4724509D01*
X37438095Y4724509D02*
X37361904Y4686414D01*
X37361904Y4686414D02*
X37323809Y4648319D01*
X37323809Y4648319D02*
X37247619Y4534033D01*
X37247619Y4534033D02*
X37209523Y4381652D01*
X37209523Y4381652D02*
X37209523Y4076890D01*
X37209523Y4076890D02*
X37247619Y4000700D01*
X37247619Y4000700D02*
X37285714Y3962604D01*
X37285714Y3962604D02*
X37361904Y3924509D01*
X37361904Y3924509D02*
X37514285Y3924509D01*
X37514285Y3924509D02*
X37590476Y3962604D01*
X37590476Y3962604D02*
X37628571Y4000700D01*
X37628571Y4000700D02*
X37666666Y4076890D01*
X37666666Y4076890D02*
X37666666Y4267366D01*
X37666666Y4267366D02*
X37628571Y4343557D01*
X37628571Y4343557D02*
X37590476Y4381652D01*
X37590476Y4381652D02*
X37514285Y4419747D01*
X37514285Y4419747D02*
X37361904Y4419747D01*
X37361904Y4419747D02*
X37285714Y4381652D01*
X37285714Y4381652D02*
X37247619Y4343557D01*
X37247619Y4343557D02*
X37209523Y4267366D01*
X38161905Y4724509D02*
X38238095Y4724509D01*
X38238095Y4724509D02*
X38314286Y4686414D01*
X38314286Y4686414D02*
X38352381Y4648319D01*
X38352381Y4648319D02*
X38390476Y4572128D01*
X38390476Y4572128D02*
X38428571Y4419747D01*
X38428571Y4419747D02*
X38428571Y4229271D01*
X38428571Y4229271D02*
X38390476Y4076890D01*
X38390476Y4076890D02*
X38352381Y4000700D01*
X38352381Y4000700D02*
X38314286Y3962604D01*
X38314286Y3962604D02*
X38238095Y3924509D01*
X38238095Y3924509D02*
X38161905Y3924509D01*
X38161905Y3924509D02*
X38085714Y3962604D01*
X38085714Y3962604D02*
X38047619Y4000700D01*
X38047619Y4000700D02*
X38009524Y4076890D01*
X38009524Y4076890D02*
X37971428Y4229271D01*
X37971428Y4229271D02*
X37971428Y4419747D01*
X37971428Y4419747D02*
X38009524Y4572128D01*
X38009524Y4572128D02*
X38047619Y4648319D01*
X38047619Y4648319D02*
X38085714Y4686414D01*
X38085714Y4686414D02*
X38161905Y4724509D01*
X40028572Y3924509D02*
X39990477Y3924509D01*
X39990477Y3924509D02*
X39914286Y3962604D01*
X39914286Y3962604D02*
X39800000Y4076890D01*
X39800000Y4076890D02*
X39609524Y4305462D01*
X39609524Y4305462D02*
X39533334Y4419747D01*
X39533334Y4419747D02*
X39495238Y4534033D01*
X39495238Y4534033D02*
X39495238Y4610224D01*
X39495238Y4610224D02*
X39533334Y4686414D01*
X39533334Y4686414D02*
X39609524Y4724509D01*
X39609524Y4724509D02*
X39647619Y4724509D01*
X39647619Y4724509D02*
X39723810Y4686414D01*
X39723810Y4686414D02*
X39761905Y4610224D01*
X39761905Y4610224D02*
X39761905Y4572128D01*
X39761905Y4572128D02*
X39723810Y4495938D01*
X39723810Y4495938D02*
X39685715Y4457843D01*
X39685715Y4457843D02*
X39457143Y4305462D01*
X39457143Y4305462D02*
X39419048Y4267366D01*
X39419048Y4267366D02*
X39380953Y4191176D01*
X39380953Y4191176D02*
X39380953Y4076890D01*
X39380953Y4076890D02*
X39419048Y4000700D01*
X39419048Y4000700D02*
X39457143Y3962604D01*
X39457143Y3962604D02*
X39533334Y3924509D01*
X39533334Y3924509D02*
X39647619Y3924509D01*
X39647619Y3924509D02*
X39723810Y3962604D01*
X39723810Y3962604D02*
X39761905Y4000700D01*
X39761905Y4000700D02*
X39876191Y4153081D01*
X39876191Y4153081D02*
X39914286Y4267366D01*
X39914286Y4267366D02*
X39914286Y4343557D01*
X40942857Y3962604D02*
X41057143Y3924509D01*
X41057143Y3924509D02*
X41247619Y3924509D01*
X41247619Y3924509D02*
X41323810Y3962604D01*
X41323810Y3962604D02*
X41361905Y4000700D01*
X41361905Y4000700D02*
X41400000Y4076890D01*
X41400000Y4076890D02*
X41400000Y4153081D01*
X41400000Y4153081D02*
X41361905Y4229271D01*
X41361905Y4229271D02*
X41323810Y4267366D01*
X41323810Y4267366D02*
X41247619Y4305462D01*
X41247619Y4305462D02*
X41095238Y4343557D01*
X41095238Y4343557D02*
X41019048Y4381652D01*
X41019048Y4381652D02*
X40980953Y4419747D01*
X40980953Y4419747D02*
X40942857Y4495938D01*
X40942857Y4495938D02*
X40942857Y4572128D01*
X40942857Y4572128D02*
X40980953Y4648319D01*
X40980953Y4648319D02*
X41019048Y4686414D01*
X41019048Y4686414D02*
X41095238Y4724509D01*
X41095238Y4724509D02*
X41285715Y4724509D01*
X41285715Y4724509D02*
X41400000Y4686414D01*
X41742858Y3924509D02*
X41742858Y4724509D01*
X42047619Y4724509D02*
X42580953Y4724509D01*
X42580953Y4724509D02*
X42238095Y3924509D01*
X43038096Y4724509D02*
X43114286Y4724509D01*
X43114286Y4724509D02*
X43190477Y4686414D01*
X43190477Y4686414D02*
X43228572Y4648319D01*
X43228572Y4648319D02*
X43266667Y4572128D01*
X43266667Y4572128D02*
X43304762Y4419747D01*
X43304762Y4419747D02*
X43304762Y4229271D01*
X43304762Y4229271D02*
X43266667Y4076890D01*
X43266667Y4076890D02*
X43228572Y4000700D01*
X43228572Y4000700D02*
X43190477Y3962604D01*
X43190477Y3962604D02*
X43114286Y3924509D01*
X43114286Y3924509D02*
X43038096Y3924509D01*
X43038096Y3924509D02*
X42961905Y3962604D01*
X42961905Y3962604D02*
X42923810Y4000700D01*
X42923810Y4000700D02*
X42885715Y4076890D01*
X42885715Y4076890D02*
X42847619Y4229271D01*
X42847619Y4229271D02*
X42847619Y4419747D01*
X42847619Y4419747D02*
X42885715Y4572128D01*
X42885715Y4572128D02*
X42923810Y4648319D01*
X42923810Y4648319D02*
X42961905Y4686414D01*
X42961905Y4686414D02*
X43038096Y4724509D01*
X43609524Y4648319D02*
X43647620Y4686414D01*
X43647620Y4686414D02*
X43723810Y4724509D01*
X43723810Y4724509D02*
X43914286Y4724509D01*
X43914286Y4724509D02*
X43990477Y4686414D01*
X43990477Y4686414D02*
X44028572Y4648319D01*
X44028572Y4648319D02*
X44066667Y4572128D01*
X44066667Y4572128D02*
X44066667Y4495938D01*
X44066667Y4495938D02*
X44028572Y4381652D01*
X44028572Y4381652D02*
X43571429Y3924509D01*
X43571429Y3924509D02*
X44066667Y3924509D01*
X44828572Y3924509D02*
X44371429Y3924509D01*
X44600001Y3924509D02*
X44600001Y4724509D01*
X44600001Y4724509D02*
X44523810Y4610224D01*
X44523810Y4610224D02*
X44447620Y4534033D01*
X44447620Y4534033D02*
X44371429Y4495938D01*
X32161904Y3436509D02*
X32619047Y3436509D01*
X32390475Y2636509D02*
X32390475Y3436509D01*
X33190476Y2674604D02*
X33114285Y2636509D01*
X33114285Y2636509D02*
X32961904Y2636509D01*
X32961904Y2636509D02*
X32885714Y2674604D01*
X32885714Y2674604D02*
X32847618Y2750795D01*
X32847618Y2750795D02*
X32847618Y3055557D01*
X32847618Y3055557D02*
X32885714Y3131747D01*
X32885714Y3131747D02*
X32961904Y3169843D01*
X32961904Y3169843D02*
X33114285Y3169843D01*
X33114285Y3169843D02*
X33190476Y3131747D01*
X33190476Y3131747D02*
X33228571Y3055557D01*
X33228571Y3055557D02*
X33228571Y2979366D01*
X33228571Y2979366D02*
X32847618Y2903176D01*
X33571428Y2636509D02*
X33571428Y3169843D01*
X33571428Y3093652D02*
X33609523Y3131747D01*
X33609523Y3131747D02*
X33685713Y3169843D01*
X33685713Y3169843D02*
X33799999Y3169843D01*
X33799999Y3169843D02*
X33876190Y3131747D01*
X33876190Y3131747D02*
X33914285Y3055557D01*
X33914285Y3055557D02*
X33914285Y2636509D01*
X33914285Y3055557D02*
X33952380Y3131747D01*
X33952380Y3131747D02*
X34028571Y3169843D01*
X34028571Y3169843D02*
X34142856Y3169843D01*
X34142856Y3169843D02*
X34219047Y3131747D01*
X34219047Y3131747D02*
X34257142Y3055557D01*
X34257142Y3055557D02*
X34257142Y2636509D01*
X34638095Y3169843D02*
X34638095Y2369843D01*
X34638095Y3131747D02*
X34714285Y3169843D01*
X34714285Y3169843D02*
X34866666Y3169843D01*
X34866666Y3169843D02*
X34942857Y3131747D01*
X34942857Y3131747D02*
X34980952Y3093652D01*
X34980952Y3093652D02*
X35019047Y3017462D01*
X35019047Y3017462D02*
X35019047Y2788890D01*
X35019047Y2788890D02*
X34980952Y2712700D01*
X34980952Y2712700D02*
X34942857Y2674604D01*
X34942857Y2674604D02*
X34866666Y2636509D01*
X34866666Y2636509D02*
X34714285Y2636509D01*
X34714285Y2636509D02*
X34638095Y2674604D01*
X35933333Y3474604D02*
X35247619Y2446033D01*
X36200000Y2636509D02*
X36200000Y3436509D01*
X36200000Y3055557D02*
X36657143Y3055557D01*
X36657143Y2636509D02*
X36657143Y3436509D01*
X37380952Y3169843D02*
X37380952Y2636509D01*
X37038095Y3169843D02*
X37038095Y2750795D01*
X37038095Y2750795D02*
X37076190Y2674604D01*
X37076190Y2674604D02*
X37152380Y2636509D01*
X37152380Y2636509D02*
X37266666Y2636509D01*
X37266666Y2636509D02*
X37342857Y2674604D01*
X37342857Y2674604D02*
X37380952Y2712700D01*
X37761905Y2636509D02*
X37761905Y3169843D01*
X37761905Y3093652D02*
X37800000Y3131747D01*
X37800000Y3131747D02*
X37876190Y3169843D01*
X37876190Y3169843D02*
X37990476Y3169843D01*
X37990476Y3169843D02*
X38066667Y3131747D01*
X38066667Y3131747D02*
X38104762Y3055557D01*
X38104762Y3055557D02*
X38104762Y2636509D01*
X38104762Y3055557D02*
X38142857Y3131747D01*
X38142857Y3131747D02*
X38219048Y3169843D01*
X38219048Y3169843D02*
X38333333Y3169843D01*
X38333333Y3169843D02*
X38409524Y3131747D01*
X38409524Y3131747D02*
X38447619Y3055557D01*
X38447619Y3055557D02*
X38447619Y2636509D01*
X38828572Y2636509D02*
X38828572Y3169843D01*
X38828572Y3436509D02*
X38790476Y3398414D01*
X38790476Y3398414D02*
X38828572Y3360319D01*
X38828572Y3360319D02*
X38866667Y3398414D01*
X38866667Y3398414D02*
X38828572Y3436509D01*
X38828572Y3436509D02*
X38828572Y3360319D01*
X39552381Y2636509D02*
X39552381Y3436509D01*
X39552381Y2674604D02*
X39476190Y2636509D01*
X39476190Y2636509D02*
X39323809Y2636509D01*
X39323809Y2636509D02*
X39247619Y2674604D01*
X39247619Y2674604D02*
X39209524Y2712700D01*
X39209524Y2712700D02*
X39171428Y2788890D01*
X39171428Y2788890D02*
X39171428Y3017462D01*
X39171428Y3017462D02*
X39209524Y3093652D01*
X39209524Y3093652D02*
X39247619Y3131747D01*
X39247619Y3131747D02*
X39323809Y3169843D01*
X39323809Y3169843D02*
X39476190Y3169843D01*
X39476190Y3169843D02*
X39552381Y3131747D01*
X39933334Y2636509D02*
X39933334Y3169843D01*
X39933334Y3436509D02*
X39895238Y3398414D01*
X39895238Y3398414D02*
X39933334Y3360319D01*
X39933334Y3360319D02*
X39971429Y3398414D01*
X39971429Y3398414D02*
X39933334Y3436509D01*
X39933334Y3436509D02*
X39933334Y3360319D01*
X40200000Y3169843D02*
X40504762Y3169843D01*
X40314286Y3436509D02*
X40314286Y2750795D01*
X40314286Y2750795D02*
X40352381Y2674604D01*
X40352381Y2674604D02*
X40428571Y2636509D01*
X40428571Y2636509D02*
X40504762Y2636509D01*
X40695238Y3169843D02*
X40885714Y2636509D01*
X41076191Y3169843D02*
X40885714Y2636509D01*
X40885714Y2636509D02*
X40809524Y2446033D01*
X40809524Y2446033D02*
X40771429Y2407938D01*
X40771429Y2407938D02*
X40695238Y2369843D01*
X42295239Y2674604D02*
X42219048Y2636509D01*
X42219048Y2636509D02*
X42066667Y2636509D01*
X42066667Y2636509D02*
X41990477Y2674604D01*
X41990477Y2674604D02*
X41952381Y2750795D01*
X41952381Y2750795D02*
X41952381Y3055557D01*
X41952381Y3055557D02*
X41990477Y3131747D01*
X41990477Y3131747D02*
X42066667Y3169843D01*
X42066667Y3169843D02*
X42219048Y3169843D01*
X42219048Y3169843D02*
X42295239Y3131747D01*
X42295239Y3131747D02*
X42333334Y3055557D01*
X42333334Y3055557D02*
X42333334Y2979366D01*
X42333334Y2979366D02*
X41952381Y2903176D01*
X42676191Y2636509D02*
X42676191Y3436509D01*
X42676191Y3436509D02*
X42980953Y3436509D01*
X42980953Y3436509D02*
X43057143Y3398414D01*
X43057143Y3398414D02*
X43095238Y3360319D01*
X43095238Y3360319D02*
X43133334Y3284128D01*
X43133334Y3284128D02*
X43133334Y3169843D01*
X43133334Y3169843D02*
X43095238Y3093652D01*
X43095238Y3093652D02*
X43057143Y3055557D01*
X43057143Y3055557D02*
X42980953Y3017462D01*
X42980953Y3017462D02*
X42676191Y3017462D01*
X43819048Y2636509D02*
X43819048Y3055557D01*
X43819048Y3055557D02*
X43780953Y3131747D01*
X43780953Y3131747D02*
X43704762Y3169843D01*
X43704762Y3169843D02*
X43552381Y3169843D01*
X43552381Y3169843D02*
X43476191Y3131747D01*
X43819048Y2674604D02*
X43742857Y2636509D01*
X43742857Y2636509D02*
X43552381Y2636509D01*
X43552381Y2636509D02*
X43476191Y2674604D01*
X43476191Y2674604D02*
X43438095Y2750795D01*
X43438095Y2750795D02*
X43438095Y2826985D01*
X43438095Y2826985D02*
X43476191Y2903176D01*
X43476191Y2903176D02*
X43552381Y2941271D01*
X43552381Y2941271D02*
X43742857Y2941271D01*
X43742857Y2941271D02*
X43819048Y2979366D01*
X44200001Y3169843D02*
X44200001Y2369843D01*
X44200001Y3131747D02*
X44276191Y3169843D01*
X44276191Y3169843D02*
X44428572Y3169843D01*
X44428572Y3169843D02*
X44504763Y3131747D01*
X44504763Y3131747D02*
X44542858Y3093652D01*
X44542858Y3093652D02*
X44580953Y3017462D01*
X44580953Y3017462D02*
X44580953Y2788890D01*
X44580953Y2788890D02*
X44542858Y2712700D01*
X44542858Y2712700D02*
X44504763Y2674604D01*
X44504763Y2674604D02*
X44428572Y2636509D01*
X44428572Y2636509D02*
X44276191Y2636509D01*
X44276191Y2636509D02*
X44200001Y2674604D01*
X45228573Y2674604D02*
X45152382Y2636509D01*
X45152382Y2636509D02*
X45000001Y2636509D01*
X45000001Y2636509D02*
X44923811Y2674604D01*
X44923811Y2674604D02*
X44885715Y2750795D01*
X44885715Y2750795D02*
X44885715Y3055557D01*
X44885715Y3055557D02*
X44923811Y3131747D01*
X44923811Y3131747D02*
X45000001Y3169843D01*
X45000001Y3169843D02*
X45152382Y3169843D01*
X45152382Y3169843D02*
X45228573Y3131747D01*
X45228573Y3131747D02*
X45266668Y3055557D01*
X45266668Y3055557D02*
X45266668Y2979366D01*
X45266668Y2979366D02*
X44885715Y2903176D01*
X45609525Y2636509D02*
X45609525Y3169843D01*
X45609525Y3017462D02*
X45647620Y3093652D01*
X45647620Y3093652D02*
X45685715Y3131747D01*
X45685715Y3131747D02*
X45761906Y3169843D01*
X45761906Y3169843D02*
X45838096Y3169843D01*
X32771427Y1577081D02*
X33152380Y1577081D01*
X32695237Y1348509D02*
X32961904Y2148509D01*
X32961904Y2148509D02*
X33228570Y1348509D01*
X33495237Y1881843D02*
X33495237Y1348509D01*
X33495237Y1805652D02*
X33533332Y1843747D01*
X33533332Y1843747D02*
X33609522Y1881843D01*
X33609522Y1881843D02*
X33723808Y1881843D01*
X33723808Y1881843D02*
X33799999Y1843747D01*
X33799999Y1843747D02*
X33838094Y1767557D01*
X33838094Y1767557D02*
X33838094Y1348509D01*
X34561904Y1348509D02*
X34561904Y1767557D01*
X34561904Y1767557D02*
X34523809Y1843747D01*
X34523809Y1843747D02*
X34447618Y1881843D01*
X34447618Y1881843D02*
X34295237Y1881843D01*
X34295237Y1881843D02*
X34219047Y1843747D01*
X34561904Y1386604D02*
X34485713Y1348509D01*
X34485713Y1348509D02*
X34295237Y1348509D01*
X34295237Y1348509D02*
X34219047Y1386604D01*
X34219047Y1386604D02*
X34180951Y1462795D01*
X34180951Y1462795D02*
X34180951Y1538985D01*
X34180951Y1538985D02*
X34219047Y1615176D01*
X34219047Y1615176D02*
X34295237Y1653271D01*
X34295237Y1653271D02*
X34485713Y1653271D01*
X34485713Y1653271D02*
X34561904Y1691366D01*
X35057142Y1348509D02*
X34980952Y1386604D01*
X34980952Y1386604D02*
X34942857Y1462795D01*
X34942857Y1462795D02*
X34942857Y2148509D01*
X35476190Y1348509D02*
X35400000Y1386604D01*
X35400000Y1386604D02*
X35361905Y1424700D01*
X35361905Y1424700D02*
X35323809Y1500890D01*
X35323809Y1500890D02*
X35323809Y1729462D01*
X35323809Y1729462D02*
X35361905Y1805652D01*
X35361905Y1805652D02*
X35400000Y1843747D01*
X35400000Y1843747D02*
X35476190Y1881843D01*
X35476190Y1881843D02*
X35590476Y1881843D01*
X35590476Y1881843D02*
X35666667Y1843747D01*
X35666667Y1843747D02*
X35704762Y1805652D01*
X35704762Y1805652D02*
X35742857Y1729462D01*
X35742857Y1729462D02*
X35742857Y1500890D01*
X35742857Y1500890D02*
X35704762Y1424700D01*
X35704762Y1424700D02*
X35666667Y1386604D01*
X35666667Y1386604D02*
X35590476Y1348509D01*
X35590476Y1348509D02*
X35476190Y1348509D01*
X36428572Y1881843D02*
X36428572Y1234224D01*
X36428572Y1234224D02*
X36390477Y1158033D01*
X36390477Y1158033D02*
X36352381Y1119938D01*
X36352381Y1119938D02*
X36276191Y1081843D01*
X36276191Y1081843D02*
X36161905Y1081843D01*
X36161905Y1081843D02*
X36085715Y1119938D01*
X36428572Y1386604D02*
X36352381Y1348509D01*
X36352381Y1348509D02*
X36200000Y1348509D01*
X36200000Y1348509D02*
X36123810Y1386604D01*
X36123810Y1386604D02*
X36085715Y1424700D01*
X36085715Y1424700D02*
X36047619Y1500890D01*
X36047619Y1500890D02*
X36047619Y1729462D01*
X36047619Y1729462D02*
X36085715Y1805652D01*
X36085715Y1805652D02*
X36123810Y1843747D01*
X36123810Y1843747D02*
X36200000Y1881843D01*
X36200000Y1881843D02*
X36352381Y1881843D01*
X36352381Y1881843D02*
X36428572Y1843747D01*
X37419049Y1348509D02*
X37419049Y2148509D01*
X37419049Y2148509D02*
X37609525Y2148509D01*
X37609525Y2148509D02*
X37723811Y2110414D01*
X37723811Y2110414D02*
X37800001Y2034224D01*
X37800001Y2034224D02*
X37838096Y1958033D01*
X37838096Y1958033D02*
X37876192Y1805652D01*
X37876192Y1805652D02*
X37876192Y1691366D01*
X37876192Y1691366D02*
X37838096Y1538985D01*
X37838096Y1538985D02*
X37800001Y1462795D01*
X37800001Y1462795D02*
X37723811Y1386604D01*
X37723811Y1386604D02*
X37609525Y1348509D01*
X37609525Y1348509D02*
X37419049Y1348509D01*
X38523811Y1386604D02*
X38447620Y1348509D01*
X38447620Y1348509D02*
X38295239Y1348509D01*
X38295239Y1348509D02*
X38219049Y1386604D01*
X38219049Y1386604D02*
X38180953Y1462795D01*
X38180953Y1462795D02*
X38180953Y1767557D01*
X38180953Y1767557D02*
X38219049Y1843747D01*
X38219049Y1843747D02*
X38295239Y1881843D01*
X38295239Y1881843D02*
X38447620Y1881843D01*
X38447620Y1881843D02*
X38523811Y1843747D01*
X38523811Y1843747D02*
X38561906Y1767557D01*
X38561906Y1767557D02*
X38561906Y1691366D01*
X38561906Y1691366D02*
X38180953Y1615176D01*
X38828572Y1881843D02*
X39019048Y1348509D01*
X39019048Y1348509D02*
X39209525Y1881843D01*
X39514287Y1348509D02*
X39514287Y1881843D01*
X39514287Y2148509D02*
X39476191Y2110414D01*
X39476191Y2110414D02*
X39514287Y2072319D01*
X39514287Y2072319D02*
X39552382Y2110414D01*
X39552382Y2110414D02*
X39514287Y2148509D01*
X39514287Y2148509D02*
X39514287Y2072319D01*
X40238096Y1386604D02*
X40161905Y1348509D01*
X40161905Y1348509D02*
X40009524Y1348509D01*
X40009524Y1348509D02*
X39933334Y1386604D01*
X39933334Y1386604D02*
X39895239Y1424700D01*
X39895239Y1424700D02*
X39857143Y1500890D01*
X39857143Y1500890D02*
X39857143Y1729462D01*
X39857143Y1729462D02*
X39895239Y1805652D01*
X39895239Y1805652D02*
X39933334Y1843747D01*
X39933334Y1843747D02*
X40009524Y1881843D01*
X40009524Y1881843D02*
X40161905Y1881843D01*
X40161905Y1881843D02*
X40238096Y1843747D01*
X40885715Y1386604D02*
X40809524Y1348509D01*
X40809524Y1348509D02*
X40657143Y1348509D01*
X40657143Y1348509D02*
X40580953Y1386604D01*
X40580953Y1386604D02*
X40542857Y1462795D01*
X40542857Y1462795D02*
X40542857Y1767557D01*
X40542857Y1767557D02*
X40580953Y1843747D01*
X40580953Y1843747D02*
X40657143Y1881843D01*
X40657143Y1881843D02*
X40809524Y1881843D01*
X40809524Y1881843D02*
X40885715Y1843747D01*
X40885715Y1843747D02*
X40923810Y1767557D01*
X40923810Y1767557D02*
X40923810Y1691366D01*
X40923810Y1691366D02*
X40542857Y1615176D01*
X41228571Y1386604D02*
X41304762Y1348509D01*
X41304762Y1348509D02*
X41457143Y1348509D01*
X41457143Y1348509D02*
X41533333Y1386604D01*
X41533333Y1386604D02*
X41571429Y1462795D01*
X41571429Y1462795D02*
X41571429Y1500890D01*
X41571429Y1500890D02*
X41533333Y1577081D01*
X41533333Y1577081D02*
X41457143Y1615176D01*
X41457143Y1615176D02*
X41342857Y1615176D01*
X41342857Y1615176D02*
X41266667Y1653271D01*
X41266667Y1653271D02*
X41228571Y1729462D01*
X41228571Y1729462D02*
X41228571Y1767557D01*
X41228571Y1767557D02*
X41266667Y1843747D01*
X41266667Y1843747D02*
X41342857Y1881843D01*
X41342857Y1881843D02*
X41457143Y1881843D01*
X41457143Y1881843D02*
X41533333Y1843747D01*
X42485714Y2072319D02*
X42523810Y2110414D01*
X42523810Y2110414D02*
X42600000Y2148509D01*
X42600000Y2148509D02*
X42790476Y2148509D01*
X42790476Y2148509D02*
X42866667Y2110414D01*
X42866667Y2110414D02*
X42904762Y2072319D01*
X42904762Y2072319D02*
X42942857Y1996128D01*
X42942857Y1996128D02*
X42942857Y1919938D01*
X42942857Y1919938D02*
X42904762Y1805652D01*
X42904762Y1805652D02*
X42447619Y1348509D01*
X42447619Y1348509D02*
X42942857Y1348509D01*
X43438096Y2148509D02*
X43514286Y2148509D01*
X43514286Y2148509D02*
X43590477Y2110414D01*
X43590477Y2110414D02*
X43628572Y2072319D01*
X43628572Y2072319D02*
X43666667Y1996128D01*
X43666667Y1996128D02*
X43704762Y1843747D01*
X43704762Y1843747D02*
X43704762Y1653271D01*
X43704762Y1653271D02*
X43666667Y1500890D01*
X43666667Y1500890D02*
X43628572Y1424700D01*
X43628572Y1424700D02*
X43590477Y1386604D01*
X43590477Y1386604D02*
X43514286Y1348509D01*
X43514286Y1348509D02*
X43438096Y1348509D01*
X43438096Y1348509D02*
X43361905Y1386604D01*
X43361905Y1386604D02*
X43323810Y1424700D01*
X43323810Y1424700D02*
X43285715Y1500890D01*
X43285715Y1500890D02*
X43247619Y1653271D01*
X43247619Y1653271D02*
X43247619Y1843747D01*
X43247619Y1843747D02*
X43285715Y1996128D01*
X43285715Y1996128D02*
X43323810Y2072319D01*
X43323810Y2072319D02*
X43361905Y2110414D01*
X43361905Y2110414D02*
X43438096Y2148509D01*
X44009524Y2072319D02*
X44047620Y2110414D01*
X44047620Y2110414D02*
X44123810Y2148509D01*
X44123810Y2148509D02*
X44314286Y2148509D01*
X44314286Y2148509D02*
X44390477Y2110414D01*
X44390477Y2110414D02*
X44428572Y2072319D01*
X44428572Y2072319D02*
X44466667Y1996128D01*
X44466667Y1996128D02*
X44466667Y1919938D01*
X44466667Y1919938D02*
X44428572Y1805652D01*
X44428572Y1805652D02*
X43971429Y1348509D01*
X43971429Y1348509D02*
X44466667Y1348509D01*
X44733334Y2148509D02*
X45228572Y2148509D01*
X45228572Y2148509D02*
X44961906Y1843747D01*
X44961906Y1843747D02*
X45076191Y1843747D01*
X45076191Y1843747D02*
X45152382Y1805652D01*
X45152382Y1805652D02*
X45190477Y1767557D01*
X45190477Y1767557D02*
X45228572Y1691366D01*
X45228572Y1691366D02*
X45228572Y1500890D01*
X45228572Y1500890D02*
X45190477Y1424700D01*
X45190477Y1424700D02*
X45152382Y1386604D01*
X45152382Y1386604D02*
X45076191Y1348509D01*
X45076191Y1348509D02*
X44847620Y1348509D01*
X44847620Y1348509D02*
X44771429Y1386604D01*
X44771429Y1386604D02*
X44733334Y1424700D01*
D11*
X33014285Y39368991D02*
X33157142Y39321372D01*
X33157142Y39321372D02*
X33204761Y39273753D01*
X33204761Y39273753D02*
X33252380Y39178515D01*
X33252380Y39178515D02*
X33252380Y39035658D01*
X33252380Y39035658D02*
X33204761Y38940420D01*
X33204761Y38940420D02*
X33157142Y38892800D01*
X33157142Y38892800D02*
X33061904Y38845181D01*
X33061904Y38845181D02*
X32680952Y38845181D01*
X32680952Y38845181D02*
X32680952Y39845181D01*
X32680952Y39845181D02*
X33014285Y39845181D01*
X33014285Y39845181D02*
X33109523Y39797562D01*
X33109523Y39797562D02*
X33157142Y39749943D01*
X33157142Y39749943D02*
X33204761Y39654705D01*
X33204761Y39654705D02*
X33204761Y39559467D01*
X33204761Y39559467D02*
X33157142Y39464229D01*
X33157142Y39464229D02*
X33109523Y39416610D01*
X33109523Y39416610D02*
X33014285Y39368991D01*
X33014285Y39368991D02*
X32680952Y39368991D01*
X33538095Y39845181D02*
X34109523Y39845181D01*
X33823809Y38845181D02*
X33823809Y39845181D01*
X34966666Y38845181D02*
X34395238Y38845181D01*
X34680952Y38845181D02*
X34680952Y39845181D01*
X34680952Y39845181D02*
X34585714Y39702324D01*
X34585714Y39702324D02*
X34490476Y39607086D01*
X34490476Y39607086D02*
X34395238Y39559467D01*
X36929580Y39833334D02*
X36977200Y39785715D01*
X36977200Y39785715D02*
X37024819Y39642858D01*
X37024819Y39642858D02*
X37024819Y39547620D01*
X37024819Y39547620D02*
X36977200Y39404763D01*
X36977200Y39404763D02*
X36881961Y39309525D01*
X36881961Y39309525D02*
X36786723Y39261906D01*
X36786723Y39261906D02*
X36596247Y39214287D01*
X36596247Y39214287D02*
X36453390Y39214287D01*
X36453390Y39214287D02*
X36262914Y39261906D01*
X36262914Y39261906D02*
X36167676Y39309525D01*
X36167676Y39309525D02*
X36072438Y39404763D01*
X36072438Y39404763D02*
X36024819Y39547620D01*
X36024819Y39547620D02*
X36024819Y39642858D01*
X36024819Y39642858D02*
X36072438Y39785715D01*
X36072438Y39785715D02*
X36120057Y39833334D01*
X37024819Y40785715D02*
X37024819Y40214287D01*
X37024819Y40500001D02*
X36024819Y40500001D01*
X36024819Y40500001D02*
X36167676Y40404763D01*
X36167676Y40404763D02*
X36262914Y40309525D01*
X36262914Y40309525D02*
X36310533Y40214287D01*
X30659580Y3733334D02*
X30707200Y3685715D01*
X30707200Y3685715D02*
X30754819Y3542858D01*
X30754819Y3542858D02*
X30754819Y3447620D01*
X30754819Y3447620D02*
X30707200Y3304763D01*
X30707200Y3304763D02*
X30611961Y3209525D01*
X30611961Y3209525D02*
X30516723Y3161906D01*
X30516723Y3161906D02*
X30326247Y3114287D01*
X30326247Y3114287D02*
X30183390Y3114287D01*
X30183390Y3114287D02*
X29992914Y3161906D01*
X29992914Y3161906D02*
X29897676Y3209525D01*
X29897676Y3209525D02*
X29802438Y3304763D01*
X29802438Y3304763D02*
X29754819Y3447620D01*
X29754819Y3447620D02*
X29754819Y3542858D01*
X29754819Y3542858D02*
X29802438Y3685715D01*
X29802438Y3685715D02*
X29850057Y3733334D01*
X29850057Y4114287D02*
X29802438Y4161906D01*
X29802438Y4161906D02*
X29754819Y4257144D01*
X29754819Y4257144D02*
X29754819Y4495239D01*
X29754819Y4495239D02*
X29802438Y4590477D01*
X29802438Y4590477D02*
X29850057Y4638096D01*
X29850057Y4638096D02*
X29945295Y4685715D01*
X29945295Y4685715D02*
X30040533Y4685715D01*
X30040533Y4685715D02*
X30183390Y4638096D01*
X30183390Y4638096D02*
X30754819Y4066668D01*
X30754819Y4066668D02*
X30754819Y4685715D01*
X7333333Y2210420D02*
X7285714Y2162800D01*
X7285714Y2162800D02*
X7142857Y2115181D01*
X7142857Y2115181D02*
X7047619Y2115181D01*
X7047619Y2115181D02*
X6904762Y2162800D01*
X6904762Y2162800D02*
X6809524Y2258039D01*
X6809524Y2258039D02*
X6761905Y2353277D01*
X6761905Y2353277D02*
X6714286Y2543753D01*
X6714286Y2543753D02*
X6714286Y2686610D01*
X6714286Y2686610D02*
X6761905Y2877086D01*
X6761905Y2877086D02*
X6809524Y2972324D01*
X6809524Y2972324D02*
X6904762Y3067562D01*
X6904762Y3067562D02*
X7047619Y3115181D01*
X7047619Y3115181D02*
X7142857Y3115181D01*
X7142857Y3115181D02*
X7285714Y3067562D01*
X7285714Y3067562D02*
X7333333Y3019943D01*
X8190476Y2781848D02*
X8190476Y2115181D01*
X7952381Y3162800D02*
X7714286Y2448515D01*
X7714286Y2448515D02*
X8333333Y2448515D01*
X4533333Y4540420D02*
X4485714Y4492800D01*
X4485714Y4492800D02*
X4342857Y4445181D01*
X4342857Y4445181D02*
X4247619Y4445181D01*
X4247619Y4445181D02*
X4104762Y4492800D01*
X4104762Y4492800D02*
X4009524Y4588039D01*
X4009524Y4588039D02*
X3961905Y4683277D01*
X3961905Y4683277D02*
X3914286Y4873753D01*
X3914286Y4873753D02*
X3914286Y5016610D01*
X3914286Y5016610D02*
X3961905Y5207086D01*
X3961905Y5207086D02*
X4009524Y5302324D01*
X4009524Y5302324D02*
X4104762Y5397562D01*
X4104762Y5397562D02*
X4247619Y5445181D01*
X4247619Y5445181D02*
X4342857Y5445181D01*
X4342857Y5445181D02*
X4485714Y5397562D01*
X4485714Y5397562D02*
X4533333Y5349943D01*
X5438095Y5445181D02*
X4961905Y5445181D01*
X4961905Y5445181D02*
X4914286Y4968991D01*
X4914286Y4968991D02*
X4961905Y5016610D01*
X4961905Y5016610D02*
X5057143Y5064229D01*
X5057143Y5064229D02*
X5295238Y5064229D01*
X5295238Y5064229D02*
X5390476Y5016610D01*
X5390476Y5016610D02*
X5438095Y4968991D01*
X5438095Y4968991D02*
X5485714Y4873753D01*
X5485714Y4873753D02*
X5485714Y4635658D01*
X5485714Y4635658D02*
X5438095Y4540420D01*
X5438095Y4540420D02*
X5390476Y4492800D01*
X5390476Y4492800D02*
X5295238Y4445181D01*
X5295238Y4445181D02*
X5057143Y4445181D01*
X5057143Y4445181D02*
X4961905Y4492800D01*
X4961905Y4492800D02*
X4914286Y4540420D01*
X45554819Y39566667D02*
X46269104Y39566667D01*
X46269104Y39566667D02*
X46411961Y39519048D01*
X46411961Y39519048D02*
X46507200Y39423810D01*
X46507200Y39423810D02*
X46554819Y39280953D01*
X46554819Y39280953D02*
X46554819Y39185715D01*
X46554819Y40566667D02*
X46554819Y39995239D01*
X46554819Y40280953D02*
X45554819Y40280953D01*
X45554819Y40280953D02*
X45697676Y40185715D01*
X45697676Y40185715D02*
X45792914Y40090477D01*
X45792914Y40090477D02*
X45840533Y39995239D01*
X25766666Y9345181D02*
X25766666Y8630896D01*
X25766666Y8630896D02*
X25719047Y8488039D01*
X25719047Y8488039D02*
X25623809Y8392800D01*
X25623809Y8392800D02*
X25480952Y8345181D01*
X25480952Y8345181D02*
X25385714Y8345181D01*
X26195238Y9249943D02*
X26242857Y9297562D01*
X26242857Y9297562D02*
X26338095Y9345181D01*
X26338095Y9345181D02*
X26576190Y9345181D01*
X26576190Y9345181D02*
X26671428Y9297562D01*
X26671428Y9297562D02*
X26719047Y9249943D01*
X26719047Y9249943D02*
X26766666Y9154705D01*
X26766666Y9154705D02*
X26766666Y9059467D01*
X26766666Y9059467D02*
X26719047Y8916610D01*
X26719047Y8916610D02*
X26147619Y8345181D01*
X26147619Y8345181D02*
X26766666Y8345181D01*
X10404819Y21166667D02*
X11119104Y21166667D01*
X11119104Y21166667D02*
X11261961Y21119048D01*
X11261961Y21119048D02*
X11357200Y21023810D01*
X11357200Y21023810D02*
X11404819Y20880953D01*
X11404819Y20880953D02*
X11404819Y20785715D01*
X10404819Y21547620D02*
X10404819Y22166667D01*
X10404819Y22166667D02*
X10785771Y21833334D01*
X10785771Y21833334D02*
X10785771Y21976191D01*
X10785771Y21976191D02*
X10833390Y22071429D01*
X10833390Y22071429D02*
X10881009Y22119048D01*
X10881009Y22119048D02*
X10976247Y22166667D01*
X10976247Y22166667D02*
X11214342Y22166667D01*
X11214342Y22166667D02*
X11309580Y22119048D01*
X11309580Y22119048D02*
X11357200Y22071429D01*
X11357200Y22071429D02*
X11404819Y21976191D01*
X11404819Y21976191D02*
X11404819Y21690477D01*
X11404819Y21690477D02*
X11357200Y21595239D01*
X11357200Y21595239D02*
X11309580Y21547620D01*
X4233333Y9645181D02*
X3757143Y9645181D01*
X3757143Y9645181D02*
X3757143Y10645181D01*
X5090476Y9645181D02*
X4519048Y9645181D01*
X4804762Y9645181D02*
X4804762Y10645181D01*
X4804762Y10645181D02*
X4709524Y10502324D01*
X4709524Y10502324D02*
X4614286Y10407086D01*
X4614286Y10407086D02*
X4519048Y10359467D01*
X12533333Y12645181D02*
X12200000Y13121372D01*
X11961905Y12645181D02*
X11961905Y13645181D01*
X11961905Y13645181D02*
X12342857Y13645181D01*
X12342857Y13645181D02*
X12438095Y13597562D01*
X12438095Y13597562D02*
X12485714Y13549943D01*
X12485714Y13549943D02*
X12533333Y13454705D01*
X12533333Y13454705D02*
X12533333Y13311848D01*
X12533333Y13311848D02*
X12485714Y13216610D01*
X12485714Y13216610D02*
X12438095Y13168991D01*
X12438095Y13168991D02*
X12342857Y13121372D01*
X12342857Y13121372D02*
X11961905Y13121372D01*
X12914286Y13549943D02*
X12961905Y13597562D01*
X12961905Y13597562D02*
X13057143Y13645181D01*
X13057143Y13645181D02*
X13295238Y13645181D01*
X13295238Y13645181D02*
X13390476Y13597562D01*
X13390476Y13597562D02*
X13438095Y13549943D01*
X13438095Y13549943D02*
X13485714Y13454705D01*
X13485714Y13454705D02*
X13485714Y13359467D01*
X13485714Y13359467D02*
X13438095Y13216610D01*
X13438095Y13216610D02*
X12866667Y12645181D01*
X12866667Y12645181D02*
X13485714Y12645181D01*
X14638095Y9145181D02*
X14638095Y8335658D01*
X14638095Y8335658D02*
X14685714Y8240420D01*
X14685714Y8240420D02*
X14733333Y8192800D01*
X14733333Y8192800D02*
X14828571Y8145181D01*
X14828571Y8145181D02*
X15019047Y8145181D01*
X15019047Y8145181D02*
X15114285Y8192800D01*
X15114285Y8192800D02*
X15161904Y8240420D01*
X15161904Y8240420D02*
X15209523Y8335658D01*
X15209523Y8335658D02*
X15209523Y9145181D01*
X15638095Y9049943D02*
X15685714Y9097562D01*
X15685714Y9097562D02*
X15780952Y9145181D01*
X15780952Y9145181D02*
X16019047Y9145181D01*
X16019047Y9145181D02*
X16114285Y9097562D01*
X16114285Y9097562D02*
X16161904Y9049943D01*
X16161904Y9049943D02*
X16209523Y8954705D01*
X16209523Y8954705D02*
X16209523Y8859467D01*
X16209523Y8859467D02*
X16161904Y8716610D01*
X16161904Y8716610D02*
X15590476Y8145181D01*
X15590476Y8145181D02*
X16209523Y8145181D01*
X22504761Y14849943D02*
X22409523Y14897562D01*
X22409523Y14897562D02*
X22314285Y14992800D01*
X22314285Y14992800D02*
X22171428Y15135658D01*
X22171428Y15135658D02*
X22076190Y15183277D01*
X22076190Y15183277D02*
X21980952Y15183277D01*
X22028571Y14945181D02*
X21933333Y14992800D01*
X21933333Y14992800D02*
X21838095Y15088039D01*
X21838095Y15088039D02*
X21790476Y15278515D01*
X21790476Y15278515D02*
X21790476Y15611848D01*
X21790476Y15611848D02*
X21838095Y15802324D01*
X21838095Y15802324D02*
X21933333Y15897562D01*
X21933333Y15897562D02*
X22028571Y15945181D01*
X22028571Y15945181D02*
X22219047Y15945181D01*
X22219047Y15945181D02*
X22314285Y15897562D01*
X22314285Y15897562D02*
X22409523Y15802324D01*
X22409523Y15802324D02*
X22457142Y15611848D01*
X22457142Y15611848D02*
X22457142Y15278515D01*
X22457142Y15278515D02*
X22409523Y15088039D01*
X22409523Y15088039D02*
X22314285Y14992800D01*
X22314285Y14992800D02*
X22219047Y14945181D01*
X22219047Y14945181D02*
X22028571Y14945181D01*
X23409523Y14945181D02*
X22838095Y14945181D01*
X23123809Y14945181D02*
X23123809Y15945181D01*
X23123809Y15945181D02*
X23028571Y15802324D01*
X23028571Y15802324D02*
X22933333Y15707086D01*
X22933333Y15707086D02*
X22838095Y15659467D01*
X20384819Y17745834D02*
X19908628Y17412501D01*
X20384819Y17174406D02*
X19384819Y17174406D01*
X19384819Y17174406D02*
X19384819Y17555358D01*
X19384819Y17555358D02*
X19432438Y17650596D01*
X19432438Y17650596D02*
X19480057Y17698215D01*
X19480057Y17698215D02*
X19575295Y17745834D01*
X19575295Y17745834D02*
X19718152Y17745834D01*
X19718152Y17745834D02*
X19813390Y17698215D01*
X19813390Y17698215D02*
X19861009Y17650596D01*
X19861009Y17650596D02*
X19908628Y17555358D01*
X19908628Y17555358D02*
X19908628Y17174406D01*
X19718152Y18602977D02*
X20384819Y18602977D01*
X19337200Y18364882D02*
X20051485Y18126787D01*
X20051485Y18126787D02*
X20051485Y18745834D01*
X2754819Y41133334D02*
X2278628Y40800001D01*
X2754819Y40561906D02*
X1754819Y40561906D01*
X1754819Y40561906D02*
X1754819Y40942858D01*
X1754819Y40942858D02*
X1802438Y41038096D01*
X1802438Y41038096D02*
X1850057Y41085715D01*
X1850057Y41085715D02*
X1945295Y41133334D01*
X1945295Y41133334D02*
X2088152Y41133334D01*
X2088152Y41133334D02*
X2183390Y41085715D01*
X2183390Y41085715D02*
X2231009Y41038096D01*
X2231009Y41038096D02*
X2278628Y40942858D01*
X2278628Y40942858D02*
X2278628Y40561906D01*
X1754819Y42038096D02*
X1754819Y41561906D01*
X1754819Y41561906D02*
X2231009Y41514287D01*
X2231009Y41514287D02*
X2183390Y41561906D01*
X2183390Y41561906D02*
X2135771Y41657144D01*
X2135771Y41657144D02*
X2135771Y41895239D01*
X2135771Y41895239D02*
X2183390Y41990477D01*
X2183390Y41990477D02*
X2231009Y42038096D01*
X2231009Y42038096D02*
X2326247Y42085715D01*
X2326247Y42085715D02*
X2564342Y42085715D01*
X2564342Y42085715D02*
X2659580Y42038096D01*
X2659580Y42038096D02*
X2707200Y41990477D01*
X2707200Y41990477D02*
X2754819Y41895239D01*
X2754819Y41895239D02*
X2754819Y41657144D01*
X2754819Y41657144D02*
X2707200Y41561906D01*
X2707200Y41561906D02*
X2659580Y41514287D01*
X33057142Y22345181D02*
X32723809Y22821372D01*
X32485714Y22345181D02*
X32485714Y23345181D01*
X32485714Y23345181D02*
X32866666Y23345181D01*
X32866666Y23345181D02*
X32961904Y23297562D01*
X32961904Y23297562D02*
X33009523Y23249943D01*
X33009523Y23249943D02*
X33057142Y23154705D01*
X33057142Y23154705D02*
X33057142Y23011848D01*
X33057142Y23011848D02*
X33009523Y22916610D01*
X33009523Y22916610D02*
X32961904Y22868991D01*
X32961904Y22868991D02*
X32866666Y22821372D01*
X32866666Y22821372D02*
X32485714Y22821372D01*
X34009523Y22345181D02*
X33438095Y22345181D01*
X33723809Y22345181D02*
X33723809Y23345181D01*
X33723809Y23345181D02*
X33628571Y23202324D01*
X33628571Y23202324D02*
X33533333Y23107086D01*
X33533333Y23107086D02*
X33438095Y23059467D01*
X34866666Y23011848D02*
X34866666Y22345181D01*
X34628571Y23392800D02*
X34390476Y22678515D01*
X34390476Y22678515D02*
X35009523Y22678515D01*
X39457142Y11240420D02*
X39409523Y11192800D01*
X39409523Y11192800D02*
X39266666Y11145181D01*
X39266666Y11145181D02*
X39171428Y11145181D01*
X39171428Y11145181D02*
X39028571Y11192800D01*
X39028571Y11192800D02*
X38933333Y11288039D01*
X38933333Y11288039D02*
X38885714Y11383277D01*
X38885714Y11383277D02*
X38838095Y11573753D01*
X38838095Y11573753D02*
X38838095Y11716610D01*
X38838095Y11716610D02*
X38885714Y11907086D01*
X38885714Y11907086D02*
X38933333Y12002324D01*
X38933333Y12002324D02*
X39028571Y12097562D01*
X39028571Y12097562D02*
X39171428Y12145181D01*
X39171428Y12145181D02*
X39266666Y12145181D01*
X39266666Y12145181D02*
X39409523Y12097562D01*
X39409523Y12097562D02*
X39457142Y12049943D01*
X40409523Y11145181D02*
X39838095Y11145181D01*
X40123809Y11145181D02*
X40123809Y12145181D01*
X40123809Y12145181D02*
X40028571Y12002324D01*
X40028571Y12002324D02*
X39933333Y11907086D01*
X39933333Y11907086D02*
X39838095Y11859467D01*
X40885714Y11145181D02*
X41076190Y11145181D01*
X41076190Y11145181D02*
X41171428Y11192800D01*
X41171428Y11192800D02*
X41219047Y11240420D01*
X41219047Y11240420D02*
X41314285Y11383277D01*
X41314285Y11383277D02*
X41361904Y11573753D01*
X41361904Y11573753D02*
X41361904Y11954705D01*
X41361904Y11954705D02*
X41314285Y12049943D01*
X41314285Y12049943D02*
X41266666Y12097562D01*
X41266666Y12097562D02*
X41171428Y12145181D01*
X41171428Y12145181D02*
X40980952Y12145181D01*
X40980952Y12145181D02*
X40885714Y12097562D01*
X40885714Y12097562D02*
X40838095Y12049943D01*
X40838095Y12049943D02*
X40790476Y11954705D01*
X40790476Y11954705D02*
X40790476Y11716610D01*
X40790476Y11716610D02*
X40838095Y11621372D01*
X40838095Y11621372D02*
X40885714Y11573753D01*
X40885714Y11573753D02*
X40980952Y11526134D01*
X40980952Y11526134D02*
X41171428Y11526134D01*
X41171428Y11526134D02*
X41266666Y11573753D01*
X41266666Y11573753D02*
X41314285Y11621372D01*
X41314285Y11621372D02*
X41361904Y11716610D01*
X17233333Y2845181D02*
X16900000Y3321372D01*
X16661905Y2845181D02*
X16661905Y3845181D01*
X16661905Y3845181D02*
X17042857Y3845181D01*
X17042857Y3845181D02*
X17138095Y3797562D01*
X17138095Y3797562D02*
X17185714Y3749943D01*
X17185714Y3749943D02*
X17233333Y3654705D01*
X17233333Y3654705D02*
X17233333Y3511848D01*
X17233333Y3511848D02*
X17185714Y3416610D01*
X17185714Y3416610D02*
X17138095Y3368991D01*
X17138095Y3368991D02*
X17042857Y3321372D01*
X17042857Y3321372D02*
X16661905Y3321372D01*
X18090476Y3845181D02*
X17900000Y3845181D01*
X17900000Y3845181D02*
X17804762Y3797562D01*
X17804762Y3797562D02*
X17757143Y3749943D01*
X17757143Y3749943D02*
X17661905Y3607086D01*
X17661905Y3607086D02*
X17614286Y3416610D01*
X17614286Y3416610D02*
X17614286Y3035658D01*
X17614286Y3035658D02*
X17661905Y2940420D01*
X17661905Y2940420D02*
X17709524Y2892800D01*
X17709524Y2892800D02*
X17804762Y2845181D01*
X17804762Y2845181D02*
X17995238Y2845181D01*
X17995238Y2845181D02*
X18090476Y2892800D01*
X18090476Y2892800D02*
X18138095Y2940420D01*
X18138095Y2940420D02*
X18185714Y3035658D01*
X18185714Y3035658D02*
X18185714Y3273753D01*
X18185714Y3273753D02*
X18138095Y3368991D01*
X18138095Y3368991D02*
X18090476Y3416610D01*
X18090476Y3416610D02*
X17995238Y3464229D01*
X17995238Y3464229D02*
X17804762Y3464229D01*
X17804762Y3464229D02*
X17709524Y3416610D01*
X17709524Y3416610D02*
X17661905Y3368991D01*
X17661905Y3368991D02*
X17614286Y3273753D01*
X34954819Y6057143D02*
X34478628Y5723810D01*
X34954819Y5485715D02*
X33954819Y5485715D01*
X33954819Y5485715D02*
X33954819Y5866667D01*
X33954819Y5866667D02*
X34002438Y5961905D01*
X34002438Y5961905D02*
X34050057Y6009524D01*
X34050057Y6009524D02*
X34145295Y6057143D01*
X34145295Y6057143D02*
X34288152Y6057143D01*
X34288152Y6057143D02*
X34383390Y6009524D01*
X34383390Y6009524D02*
X34431009Y5961905D01*
X34431009Y5961905D02*
X34478628Y5866667D01*
X34478628Y5866667D02*
X34478628Y5485715D01*
X34954819Y7009524D02*
X34954819Y6438096D01*
X34954819Y6723810D02*
X33954819Y6723810D01*
X33954819Y6723810D02*
X34097676Y6628572D01*
X34097676Y6628572D02*
X34192914Y6533334D01*
X34192914Y6533334D02*
X34240533Y6438096D01*
X33954819Y7866667D02*
X33954819Y7676191D01*
X33954819Y7676191D02*
X34002438Y7580953D01*
X34002438Y7580953D02*
X34050057Y7533334D01*
X34050057Y7533334D02*
X34192914Y7438096D01*
X34192914Y7438096D02*
X34383390Y7390477D01*
X34383390Y7390477D02*
X34764342Y7390477D01*
X34764342Y7390477D02*
X34859580Y7438096D01*
X34859580Y7438096D02*
X34907200Y7485715D01*
X34907200Y7485715D02*
X34954819Y7580953D01*
X34954819Y7580953D02*
X34954819Y7771429D01*
X34954819Y7771429D02*
X34907200Y7866667D01*
X34907200Y7866667D02*
X34859580Y7914286D01*
X34859580Y7914286D02*
X34764342Y7961905D01*
X34764342Y7961905D02*
X34526247Y7961905D01*
X34526247Y7961905D02*
X34431009Y7914286D01*
X34431009Y7914286D02*
X34383390Y7866667D01*
X34383390Y7866667D02*
X34335771Y7771429D01*
X34335771Y7771429D02*
X34335771Y7580953D01*
X34335771Y7580953D02*
X34383390Y7485715D01*
X34383390Y7485715D02*
X34431009Y7438096D01*
X34431009Y7438096D02*
X34526247Y7390477D01*
X33357142Y23840420D02*
X33309523Y23792800D01*
X33309523Y23792800D02*
X33166666Y23745181D01*
X33166666Y23745181D02*
X33071428Y23745181D01*
X33071428Y23745181D02*
X32928571Y23792800D01*
X32928571Y23792800D02*
X32833333Y23888039D01*
X32833333Y23888039D02*
X32785714Y23983277D01*
X32785714Y23983277D02*
X32738095Y24173753D01*
X32738095Y24173753D02*
X32738095Y24316610D01*
X32738095Y24316610D02*
X32785714Y24507086D01*
X32785714Y24507086D02*
X32833333Y24602324D01*
X32833333Y24602324D02*
X32928571Y24697562D01*
X32928571Y24697562D02*
X33071428Y24745181D01*
X33071428Y24745181D02*
X33166666Y24745181D01*
X33166666Y24745181D02*
X33309523Y24697562D01*
X33309523Y24697562D02*
X33357142Y24649943D01*
X34309523Y23745181D02*
X33738095Y23745181D01*
X34023809Y23745181D02*
X34023809Y24745181D01*
X34023809Y24745181D02*
X33928571Y24602324D01*
X33928571Y24602324D02*
X33833333Y24507086D01*
X33833333Y24507086D02*
X33738095Y24459467D01*
X35261904Y23745181D02*
X34690476Y23745181D01*
X34976190Y23745181D02*
X34976190Y24745181D01*
X34976190Y24745181D02*
X34880952Y24602324D01*
X34880952Y24602324D02*
X34785714Y24507086D01*
X34785714Y24507086D02*
X34690476Y24459467D01*
X6333333Y32745181D02*
X5857143Y32745181D01*
X5857143Y32745181D02*
X5857143Y33745181D01*
X6619048Y33649943D02*
X6666667Y33697562D01*
X6666667Y33697562D02*
X6761905Y33745181D01*
X6761905Y33745181D02*
X7000000Y33745181D01*
X7000000Y33745181D02*
X7095238Y33697562D01*
X7095238Y33697562D02*
X7142857Y33649943D01*
X7142857Y33649943D02*
X7190476Y33554705D01*
X7190476Y33554705D02*
X7190476Y33459467D01*
X7190476Y33459467D02*
X7142857Y33316610D01*
X7142857Y33316610D02*
X6571429Y32745181D01*
X6571429Y32745181D02*
X7190476Y32745181D01*
X39557142Y9940420D02*
X39509523Y9892800D01*
X39509523Y9892800D02*
X39366666Y9845181D01*
X39366666Y9845181D02*
X39271428Y9845181D01*
X39271428Y9845181D02*
X39128571Y9892800D01*
X39128571Y9892800D02*
X39033333Y9988039D01*
X39033333Y9988039D02*
X38985714Y10083277D01*
X38985714Y10083277D02*
X38938095Y10273753D01*
X38938095Y10273753D02*
X38938095Y10416610D01*
X38938095Y10416610D02*
X38985714Y10607086D01*
X38985714Y10607086D02*
X39033333Y10702324D01*
X39033333Y10702324D02*
X39128571Y10797562D01*
X39128571Y10797562D02*
X39271428Y10845181D01*
X39271428Y10845181D02*
X39366666Y10845181D01*
X39366666Y10845181D02*
X39509523Y10797562D01*
X39509523Y10797562D02*
X39557142Y10749943D01*
X39938095Y10749943D02*
X39985714Y10797562D01*
X39985714Y10797562D02*
X40080952Y10845181D01*
X40080952Y10845181D02*
X40319047Y10845181D01*
X40319047Y10845181D02*
X40414285Y10797562D01*
X40414285Y10797562D02*
X40461904Y10749943D01*
X40461904Y10749943D02*
X40509523Y10654705D01*
X40509523Y10654705D02*
X40509523Y10559467D01*
X40509523Y10559467D02*
X40461904Y10416610D01*
X40461904Y10416610D02*
X39890476Y9845181D01*
X39890476Y9845181D02*
X40509523Y9845181D01*
X41128571Y10845181D02*
X41223809Y10845181D01*
X41223809Y10845181D02*
X41319047Y10797562D01*
X41319047Y10797562D02*
X41366666Y10749943D01*
X41366666Y10749943D02*
X41414285Y10654705D01*
X41414285Y10654705D02*
X41461904Y10464229D01*
X41461904Y10464229D02*
X41461904Y10226134D01*
X41461904Y10226134D02*
X41414285Y10035658D01*
X41414285Y10035658D02*
X41366666Y9940420D01*
X41366666Y9940420D02*
X41319047Y9892800D01*
X41319047Y9892800D02*
X41223809Y9845181D01*
X41223809Y9845181D02*
X41128571Y9845181D01*
X41128571Y9845181D02*
X41033333Y9892800D01*
X41033333Y9892800D02*
X40985714Y9940420D01*
X40985714Y9940420D02*
X40938095Y10035658D01*
X40938095Y10035658D02*
X40890476Y10226134D01*
X40890476Y10226134D02*
X40890476Y10464229D01*
X40890476Y10464229D02*
X40938095Y10654705D01*
X40938095Y10654705D02*
X40985714Y10749943D01*
X40985714Y10749943D02*
X41033333Y10797562D01*
X41033333Y10797562D02*
X41128571Y10845181D01*
X13833333Y40840420D02*
X13785714Y40792800D01*
X13785714Y40792800D02*
X13642857Y40745181D01*
X13642857Y40745181D02*
X13547619Y40745181D01*
X13547619Y40745181D02*
X13404762Y40792800D01*
X13404762Y40792800D02*
X13309524Y40888039D01*
X13309524Y40888039D02*
X13261905Y40983277D01*
X13261905Y40983277D02*
X13214286Y41173753D01*
X13214286Y41173753D02*
X13214286Y41316610D01*
X13214286Y41316610D02*
X13261905Y41507086D01*
X13261905Y41507086D02*
X13309524Y41602324D01*
X13309524Y41602324D02*
X13404762Y41697562D01*
X13404762Y41697562D02*
X13547619Y41745181D01*
X13547619Y41745181D02*
X13642857Y41745181D01*
X13642857Y41745181D02*
X13785714Y41697562D01*
X13785714Y41697562D02*
X13833333Y41649943D01*
X14166667Y41745181D02*
X14833333Y41745181D01*
X14833333Y41745181D02*
X14404762Y40745181D01*
X9123809Y9921372D02*
X9123809Y9445181D01*
X8790476Y10445181D02*
X9123809Y9921372D01*
X9123809Y9921372D02*
X9457142Y10445181D01*
X10314285Y9445181D02*
X9742857Y9445181D01*
X10028571Y9445181D02*
X10028571Y10445181D01*
X10028571Y10445181D02*
X9933333Y10302324D01*
X9933333Y10302324D02*
X9838095Y10207086D01*
X9838095Y10207086D02*
X9742857Y10159467D01*
X30857142Y17240420D02*
X30809523Y17192800D01*
X30809523Y17192800D02*
X30666666Y17145181D01*
X30666666Y17145181D02*
X30571428Y17145181D01*
X30571428Y17145181D02*
X30428571Y17192800D01*
X30428571Y17192800D02*
X30333333Y17288039D01*
X30333333Y17288039D02*
X30285714Y17383277D01*
X30285714Y17383277D02*
X30238095Y17573753D01*
X30238095Y17573753D02*
X30238095Y17716610D01*
X30238095Y17716610D02*
X30285714Y17907086D01*
X30285714Y17907086D02*
X30333333Y18002324D01*
X30333333Y18002324D02*
X30428571Y18097562D01*
X30428571Y18097562D02*
X30571428Y18145181D01*
X30571428Y18145181D02*
X30666666Y18145181D01*
X30666666Y18145181D02*
X30809523Y18097562D01*
X30809523Y18097562D02*
X30857142Y18049943D01*
X31809523Y17145181D02*
X31238095Y17145181D01*
X31523809Y17145181D02*
X31523809Y18145181D01*
X31523809Y18145181D02*
X31428571Y18002324D01*
X31428571Y18002324D02*
X31333333Y17907086D01*
X31333333Y17907086D02*
X31238095Y17859467D01*
X32666666Y18145181D02*
X32476190Y18145181D01*
X32476190Y18145181D02*
X32380952Y18097562D01*
X32380952Y18097562D02*
X32333333Y18049943D01*
X32333333Y18049943D02*
X32238095Y17907086D01*
X32238095Y17907086D02*
X32190476Y17716610D01*
X32190476Y17716610D02*
X32190476Y17335658D01*
X32190476Y17335658D02*
X32238095Y17240420D01*
X32238095Y17240420D02*
X32285714Y17192800D01*
X32285714Y17192800D02*
X32380952Y17145181D01*
X32380952Y17145181D02*
X32571428Y17145181D01*
X32571428Y17145181D02*
X32666666Y17192800D01*
X32666666Y17192800D02*
X32714285Y17240420D01*
X32714285Y17240420D02*
X32761904Y17335658D01*
X32761904Y17335658D02*
X32761904Y17573753D01*
X32761904Y17573753D02*
X32714285Y17668991D01*
X32714285Y17668991D02*
X32666666Y17716610D01*
X32666666Y17716610D02*
X32571428Y17764229D01*
X32571428Y17764229D02*
X32380952Y17764229D01*
X32380952Y17764229D02*
X32285714Y17716610D01*
X32285714Y17716610D02*
X32238095Y17668991D01*
X32238095Y17668991D02*
X32190476Y17573753D01*
X33257142Y15940420D02*
X33209523Y15892800D01*
X33209523Y15892800D02*
X33066666Y15845181D01*
X33066666Y15845181D02*
X32971428Y15845181D01*
X32971428Y15845181D02*
X32828571Y15892800D01*
X32828571Y15892800D02*
X32733333Y15988039D01*
X32733333Y15988039D02*
X32685714Y16083277D01*
X32685714Y16083277D02*
X32638095Y16273753D01*
X32638095Y16273753D02*
X32638095Y16416610D01*
X32638095Y16416610D02*
X32685714Y16607086D01*
X32685714Y16607086D02*
X32733333Y16702324D01*
X32733333Y16702324D02*
X32828571Y16797562D01*
X32828571Y16797562D02*
X32971428Y16845181D01*
X32971428Y16845181D02*
X33066666Y16845181D01*
X33066666Y16845181D02*
X33209523Y16797562D01*
X33209523Y16797562D02*
X33257142Y16749943D01*
X34209523Y15845181D02*
X33638095Y15845181D01*
X33923809Y15845181D02*
X33923809Y16845181D01*
X33923809Y16845181D02*
X33828571Y16702324D01*
X33828571Y16702324D02*
X33733333Y16607086D01*
X33733333Y16607086D02*
X33638095Y16559467D01*
X34780952Y16416610D02*
X34685714Y16464229D01*
X34685714Y16464229D02*
X34638095Y16511848D01*
X34638095Y16511848D02*
X34590476Y16607086D01*
X34590476Y16607086D02*
X34590476Y16654705D01*
X34590476Y16654705D02*
X34638095Y16749943D01*
X34638095Y16749943D02*
X34685714Y16797562D01*
X34685714Y16797562D02*
X34780952Y16845181D01*
X34780952Y16845181D02*
X34971428Y16845181D01*
X34971428Y16845181D02*
X35066666Y16797562D01*
X35066666Y16797562D02*
X35114285Y16749943D01*
X35114285Y16749943D02*
X35161904Y16654705D01*
X35161904Y16654705D02*
X35161904Y16607086D01*
X35161904Y16607086D02*
X35114285Y16511848D01*
X35114285Y16511848D02*
X35066666Y16464229D01*
X35066666Y16464229D02*
X34971428Y16416610D01*
X34971428Y16416610D02*
X34780952Y16416610D01*
X34780952Y16416610D02*
X34685714Y16368991D01*
X34685714Y16368991D02*
X34638095Y16321372D01*
X34638095Y16321372D02*
X34590476Y16226134D01*
X34590476Y16226134D02*
X34590476Y16035658D01*
X34590476Y16035658D02*
X34638095Y15940420D01*
X34638095Y15940420D02*
X34685714Y15892800D01*
X34685714Y15892800D02*
X34780952Y15845181D01*
X34780952Y15845181D02*
X34971428Y15845181D01*
X34971428Y15845181D02*
X35066666Y15892800D01*
X35066666Y15892800D02*
X35114285Y15940420D01*
X35114285Y15940420D02*
X35161904Y16035658D01*
X35161904Y16035658D02*
X35161904Y16226134D01*
X35161904Y16226134D02*
X35114285Y16321372D01*
X35114285Y16321372D02*
X35066666Y16368991D01*
X35066666Y16368991D02*
X34971428Y16416610D01*
X44166666Y31945181D02*
X44166666Y31230896D01*
X44166666Y31230896D02*
X44119047Y31088039D01*
X44119047Y31088039D02*
X44023809Y30992800D01*
X44023809Y30992800D02*
X43880952Y30945181D01*
X43880952Y30945181D02*
X43785714Y30945181D01*
X45071428Y31611848D02*
X45071428Y30945181D01*
X44833333Y31992800D02*
X44595238Y31278515D01*
X44595238Y31278515D02*
X45214285Y31278515D01*
X22024819Y12357143D02*
X21548628Y12023810D01*
X22024819Y11785715D02*
X21024819Y11785715D01*
X21024819Y11785715D02*
X21024819Y12166667D01*
X21024819Y12166667D02*
X21072438Y12261905D01*
X21072438Y12261905D02*
X21120057Y12309524D01*
X21120057Y12309524D02*
X21215295Y12357143D01*
X21215295Y12357143D02*
X21358152Y12357143D01*
X21358152Y12357143D02*
X21453390Y12309524D01*
X21453390Y12309524D02*
X21501009Y12261905D01*
X21501009Y12261905D02*
X21548628Y12166667D01*
X21548628Y12166667D02*
X21548628Y11785715D01*
X22024819Y13309524D02*
X22024819Y12738096D01*
X22024819Y13023810D02*
X21024819Y13023810D01*
X21024819Y13023810D02*
X21167676Y12928572D01*
X21167676Y12928572D02*
X21262914Y12833334D01*
X21262914Y12833334D02*
X21310533Y12738096D01*
X21024819Y14214286D02*
X21024819Y13738096D01*
X21024819Y13738096D02*
X21501009Y13690477D01*
X21501009Y13690477D02*
X21453390Y13738096D01*
X21453390Y13738096D02*
X21405771Y13833334D01*
X21405771Y13833334D02*
X21405771Y14071429D01*
X21405771Y14071429D02*
X21453390Y14166667D01*
X21453390Y14166667D02*
X21501009Y14214286D01*
X21501009Y14214286D02*
X21596247Y14261905D01*
X21596247Y14261905D02*
X21834342Y14261905D01*
X21834342Y14261905D02*
X21929580Y14214286D01*
X21929580Y14214286D02*
X21977200Y14166667D01*
X21977200Y14166667D02*
X22024819Y14071429D01*
X22024819Y14071429D02*
X22024819Y13833334D01*
X22024819Y13833334D02*
X21977200Y13738096D01*
X21977200Y13738096D02*
X21929580Y13690477D01*
X40054819Y33633334D02*
X39578628Y33300001D01*
X40054819Y33061906D02*
X39054819Y33061906D01*
X39054819Y33061906D02*
X39054819Y33442858D01*
X39054819Y33442858D02*
X39102438Y33538096D01*
X39102438Y33538096D02*
X39150057Y33585715D01*
X39150057Y33585715D02*
X39245295Y33633334D01*
X39245295Y33633334D02*
X39388152Y33633334D01*
X39388152Y33633334D02*
X39483390Y33585715D01*
X39483390Y33585715D02*
X39531009Y33538096D01*
X39531009Y33538096D02*
X39578628Y33442858D01*
X39578628Y33442858D02*
X39578628Y33061906D01*
X40054819Y34109525D02*
X40054819Y34300001D01*
X40054819Y34300001D02*
X40007200Y34395239D01*
X40007200Y34395239D02*
X39959580Y34442858D01*
X39959580Y34442858D02*
X39816723Y34538096D01*
X39816723Y34538096D02*
X39626247Y34585715D01*
X39626247Y34585715D02*
X39245295Y34585715D01*
X39245295Y34585715D02*
X39150057Y34538096D01*
X39150057Y34538096D02*
X39102438Y34490477D01*
X39102438Y34490477D02*
X39054819Y34395239D01*
X39054819Y34395239D02*
X39054819Y34204763D01*
X39054819Y34204763D02*
X39102438Y34109525D01*
X39102438Y34109525D02*
X39150057Y34061906D01*
X39150057Y34061906D02*
X39245295Y34014287D01*
X39245295Y34014287D02*
X39483390Y34014287D01*
X39483390Y34014287D02*
X39578628Y34061906D01*
X39578628Y34061906D02*
X39626247Y34109525D01*
X39626247Y34109525D02*
X39673866Y34204763D01*
X39673866Y34204763D02*
X39673866Y34395239D01*
X39673866Y34395239D02*
X39626247Y34490477D01*
X39626247Y34490477D02*
X39578628Y34538096D01*
X39578628Y34538096D02*
X39483390Y34585715D01*
X42904761Y9849943D02*
X42809523Y9897562D01*
X42809523Y9897562D02*
X42714285Y9992800D01*
X42714285Y9992800D02*
X42571428Y10135658D01*
X42571428Y10135658D02*
X42476190Y10183277D01*
X42476190Y10183277D02*
X42380952Y10183277D01*
X42428571Y9945181D02*
X42333333Y9992800D01*
X42333333Y9992800D02*
X42238095Y10088039D01*
X42238095Y10088039D02*
X42190476Y10278515D01*
X42190476Y10278515D02*
X42190476Y10611848D01*
X42190476Y10611848D02*
X42238095Y10802324D01*
X42238095Y10802324D02*
X42333333Y10897562D01*
X42333333Y10897562D02*
X42428571Y10945181D01*
X42428571Y10945181D02*
X42619047Y10945181D01*
X42619047Y10945181D02*
X42714285Y10897562D01*
X42714285Y10897562D02*
X42809523Y10802324D01*
X42809523Y10802324D02*
X42857142Y10611848D01*
X42857142Y10611848D02*
X42857142Y10278515D01*
X42857142Y10278515D02*
X42809523Y10088039D01*
X42809523Y10088039D02*
X42714285Y9992800D01*
X42714285Y9992800D02*
X42619047Y9945181D01*
X42619047Y9945181D02*
X42428571Y9945181D01*
X43238095Y10849943D02*
X43285714Y10897562D01*
X43285714Y10897562D02*
X43380952Y10945181D01*
X43380952Y10945181D02*
X43619047Y10945181D01*
X43619047Y10945181D02*
X43714285Y10897562D01*
X43714285Y10897562D02*
X43761904Y10849943D01*
X43761904Y10849943D02*
X43809523Y10754705D01*
X43809523Y10754705D02*
X43809523Y10659467D01*
X43809523Y10659467D02*
X43761904Y10516610D01*
X43761904Y10516610D02*
X43190476Y9945181D01*
X43190476Y9945181D02*
X43809523Y9945181D01*
X27933333Y19045181D02*
X27457143Y19045181D01*
X27457143Y19045181D02*
X27457143Y20045181D01*
X28695238Y19711848D02*
X28695238Y19045181D01*
X28457143Y20092800D02*
X28219048Y19378515D01*
X28219048Y19378515D02*
X28838095Y19378515D01*
X33357142Y17840420D02*
X33309523Y17792800D01*
X33309523Y17792800D02*
X33166666Y17745181D01*
X33166666Y17745181D02*
X33071428Y17745181D01*
X33071428Y17745181D02*
X32928571Y17792800D01*
X32928571Y17792800D02*
X32833333Y17888039D01*
X32833333Y17888039D02*
X32785714Y17983277D01*
X32785714Y17983277D02*
X32738095Y18173753D01*
X32738095Y18173753D02*
X32738095Y18316610D01*
X32738095Y18316610D02*
X32785714Y18507086D01*
X32785714Y18507086D02*
X32833333Y18602324D01*
X32833333Y18602324D02*
X32928571Y18697562D01*
X32928571Y18697562D02*
X33071428Y18745181D01*
X33071428Y18745181D02*
X33166666Y18745181D01*
X33166666Y18745181D02*
X33309523Y18697562D01*
X33309523Y18697562D02*
X33357142Y18649943D01*
X34309523Y17745181D02*
X33738095Y17745181D01*
X34023809Y17745181D02*
X34023809Y18745181D01*
X34023809Y18745181D02*
X33928571Y18602324D01*
X33928571Y18602324D02*
X33833333Y18507086D01*
X33833333Y18507086D02*
X33738095Y18459467D01*
X35214285Y18745181D02*
X34738095Y18745181D01*
X34738095Y18745181D02*
X34690476Y18268991D01*
X34690476Y18268991D02*
X34738095Y18316610D01*
X34738095Y18316610D02*
X34833333Y18364229D01*
X34833333Y18364229D02*
X35071428Y18364229D01*
X35071428Y18364229D02*
X35166666Y18316610D01*
X35166666Y18316610D02*
X35214285Y18268991D01*
X35214285Y18268991D02*
X35261904Y18173753D01*
X35261904Y18173753D02*
X35261904Y17935658D01*
X35261904Y17935658D02*
X35214285Y17840420D01*
X35214285Y17840420D02*
X35166666Y17792800D01*
X35166666Y17792800D02*
X35071428Y17745181D01*
X35071428Y17745181D02*
X34833333Y17745181D01*
X34833333Y17745181D02*
X34738095Y17792800D01*
X34738095Y17792800D02*
X34690476Y17840420D01*
X31861905Y7245181D02*
X31861905Y8245181D01*
X31861905Y8245181D02*
X32100000Y8245181D01*
X32100000Y8245181D02*
X32242857Y8197562D01*
X32242857Y8197562D02*
X32338095Y8102324D01*
X32338095Y8102324D02*
X32385714Y8007086D01*
X32385714Y8007086D02*
X32433333Y7816610D01*
X32433333Y7816610D02*
X32433333Y7673753D01*
X32433333Y7673753D02*
X32385714Y7483277D01*
X32385714Y7483277D02*
X32338095Y7388039D01*
X32338095Y7388039D02*
X32242857Y7292800D01*
X32242857Y7292800D02*
X32100000Y7245181D01*
X32100000Y7245181D02*
X31861905Y7245181D01*
X32766667Y8245181D02*
X33385714Y8245181D01*
X33385714Y8245181D02*
X33052381Y7864229D01*
X33052381Y7864229D02*
X33195238Y7864229D01*
X33195238Y7864229D02*
X33290476Y7816610D01*
X33290476Y7816610D02*
X33338095Y7768991D01*
X33338095Y7768991D02*
X33385714Y7673753D01*
X33385714Y7673753D02*
X33385714Y7435658D01*
X33385714Y7435658D02*
X33338095Y7340420D01*
X33338095Y7340420D02*
X33290476Y7292800D01*
X33290476Y7292800D02*
X33195238Y7245181D01*
X33195238Y7245181D02*
X32909524Y7245181D01*
X32909524Y7245181D02*
X32814286Y7292800D01*
X32814286Y7292800D02*
X32766667Y7340420D01*
X20384819Y12833334D02*
X19908628Y12500001D01*
X20384819Y12261906D02*
X19384819Y12261906D01*
X19384819Y12261906D02*
X19384819Y12642858D01*
X19384819Y12642858D02*
X19432438Y12738096D01*
X19432438Y12738096D02*
X19480057Y12785715D01*
X19480057Y12785715D02*
X19575295Y12833334D01*
X19575295Y12833334D02*
X19718152Y12833334D01*
X19718152Y12833334D02*
X19813390Y12785715D01*
X19813390Y12785715D02*
X19861009Y12738096D01*
X19861009Y12738096D02*
X19908628Y12642858D01*
X19908628Y12642858D02*
X19908628Y12261906D01*
X19813390Y13404763D02*
X19765771Y13309525D01*
X19765771Y13309525D02*
X19718152Y13261906D01*
X19718152Y13261906D02*
X19622914Y13214287D01*
X19622914Y13214287D02*
X19575295Y13214287D01*
X19575295Y13214287D02*
X19480057Y13261906D01*
X19480057Y13261906D02*
X19432438Y13309525D01*
X19432438Y13309525D02*
X19384819Y13404763D01*
X19384819Y13404763D02*
X19384819Y13595239D01*
X19384819Y13595239D02*
X19432438Y13690477D01*
X19432438Y13690477D02*
X19480057Y13738096D01*
X19480057Y13738096D02*
X19575295Y13785715D01*
X19575295Y13785715D02*
X19622914Y13785715D01*
X19622914Y13785715D02*
X19718152Y13738096D01*
X19718152Y13738096D02*
X19765771Y13690477D01*
X19765771Y13690477D02*
X19813390Y13595239D01*
X19813390Y13595239D02*
X19813390Y13404763D01*
X19813390Y13404763D02*
X19861009Y13309525D01*
X19861009Y13309525D02*
X19908628Y13261906D01*
X19908628Y13261906D02*
X20003866Y13214287D01*
X20003866Y13214287D02*
X20194342Y13214287D01*
X20194342Y13214287D02*
X20289580Y13261906D01*
X20289580Y13261906D02*
X20337200Y13309525D01*
X20337200Y13309525D02*
X20384819Y13404763D01*
X20384819Y13404763D02*
X20384819Y13595239D01*
X20384819Y13595239D02*
X20337200Y13690477D01*
X20337200Y13690477D02*
X20289580Y13738096D01*
X20289580Y13738096D02*
X20194342Y13785715D01*
X20194342Y13785715D02*
X20003866Y13785715D01*
X20003866Y13785715D02*
X19908628Y13738096D01*
X19908628Y13738096D02*
X19861009Y13690477D01*
X19861009Y13690477D02*
X19813390Y13595239D01*
X31154819Y19733334D02*
X31154819Y19257144D01*
X31154819Y19257144D02*
X30154819Y19257144D01*
X30154819Y19971430D02*
X30154819Y20590477D01*
X30154819Y20590477D02*
X30535771Y20257144D01*
X30535771Y20257144D02*
X30535771Y20400001D01*
X30535771Y20400001D02*
X30583390Y20495239D01*
X30583390Y20495239D02*
X30631009Y20542858D01*
X30631009Y20542858D02*
X30726247Y20590477D01*
X30726247Y20590477D02*
X30964342Y20590477D01*
X30964342Y20590477D02*
X31059580Y20542858D01*
X31059580Y20542858D02*
X31107200Y20495239D01*
X31107200Y20495239D02*
X31154819Y20400001D01*
X31154819Y20400001D02*
X31154819Y20114287D01*
X31154819Y20114287D02*
X31107200Y20019049D01*
X31107200Y20019049D02*
X31059580Y19971430D01*
X36557142Y22440420D02*
X36509523Y22392800D01*
X36509523Y22392800D02*
X36366666Y22345181D01*
X36366666Y22345181D02*
X36271428Y22345181D01*
X36271428Y22345181D02*
X36128571Y22392800D01*
X36128571Y22392800D02*
X36033333Y22488039D01*
X36033333Y22488039D02*
X35985714Y22583277D01*
X35985714Y22583277D02*
X35938095Y22773753D01*
X35938095Y22773753D02*
X35938095Y22916610D01*
X35938095Y22916610D02*
X35985714Y23107086D01*
X35985714Y23107086D02*
X36033333Y23202324D01*
X36033333Y23202324D02*
X36128571Y23297562D01*
X36128571Y23297562D02*
X36271428Y23345181D01*
X36271428Y23345181D02*
X36366666Y23345181D01*
X36366666Y23345181D02*
X36509523Y23297562D01*
X36509523Y23297562D02*
X36557142Y23249943D01*
X37509523Y22345181D02*
X36938095Y22345181D01*
X37223809Y22345181D02*
X37223809Y23345181D01*
X37223809Y23345181D02*
X37128571Y23202324D01*
X37128571Y23202324D02*
X37033333Y23107086D01*
X37033333Y23107086D02*
X36938095Y23059467D01*
X37842857Y23345181D02*
X38461904Y23345181D01*
X38461904Y23345181D02*
X38128571Y22964229D01*
X38128571Y22964229D02*
X38271428Y22964229D01*
X38271428Y22964229D02*
X38366666Y22916610D01*
X38366666Y22916610D02*
X38414285Y22868991D01*
X38414285Y22868991D02*
X38461904Y22773753D01*
X38461904Y22773753D02*
X38461904Y22535658D01*
X38461904Y22535658D02*
X38414285Y22440420D01*
X38414285Y22440420D02*
X38366666Y22392800D01*
X38366666Y22392800D02*
X38271428Y22345181D01*
X38271428Y22345181D02*
X37985714Y22345181D01*
X37985714Y22345181D02*
X37890476Y22392800D01*
X37890476Y22392800D02*
X37842857Y22440420D01*
X21957142Y10145181D02*
X21623809Y10621372D01*
X21385714Y10145181D02*
X21385714Y11145181D01*
X21385714Y11145181D02*
X21766666Y11145181D01*
X21766666Y11145181D02*
X21861904Y11097562D01*
X21861904Y11097562D02*
X21909523Y11049943D01*
X21909523Y11049943D02*
X21957142Y10954705D01*
X21957142Y10954705D02*
X21957142Y10811848D01*
X21957142Y10811848D02*
X21909523Y10716610D01*
X21909523Y10716610D02*
X21861904Y10668991D01*
X21861904Y10668991D02*
X21766666Y10621372D01*
X21766666Y10621372D02*
X21385714Y10621372D01*
X22909523Y10145181D02*
X22338095Y10145181D01*
X22623809Y10145181D02*
X22623809Y11145181D01*
X22623809Y11145181D02*
X22528571Y11002324D01*
X22528571Y11002324D02*
X22433333Y10907086D01*
X22433333Y10907086D02*
X22338095Y10859467D01*
X23480952Y10716610D02*
X23385714Y10764229D01*
X23385714Y10764229D02*
X23338095Y10811848D01*
X23338095Y10811848D02*
X23290476Y10907086D01*
X23290476Y10907086D02*
X23290476Y10954705D01*
X23290476Y10954705D02*
X23338095Y11049943D01*
X23338095Y11049943D02*
X23385714Y11097562D01*
X23385714Y11097562D02*
X23480952Y11145181D01*
X23480952Y11145181D02*
X23671428Y11145181D01*
X23671428Y11145181D02*
X23766666Y11097562D01*
X23766666Y11097562D02*
X23814285Y11049943D01*
X23814285Y11049943D02*
X23861904Y10954705D01*
X23861904Y10954705D02*
X23861904Y10907086D01*
X23861904Y10907086D02*
X23814285Y10811848D01*
X23814285Y10811848D02*
X23766666Y10764229D01*
X23766666Y10764229D02*
X23671428Y10716610D01*
X23671428Y10716610D02*
X23480952Y10716610D01*
X23480952Y10716610D02*
X23385714Y10668991D01*
X23385714Y10668991D02*
X23338095Y10621372D01*
X23338095Y10621372D02*
X23290476Y10526134D01*
X23290476Y10526134D02*
X23290476Y10335658D01*
X23290476Y10335658D02*
X23338095Y10240420D01*
X23338095Y10240420D02*
X23385714Y10192800D01*
X23385714Y10192800D02*
X23480952Y10145181D01*
X23480952Y10145181D02*
X23671428Y10145181D01*
X23671428Y10145181D02*
X23766666Y10192800D01*
X23766666Y10192800D02*
X23814285Y10240420D01*
X23814285Y10240420D02*
X23861904Y10335658D01*
X23861904Y10335658D02*
X23861904Y10526134D01*
X23861904Y10526134D02*
X23814285Y10621372D01*
X23814285Y10621372D02*
X23766666Y10668991D01*
X23766666Y10668991D02*
X23671428Y10716610D01*
X11838095Y22645181D02*
X12409523Y22645181D01*
X12123809Y21645181D02*
X12123809Y22645181D01*
X12742857Y21645181D02*
X12742857Y22645181D01*
X12742857Y22645181D02*
X13123809Y22645181D01*
X13123809Y22645181D02*
X13219047Y22597562D01*
X13219047Y22597562D02*
X13266666Y22549943D01*
X13266666Y22549943D02*
X13314285Y22454705D01*
X13314285Y22454705D02*
X13314285Y22311848D01*
X13314285Y22311848D02*
X13266666Y22216610D01*
X13266666Y22216610D02*
X13219047Y22168991D01*
X13219047Y22168991D02*
X13123809Y22121372D01*
X13123809Y22121372D02*
X12742857Y22121372D01*
X14266666Y21645181D02*
X13695238Y21645181D01*
X13980952Y21645181D02*
X13980952Y22645181D01*
X13980952Y22645181D02*
X13885714Y22502324D01*
X13885714Y22502324D02*
X13790476Y22407086D01*
X13790476Y22407086D02*
X13695238Y22359467D01*
X14838095Y22545181D02*
X15409523Y22545181D01*
X15123809Y21545181D02*
X15123809Y22545181D01*
X15742857Y21545181D02*
X15742857Y22545181D01*
X15742857Y22545181D02*
X16123809Y22545181D01*
X16123809Y22545181D02*
X16219047Y22497562D01*
X16219047Y22497562D02*
X16266666Y22449943D01*
X16266666Y22449943D02*
X16314285Y22354705D01*
X16314285Y22354705D02*
X16314285Y22211848D01*
X16314285Y22211848D02*
X16266666Y22116610D01*
X16266666Y22116610D02*
X16219047Y22068991D01*
X16219047Y22068991D02*
X16123809Y22021372D01*
X16123809Y22021372D02*
X15742857Y22021372D01*
X16695238Y22449943D02*
X16742857Y22497562D01*
X16742857Y22497562D02*
X16838095Y22545181D01*
X16838095Y22545181D02*
X17076190Y22545181D01*
X17076190Y22545181D02*
X17171428Y22497562D01*
X17171428Y22497562D02*
X17219047Y22449943D01*
X17219047Y22449943D02*
X17266666Y22354705D01*
X17266666Y22354705D02*
X17266666Y22259467D01*
X17266666Y22259467D02*
X17219047Y22116610D01*
X17219047Y22116610D02*
X16647619Y21545181D01*
X16647619Y21545181D02*
X17266666Y21545181D01*
X39759580Y13357143D02*
X39807200Y13309524D01*
X39807200Y13309524D02*
X39854819Y13166667D01*
X39854819Y13166667D02*
X39854819Y13071429D01*
X39854819Y13071429D02*
X39807200Y12928572D01*
X39807200Y12928572D02*
X39711961Y12833334D01*
X39711961Y12833334D02*
X39616723Y12785715D01*
X39616723Y12785715D02*
X39426247Y12738096D01*
X39426247Y12738096D02*
X39283390Y12738096D01*
X39283390Y12738096D02*
X39092914Y12785715D01*
X39092914Y12785715D02*
X38997676Y12833334D01*
X38997676Y12833334D02*
X38902438Y12928572D01*
X38902438Y12928572D02*
X38854819Y13071429D01*
X38854819Y13071429D02*
X38854819Y13166667D01*
X38854819Y13166667D02*
X38902438Y13309524D01*
X38902438Y13309524D02*
X38950057Y13357143D01*
X39854819Y14309524D02*
X39854819Y13738096D01*
X39854819Y14023810D02*
X38854819Y14023810D01*
X38854819Y14023810D02*
X38997676Y13928572D01*
X38997676Y13928572D02*
X39092914Y13833334D01*
X39092914Y13833334D02*
X39140533Y13738096D01*
X38854819Y14642858D02*
X38854819Y15309524D01*
X38854819Y15309524D02*
X39854819Y14880953D01*
X30461905Y15845181D02*
X30461905Y16845181D01*
X30461905Y16845181D02*
X30700000Y16845181D01*
X30700000Y16845181D02*
X30842857Y16797562D01*
X30842857Y16797562D02*
X30938095Y16702324D01*
X30938095Y16702324D02*
X30985714Y16607086D01*
X30985714Y16607086D02*
X31033333Y16416610D01*
X31033333Y16416610D02*
X31033333Y16273753D01*
X31033333Y16273753D02*
X30985714Y16083277D01*
X30985714Y16083277D02*
X30938095Y15988039D01*
X30938095Y15988039D02*
X30842857Y15892800D01*
X30842857Y15892800D02*
X30700000Y15845181D01*
X30700000Y15845181D02*
X30461905Y15845181D01*
X31938095Y16845181D02*
X31461905Y16845181D01*
X31461905Y16845181D02*
X31414286Y16368991D01*
X31414286Y16368991D02*
X31461905Y16416610D01*
X31461905Y16416610D02*
X31557143Y16464229D01*
X31557143Y16464229D02*
X31795238Y16464229D01*
X31795238Y16464229D02*
X31890476Y16416610D01*
X31890476Y16416610D02*
X31938095Y16368991D01*
X31938095Y16368991D02*
X31985714Y16273753D01*
X31985714Y16273753D02*
X31985714Y16035658D01*
X31985714Y16035658D02*
X31938095Y15940420D01*
X31938095Y15940420D02*
X31890476Y15892800D01*
X31890476Y15892800D02*
X31795238Y15845181D01*
X31795238Y15845181D02*
X31557143Y15845181D01*
X31557143Y15845181D02*
X31461905Y15892800D01*
X31461905Y15892800D02*
X31414286Y15940420D01*
X30054819Y9361906D02*
X29054819Y9361906D01*
X29054819Y9361906D02*
X29054819Y9600001D01*
X29054819Y9600001D02*
X29102438Y9742858D01*
X29102438Y9742858D02*
X29197676Y9838096D01*
X29197676Y9838096D02*
X29292914Y9885715D01*
X29292914Y9885715D02*
X29483390Y9933334D01*
X29483390Y9933334D02*
X29626247Y9933334D01*
X29626247Y9933334D02*
X29816723Y9885715D01*
X29816723Y9885715D02*
X29911961Y9838096D01*
X29911961Y9838096D02*
X30007200Y9742858D01*
X30007200Y9742858D02*
X30054819Y9600001D01*
X30054819Y9600001D02*
X30054819Y9361906D01*
X29388152Y10790477D02*
X30054819Y10790477D01*
X29007200Y10552382D02*
X29721485Y10314287D01*
X29721485Y10314287D02*
X29721485Y10933334D01*
X36457142Y26740420D02*
X36409523Y26692800D01*
X36409523Y26692800D02*
X36266666Y26645181D01*
X36266666Y26645181D02*
X36171428Y26645181D01*
X36171428Y26645181D02*
X36028571Y26692800D01*
X36028571Y26692800D02*
X35933333Y26788039D01*
X35933333Y26788039D02*
X35885714Y26883277D01*
X35885714Y26883277D02*
X35838095Y27073753D01*
X35838095Y27073753D02*
X35838095Y27216610D01*
X35838095Y27216610D02*
X35885714Y27407086D01*
X35885714Y27407086D02*
X35933333Y27502324D01*
X35933333Y27502324D02*
X36028571Y27597562D01*
X36028571Y27597562D02*
X36171428Y27645181D01*
X36171428Y27645181D02*
X36266666Y27645181D01*
X36266666Y27645181D02*
X36409523Y27597562D01*
X36409523Y27597562D02*
X36457142Y27549943D01*
X37409523Y26645181D02*
X36838095Y26645181D01*
X37123809Y26645181D02*
X37123809Y27645181D01*
X37123809Y27645181D02*
X37028571Y27502324D01*
X37028571Y27502324D02*
X36933333Y27407086D01*
X36933333Y27407086D02*
X36838095Y27359467D01*
X38028571Y27645181D02*
X38123809Y27645181D01*
X38123809Y27645181D02*
X38219047Y27597562D01*
X38219047Y27597562D02*
X38266666Y27549943D01*
X38266666Y27549943D02*
X38314285Y27454705D01*
X38314285Y27454705D02*
X38361904Y27264229D01*
X38361904Y27264229D02*
X38361904Y27026134D01*
X38361904Y27026134D02*
X38314285Y26835658D01*
X38314285Y26835658D02*
X38266666Y26740420D01*
X38266666Y26740420D02*
X38219047Y26692800D01*
X38219047Y26692800D02*
X38123809Y26645181D01*
X38123809Y26645181D02*
X38028571Y26645181D01*
X38028571Y26645181D02*
X37933333Y26692800D01*
X37933333Y26692800D02*
X37885714Y26740420D01*
X37885714Y26740420D02*
X37838095Y26835658D01*
X37838095Y26835658D02*
X37790476Y27026134D01*
X37790476Y27026134D02*
X37790476Y27264229D01*
X37790476Y27264229D02*
X37838095Y27454705D01*
X37838095Y27454705D02*
X37885714Y27549943D01*
X37885714Y27549943D02*
X37933333Y27597562D01*
X37933333Y27597562D02*
X38028571Y27645181D01*
X42754819Y34957143D02*
X42278628Y34623810D01*
X42754819Y34385715D02*
X41754819Y34385715D01*
X41754819Y34385715D02*
X41754819Y34766667D01*
X41754819Y34766667D02*
X41802438Y34861905D01*
X41802438Y34861905D02*
X41850057Y34909524D01*
X41850057Y34909524D02*
X41945295Y34957143D01*
X41945295Y34957143D02*
X42088152Y34957143D01*
X42088152Y34957143D02*
X42183390Y34909524D01*
X42183390Y34909524D02*
X42231009Y34861905D01*
X42231009Y34861905D02*
X42278628Y34766667D01*
X42278628Y34766667D02*
X42278628Y34385715D01*
X42754819Y35909524D02*
X42754819Y35338096D01*
X42754819Y35623810D02*
X41754819Y35623810D01*
X41754819Y35623810D02*
X41897676Y35528572D01*
X41897676Y35528572D02*
X41992914Y35433334D01*
X41992914Y35433334D02*
X42040533Y35338096D01*
X41754819Y36528572D02*
X41754819Y36623810D01*
X41754819Y36623810D02*
X41802438Y36719048D01*
X41802438Y36719048D02*
X41850057Y36766667D01*
X41850057Y36766667D02*
X41945295Y36814286D01*
X41945295Y36814286D02*
X42135771Y36861905D01*
X42135771Y36861905D02*
X42373866Y36861905D01*
X42373866Y36861905D02*
X42564342Y36814286D01*
X42564342Y36814286D02*
X42659580Y36766667D01*
X42659580Y36766667D02*
X42707200Y36719048D01*
X42707200Y36719048D02*
X42754819Y36623810D01*
X42754819Y36623810D02*
X42754819Y36528572D01*
X42754819Y36528572D02*
X42707200Y36433334D01*
X42707200Y36433334D02*
X42659580Y36385715D01*
X42659580Y36385715D02*
X42564342Y36338096D01*
X42564342Y36338096D02*
X42373866Y36290477D01*
X42373866Y36290477D02*
X42135771Y36290477D01*
X42135771Y36290477D02*
X41945295Y36338096D01*
X41945295Y36338096D02*
X41850057Y36385715D01*
X41850057Y36385715D02*
X41802438Y36433334D01*
X41802438Y36433334D02*
X41754819Y36528572D01*
X3959580Y38333334D02*
X4007200Y38285715D01*
X4007200Y38285715D02*
X4054819Y38142858D01*
X4054819Y38142858D02*
X4054819Y38047620D01*
X4054819Y38047620D02*
X4007200Y37904763D01*
X4007200Y37904763D02*
X3911961Y37809525D01*
X3911961Y37809525D02*
X3816723Y37761906D01*
X3816723Y37761906D02*
X3626247Y37714287D01*
X3626247Y37714287D02*
X3483390Y37714287D01*
X3483390Y37714287D02*
X3292914Y37761906D01*
X3292914Y37761906D02*
X3197676Y37809525D01*
X3197676Y37809525D02*
X3102438Y37904763D01*
X3102438Y37904763D02*
X3054819Y38047620D01*
X3054819Y38047620D02*
X3054819Y38142858D01*
X3054819Y38142858D02*
X3102438Y38285715D01*
X3102438Y38285715D02*
X3150057Y38333334D01*
X3483390Y38904763D02*
X3435771Y38809525D01*
X3435771Y38809525D02*
X3388152Y38761906D01*
X3388152Y38761906D02*
X3292914Y38714287D01*
X3292914Y38714287D02*
X3245295Y38714287D01*
X3245295Y38714287D02*
X3150057Y38761906D01*
X3150057Y38761906D02*
X3102438Y38809525D01*
X3102438Y38809525D02*
X3054819Y38904763D01*
X3054819Y38904763D02*
X3054819Y39095239D01*
X3054819Y39095239D02*
X3102438Y39190477D01*
X3102438Y39190477D02*
X3150057Y39238096D01*
X3150057Y39238096D02*
X3245295Y39285715D01*
X3245295Y39285715D02*
X3292914Y39285715D01*
X3292914Y39285715D02*
X3388152Y39238096D01*
X3388152Y39238096D02*
X3435771Y39190477D01*
X3435771Y39190477D02*
X3483390Y39095239D01*
X3483390Y39095239D02*
X3483390Y38904763D01*
X3483390Y38904763D02*
X3531009Y38809525D01*
X3531009Y38809525D02*
X3578628Y38761906D01*
X3578628Y38761906D02*
X3673866Y38714287D01*
X3673866Y38714287D02*
X3864342Y38714287D01*
X3864342Y38714287D02*
X3959580Y38761906D01*
X3959580Y38761906D02*
X4007200Y38809525D01*
X4007200Y38809525D02*
X4054819Y38904763D01*
X4054819Y38904763D02*
X4054819Y39095239D01*
X4054819Y39095239D02*
X4007200Y39190477D01*
X4007200Y39190477D02*
X3959580Y39238096D01*
X3959580Y39238096D02*
X3864342Y39285715D01*
X3864342Y39285715D02*
X3673866Y39285715D01*
X3673866Y39285715D02*
X3578628Y39238096D01*
X3578628Y39238096D02*
X3531009Y39190477D01*
X3531009Y39190477D02*
X3483390Y39095239D01*
X5138095Y35445181D02*
X5138095Y34635658D01*
X5138095Y34635658D02*
X5185714Y34540420D01*
X5185714Y34540420D02*
X5233333Y34492800D01*
X5233333Y34492800D02*
X5328571Y34445181D01*
X5328571Y34445181D02*
X5519047Y34445181D01*
X5519047Y34445181D02*
X5614285Y34492800D01*
X5614285Y34492800D02*
X5661904Y34540420D01*
X5661904Y34540420D02*
X5709523Y34635658D01*
X5709523Y34635658D02*
X5709523Y35445181D01*
X6090476Y35445181D02*
X6709523Y35445181D01*
X6709523Y35445181D02*
X6376190Y35064229D01*
X6376190Y35064229D02*
X6519047Y35064229D01*
X6519047Y35064229D02*
X6614285Y35016610D01*
X6614285Y35016610D02*
X6661904Y34968991D01*
X6661904Y34968991D02*
X6709523Y34873753D01*
X6709523Y34873753D02*
X6709523Y34635658D01*
X6709523Y34635658D02*
X6661904Y34540420D01*
X6661904Y34540420D02*
X6614285Y34492800D01*
X6614285Y34492800D02*
X6519047Y34445181D01*
X6519047Y34445181D02*
X6233333Y34445181D01*
X6233333Y34445181D02*
X6138095Y34492800D01*
X6138095Y34492800D02*
X6090476Y34540420D01*
X10345180Y38300000D02*
X10107085Y38300000D01*
X10202323Y38538095D02*
X10107085Y38300000D01*
X10107085Y38300000D02*
X10202323Y38061905D01*
X9916609Y38442857D02*
X10107085Y38300000D01*
X10107085Y38300000D02*
X9916609Y38157143D01*
X9854819Y38900001D02*
X10092914Y38900001D01*
X9997676Y38661906D02*
X10092914Y38900001D01*
X10092914Y38900001D02*
X9997676Y39138096D01*
X10283390Y38757144D02*
X10092914Y38900001D01*
X10092914Y38900001D02*
X10283390Y39042858D01*
X13959580Y38233334D02*
X14007200Y38185715D01*
X14007200Y38185715D02*
X14054819Y38042858D01*
X14054819Y38042858D02*
X14054819Y37947620D01*
X14054819Y37947620D02*
X14007200Y37804763D01*
X14007200Y37804763D02*
X13911961Y37709525D01*
X13911961Y37709525D02*
X13816723Y37661906D01*
X13816723Y37661906D02*
X13626247Y37614287D01*
X13626247Y37614287D02*
X13483390Y37614287D01*
X13483390Y37614287D02*
X13292914Y37661906D01*
X13292914Y37661906D02*
X13197676Y37709525D01*
X13197676Y37709525D02*
X13102438Y37804763D01*
X13102438Y37804763D02*
X13054819Y37947620D01*
X13054819Y37947620D02*
X13054819Y38042858D01*
X13054819Y38042858D02*
X13102438Y38185715D01*
X13102438Y38185715D02*
X13150057Y38233334D01*
X13054819Y39090477D02*
X13054819Y38900001D01*
X13054819Y38900001D02*
X13102438Y38804763D01*
X13102438Y38804763D02*
X13150057Y38757144D01*
X13150057Y38757144D02*
X13292914Y38661906D01*
X13292914Y38661906D02*
X13483390Y38614287D01*
X13483390Y38614287D02*
X13864342Y38614287D01*
X13864342Y38614287D02*
X13959580Y38661906D01*
X13959580Y38661906D02*
X14007200Y38709525D01*
X14007200Y38709525D02*
X14054819Y38804763D01*
X14054819Y38804763D02*
X14054819Y38995239D01*
X14054819Y38995239D02*
X14007200Y39090477D01*
X14007200Y39090477D02*
X13959580Y39138096D01*
X13959580Y39138096D02*
X13864342Y39185715D01*
X13864342Y39185715D02*
X13626247Y39185715D01*
X13626247Y39185715D02*
X13531009Y39138096D01*
X13531009Y39138096D02*
X13483390Y39090477D01*
X13483390Y39090477D02*
X13435771Y38995239D01*
X13435771Y38995239D02*
X13435771Y38804763D01*
X13435771Y38804763D02*
X13483390Y38709525D01*
X13483390Y38709525D02*
X13531009Y38661906D01*
X13531009Y38661906D02*
X13626247Y38614287D01*
X36357142Y5145181D02*
X36023809Y5621372D01*
X35785714Y5145181D02*
X35785714Y6145181D01*
X35785714Y6145181D02*
X36166666Y6145181D01*
X36166666Y6145181D02*
X36261904Y6097562D01*
X36261904Y6097562D02*
X36309523Y6049943D01*
X36309523Y6049943D02*
X36357142Y5954705D01*
X36357142Y5954705D02*
X36357142Y5811848D01*
X36357142Y5811848D02*
X36309523Y5716610D01*
X36309523Y5716610D02*
X36261904Y5668991D01*
X36261904Y5668991D02*
X36166666Y5621372D01*
X36166666Y5621372D02*
X35785714Y5621372D01*
X37309523Y5145181D02*
X36738095Y5145181D01*
X37023809Y5145181D02*
X37023809Y6145181D01*
X37023809Y6145181D02*
X36928571Y6002324D01*
X36928571Y6002324D02*
X36833333Y5907086D01*
X36833333Y5907086D02*
X36738095Y5859467D01*
X37642857Y6145181D02*
X38309523Y6145181D01*
X38309523Y6145181D02*
X37880952Y5145181D01*
X4054819Y40557143D02*
X3578628Y40223810D01*
X4054819Y39985715D02*
X3054819Y39985715D01*
X3054819Y39985715D02*
X3054819Y40366667D01*
X3054819Y40366667D02*
X3102438Y40461905D01*
X3102438Y40461905D02*
X3150057Y40509524D01*
X3150057Y40509524D02*
X3245295Y40557143D01*
X3245295Y40557143D02*
X3388152Y40557143D01*
X3388152Y40557143D02*
X3483390Y40509524D01*
X3483390Y40509524D02*
X3531009Y40461905D01*
X3531009Y40461905D02*
X3578628Y40366667D01*
X3578628Y40366667D02*
X3578628Y39985715D01*
X4054819Y41509524D02*
X4054819Y40938096D01*
X4054819Y41223810D02*
X3054819Y41223810D01*
X3054819Y41223810D02*
X3197676Y41128572D01*
X3197676Y41128572D02*
X3292914Y41033334D01*
X3292914Y41033334D02*
X3340533Y40938096D01*
X3054819Y41842858D02*
X3054819Y42461905D01*
X3054819Y42461905D02*
X3435771Y42128572D01*
X3435771Y42128572D02*
X3435771Y42271429D01*
X3435771Y42271429D02*
X3483390Y42366667D01*
X3483390Y42366667D02*
X3531009Y42414286D01*
X3531009Y42414286D02*
X3626247Y42461905D01*
X3626247Y42461905D02*
X3864342Y42461905D01*
X3864342Y42461905D02*
X3959580Y42414286D01*
X3959580Y42414286D02*
X4007200Y42366667D01*
X4007200Y42366667D02*
X4054819Y42271429D01*
X4054819Y42271429D02*
X4054819Y41985715D01*
X4054819Y41985715D02*
X4007200Y41890477D01*
X4007200Y41890477D02*
X3959580Y41842858D01*
X28759580Y9157143D02*
X28807200Y9109524D01*
X28807200Y9109524D02*
X28854819Y8966667D01*
X28854819Y8966667D02*
X28854819Y8871429D01*
X28854819Y8871429D02*
X28807200Y8728572D01*
X28807200Y8728572D02*
X28711961Y8633334D01*
X28711961Y8633334D02*
X28616723Y8585715D01*
X28616723Y8585715D02*
X28426247Y8538096D01*
X28426247Y8538096D02*
X28283390Y8538096D01*
X28283390Y8538096D02*
X28092914Y8585715D01*
X28092914Y8585715D02*
X27997676Y8633334D01*
X27997676Y8633334D02*
X27902438Y8728572D01*
X27902438Y8728572D02*
X27854819Y8871429D01*
X27854819Y8871429D02*
X27854819Y8966667D01*
X27854819Y8966667D02*
X27902438Y9109524D01*
X27902438Y9109524D02*
X27950057Y9157143D01*
X28854819Y10109524D02*
X28854819Y9538096D01*
X28854819Y9823810D02*
X27854819Y9823810D01*
X27854819Y9823810D02*
X27997676Y9728572D01*
X27997676Y9728572D02*
X28092914Y9633334D01*
X28092914Y9633334D02*
X28140533Y9538096D01*
X27950057Y10490477D02*
X27902438Y10538096D01*
X27902438Y10538096D02*
X27854819Y10633334D01*
X27854819Y10633334D02*
X27854819Y10871429D01*
X27854819Y10871429D02*
X27902438Y10966667D01*
X27902438Y10966667D02*
X27950057Y11014286D01*
X27950057Y11014286D02*
X28045295Y11061905D01*
X28045295Y11061905D02*
X28140533Y11061905D01*
X28140533Y11061905D02*
X28283390Y11014286D01*
X28283390Y11014286D02*
X28854819Y10442858D01*
X28854819Y10442858D02*
X28854819Y11061905D01*
X23179580Y17233334D02*
X23227200Y17185715D01*
X23227200Y17185715D02*
X23274819Y17042858D01*
X23274819Y17042858D02*
X23274819Y16947620D01*
X23274819Y16947620D02*
X23227200Y16804763D01*
X23227200Y16804763D02*
X23131961Y16709525D01*
X23131961Y16709525D02*
X23036723Y16661906D01*
X23036723Y16661906D02*
X22846247Y16614287D01*
X22846247Y16614287D02*
X22703390Y16614287D01*
X22703390Y16614287D02*
X22512914Y16661906D01*
X22512914Y16661906D02*
X22417676Y16709525D01*
X22417676Y16709525D02*
X22322438Y16804763D01*
X22322438Y16804763D02*
X22274819Y16947620D01*
X22274819Y16947620D02*
X22274819Y17042858D01*
X22274819Y17042858D02*
X22322438Y17185715D01*
X22322438Y17185715D02*
X22370057Y17233334D01*
X23274819Y17709525D02*
X23274819Y17900001D01*
X23274819Y17900001D02*
X23227200Y17995239D01*
X23227200Y17995239D02*
X23179580Y18042858D01*
X23179580Y18042858D02*
X23036723Y18138096D01*
X23036723Y18138096D02*
X22846247Y18185715D01*
X22846247Y18185715D02*
X22465295Y18185715D01*
X22465295Y18185715D02*
X22370057Y18138096D01*
X22370057Y18138096D02*
X22322438Y18090477D01*
X22322438Y18090477D02*
X22274819Y17995239D01*
X22274819Y17995239D02*
X22274819Y17804763D01*
X22274819Y17804763D02*
X22322438Y17709525D01*
X22322438Y17709525D02*
X22370057Y17661906D01*
X22370057Y17661906D02*
X22465295Y17614287D01*
X22465295Y17614287D02*
X22703390Y17614287D01*
X22703390Y17614287D02*
X22798628Y17661906D01*
X22798628Y17661906D02*
X22846247Y17709525D01*
X22846247Y17709525D02*
X22893866Y17804763D01*
X22893866Y17804763D02*
X22893866Y17995239D01*
X22893866Y17995239D02*
X22846247Y18090477D01*
X22846247Y18090477D02*
X22798628Y18138096D01*
X22798628Y18138096D02*
X22703390Y18185715D01*
X18933333Y7245181D02*
X18600000Y7721372D01*
X18361905Y7245181D02*
X18361905Y8245181D01*
X18361905Y8245181D02*
X18742857Y8245181D01*
X18742857Y8245181D02*
X18838095Y8197562D01*
X18838095Y8197562D02*
X18885714Y8149943D01*
X18885714Y8149943D02*
X18933333Y8054705D01*
X18933333Y8054705D02*
X18933333Y7911848D01*
X18933333Y7911848D02*
X18885714Y7816610D01*
X18885714Y7816610D02*
X18838095Y7768991D01*
X18838095Y7768991D02*
X18742857Y7721372D01*
X18742857Y7721372D02*
X18361905Y7721372D01*
X19266667Y8245181D02*
X19933333Y8245181D01*
X19933333Y8245181D02*
X19504762Y7245181D01*
D12*
%TO.C,BT1*%
X35000000Y26500000D02*
X31847300Y22890000D01*
X35000000Y28255000D02*
X35000000Y26500000D01*
X35000000Y33745000D02*
X35000000Y35500000D01*
X31847300Y22890000D02*
X16152700Y22890000D01*
X31847300Y39110000D02*
X35000000Y35500000D01*
X27860000Y39110000D02*
X31847300Y39110000D01*
X26835844Y38085844D02*
X27860000Y39110000D01*
X21164156Y38085844D02*
X20140000Y39110000D01*
X16152700Y39110000D02*
X20140000Y39110000D01*
X13000000Y26500000D02*
X16152700Y22890000D01*
X13000000Y28255000D02*
X13000000Y26500000D01*
X13000000Y33745000D02*
X13000000Y35500000D01*
X13000000Y35500000D02*
X16152700Y39110000D01*
%TO.C,C1*%
X37490000Y39853733D02*
X37490000Y40146267D01*
X38510000Y39853733D02*
X38510000Y40146267D01*
%TO.C,C2*%
X28390000Y2953733D02*
X28390000Y3246267D01*
X29410000Y2953733D02*
X29410000Y3246267D01*
%TO.C,C4*%
X7646267Y3490000D02*
X7353733Y3490000D01*
X7646267Y4510000D02*
X7353733Y4510000D01*
%TO.C,C5*%
X7646267Y4990000D02*
X7353733Y4990000D01*
X7646267Y6010000D02*
X7353733Y6010000D01*
%TO.C,J1*%
X44830000Y41330000D02*
X44830000Y40000000D01*
X43500000Y41330000D02*
X44830000Y41330000D01*
X42230000Y41330000D02*
X39630000Y41330000D01*
X42230000Y41330000D02*
X42230000Y38670000D01*
X39630000Y41330000D02*
X39630000Y38670000D01*
X42230000Y38670000D02*
X39630000Y38670000D01*
D13*
%TO.C,J2*%
X22285000Y1465000D02*
X25715000Y1465000D01*
X25715000Y7985000D02*
X22285000Y7985000D01*
X26135000Y935000D02*
G75*
G03*
X26135000Y935000I-100000J0D01*
G01*
D12*
%TO.C,J3*%
X8460000Y31560000D02*
X8460000Y30540000D01*
X4210000Y31560000D02*
X8460000Y31560000D01*
X8460000Y30540000D02*
X6860000Y30540000D01*
X6860000Y30540000D02*
X6860000Y29260000D01*
X640000Y29840000D02*
X640000Y13160000D01*
X6860000Y29260000D02*
X9750000Y29260000D01*
X8460000Y12460000D02*
X6860000Y12460000D01*
X6860000Y12460000D02*
X6860000Y13740000D01*
X8460000Y11440000D02*
X8460000Y12460000D01*
X4210000Y11440000D02*
X8460000Y11440000D01*
%TO.C,L1*%
X5477500Y7970276D02*
X5477500Y8479724D01*
X6522500Y7970276D02*
X6522500Y8479724D01*
%TO.C,R2*%
X11645276Y15022500D02*
X12154724Y15022500D01*
X11645276Y13977500D02*
X12154724Y13977500D01*
%TO.C,U2*%
X9742500Y8710000D02*
X10467500Y8710000D01*
X13962500Y7985000D02*
X13962500Y8710000D01*
X9742500Y7985000D02*
X9742500Y8710000D01*
X13962500Y5215000D02*
X13962500Y4490000D01*
X9742500Y5215000D02*
X9742500Y4490000D01*
X13962500Y4490000D02*
X13237500Y4490000D01*
X9742500Y4490000D02*
X10467500Y4490000D01*
%TO.C,Q1*%
X25320000Y12340000D02*
X26730000Y12340000D01*
X26730000Y14660000D02*
X24700000Y14660000D01*
X26730000Y14660000D02*
X26730000Y14000000D01*
X26730000Y13000000D02*
X26730000Y12340000D01*
%TO.C,R4*%
X19022500Y18167224D02*
X19022500Y17657776D01*
X17977500Y18167224D02*
X17977500Y17657776D01*
%TO.C,R5*%
X7922500Y40254724D02*
X7922500Y39745276D01*
X6877500Y40254724D02*
X6877500Y39745276D01*
%TO.C,R14*%
X32622500Y20154724D02*
X32622500Y19645276D01*
X31577500Y20154724D02*
X31577500Y19645276D01*
%TO.C,C19*%
X37146267Y11990000D02*
X36853733Y11990000D01*
X37146267Y13010000D02*
X36853733Y13010000D01*
%TO.C,R6*%
X18719724Y4242500D02*
X18210276Y4242500D01*
X18719724Y5287500D02*
X18210276Y5287500D01*
%TO.C,R16*%
X36522500Y8254724D02*
X36522500Y7745276D01*
X35477500Y8254724D02*
X35477500Y7745276D01*
%TO.C,C11*%
X37146267Y23690000D02*
X36853733Y23690000D01*
X37146267Y24710000D02*
X36853733Y24710000D01*
%TO.C,L2*%
X9299622Y32590000D02*
X8500378Y32590000D01*
X9299622Y33990000D02*
X8500378Y33990000D01*
%TO.C,C20*%
X37146267Y10490000D02*
X36853733Y10490000D01*
X37146267Y11510000D02*
X36853733Y11510000D01*
%TO.C,C14*%
X37146267Y19490000D02*
X36853733Y19490000D01*
X37146267Y20510000D02*
X36853733Y20510000D01*
%TO.C,C7*%
X11253733Y41710000D02*
X11546267Y41710000D01*
X11253733Y40690000D02*
X11546267Y40690000D01*
%TO.C,Y1*%
X8600000Y9775000D02*
X7400000Y9775000D01*
X8700000Y8325000D02*
X8700000Y8125000D01*
X7300000Y8325000D02*
X7300000Y8125000D01*
%TO.C,C16*%
X37146267Y16490000D02*
X36853733Y16490000D01*
X37146267Y17510000D02*
X36853733Y17510000D01*
%TO.C,C18*%
X37146267Y13490000D02*
X36853733Y13490000D01*
X37146267Y14510000D02*
X36853733Y14510000D01*
%TO.C,J4*%
X43440000Y30325000D02*
X44040000Y30325000D01*
X43440000Y30215000D02*
X43440000Y30325000D01*
X39800000Y28350000D02*
X39400000Y28150000D01*
X39400000Y28150000D02*
X39800000Y27950000D01*
X39800000Y27950000D02*
X39800000Y28350000D01*
X40850000Y27450000D02*
X40850000Y27050000D01*
X41250000Y27250000D02*
X40850000Y27450000D01*
X40850000Y27050000D02*
X41250000Y27250000D01*
X43440000Y12785000D02*
X43440000Y12675000D01*
X43440000Y12675000D02*
X44040000Y12675000D01*
%TO.C,R15*%
X22477500Y12745276D02*
X22477500Y13254724D01*
X23522500Y12745276D02*
X23522500Y13254724D01*
%TO.C,R9*%
X41522500Y32754724D02*
X41522500Y32245276D01*
X40477500Y32754724D02*
X40477500Y32245276D01*
%TO.C,Q2*%
X40362500Y9560000D02*
X38562500Y9560000D01*
X40362500Y9560000D02*
X41162500Y9560000D01*
X40362500Y6440000D02*
X39562500Y6440000D01*
X40362500Y6440000D02*
X41162500Y6440000D01*
D14*
%TO.C,L4*%
X28684928Y18663393D02*
G75*
G03*
X27177806Y18600000I-684928J-1663394D01*
G01*
X27177806Y15355617D02*
G75*
G03*
X28700000Y15300001I822193J1644383D01*
G01*
D12*
%TO.C,C15*%
X37146267Y17990000D02*
X36853733Y17990000D01*
X37146267Y19010000D02*
X36853733Y19010000D01*
%TO.C,D3*%
X34860000Y8500000D02*
X34860000Y10500000D01*
X34860000Y8500000D02*
X30850000Y8500000D01*
X34860000Y10500000D02*
X30850000Y10500000D01*
%TO.C,R8*%
X19022500Y13254724D02*
X19022500Y12745276D01*
X17977500Y13254724D02*
X17977500Y12745276D01*
%TO.C,L3*%
X33477500Y20245276D02*
X33477500Y20754724D01*
X34522500Y20245276D02*
X34522500Y20754724D01*
%TO.C,C13*%
X37146267Y20990000D02*
X36853733Y20990000D01*
X37146267Y22010000D02*
X36853733Y22010000D01*
%TO.C,R18*%
X25772936Y11735000D02*
X26227064Y11735000D01*
X25772936Y10265000D02*
X26227064Y10265000D01*
%TO.C,TP1*%
X14200000Y20000000D02*
G75*
G03*
X11800000Y20000000I-1200000J0D01*
G01*
X14200000Y17000000D02*
G75*
G03*
X14200000Y17000000I-1200000J0D01*
G01*
%TO.C,TP2*%
X17200000Y20000000D02*
G75*
G03*
X14800000Y20000000I-1200000J0D01*
G01*
X17200000Y17000000D02*
G75*
G03*
X17200000Y17000000I-1200000J0D01*
G01*
%TO.C,C17*%
X37146267Y14990000D02*
X36853733Y14990000D01*
X37146267Y16010000D02*
X36853733Y16010000D01*
%TO.C,D5*%
X34860000Y13500000D02*
X34860000Y15500000D01*
X34860000Y13500000D02*
X30850000Y13500000D01*
X34860000Y15500000D02*
X30850000Y15500000D01*
%TO.C,D4*%
X30140000Y13000000D02*
X30140000Y11000000D01*
X30140000Y13000000D02*
X34150000Y13000000D01*
X30140000Y11000000D02*
X34150000Y11000000D01*
%TO.C,C10*%
X37146267Y25190000D02*
X36853733Y25190000D01*
X37146267Y26210000D02*
X36853733Y26210000D01*
%TO.C,R10*%
X43022500Y32754724D02*
X43022500Y32245276D01*
X41977500Y32754724D02*
X41977500Y32245276D01*
%TO.C,C8*%
X4490000Y39288748D02*
X4490000Y40711252D01*
X6310000Y39288748D02*
X6310000Y40711252D01*
D15*
%TO.C,U3*%
X9927000Y37809500D02*
X9927000Y37167640D01*
X7173000Y37167640D02*
X7173000Y37809500D01*
X9927000Y35697360D02*
X9927000Y35055500D01*
X7173000Y35055500D02*
X7173000Y35697360D01*
D12*
%TO.C,C6*%
X10790000Y37088748D02*
X10790000Y38511252D01*
X12610000Y37088748D02*
X12610000Y38511252D01*
%TO.C,R17*%
X36977500Y7745276D02*
X36977500Y8254724D01*
X38022500Y7745276D02*
X38022500Y8254724D01*
%TO.C,R13*%
X8477500Y39745276D02*
X8477500Y40254724D01*
X9522500Y39745276D02*
X9522500Y40254724D01*
%TO.C,C12*%
X28265000Y12738748D02*
X28265000Y13261252D01*
X29735000Y12738748D02*
X29735000Y13261252D01*
%TO.C,C9*%
X23765000Y16738748D02*
X23765000Y17261252D01*
X25235000Y16738748D02*
X25235000Y17261252D01*
%TO.C,R7*%
X18719724Y5742500D02*
X18210276Y5742500D01*
X18719724Y6787500D02*
X18210276Y6787500D01*
%TD*%
M02*
